<svg width="320" height="500" viewBox="0 0 320 500" fill="none" xmlns="http://www.w3.org/2000/svg">
<rect x="0.5" y="0.5" width="319" height="499" rx="3.5" fill="white" stroke="black"/>
<path d="M27 483.017H16.8182V479.577C16.8182 478.781 16.9541 478.128 17.2259 477.618C17.4943 477.107 17.8639 476.73 18.3345 476.484C18.8052 476.239 19.3404 476.116 19.9403 476.116C20.5402 476.116 21.0722 476.239 21.5362 476.484C22.0002 476.73 22.3648 477.106 22.63 477.613C22.8918 478.12 23.0227 478.768 23.0227 479.557V482.341H21.9091V479.597C21.9091 479.053 21.8295 478.616 21.6705 478.284C21.5114 477.949 21.286 477.707 20.9943 477.558C20.6993 477.406 20.348 477.33 19.9403 477.33C19.5327 477.33 19.1764 477.406 18.8714 477.558C18.5665 477.711 18.3312 477.954 18.1655 478.289C17.9964 478.624 17.9119 479.066 17.9119 479.616V481.784H27V483.017ZM22.4261 478.224L27 475.719V477.151L22.4261 479.616V478.224ZM27.1591 471.101C27.1591 471.837 26.9967 472.472 26.6719 473.006C26.3438 473.536 25.8864 473.945 25.2997 474.233C24.7098 474.519 24.0237 474.661 23.2415 474.661C22.4593 474.661 21.7699 474.519 21.1733 474.233C20.5734 473.945 20.1061 473.544 19.7713 473.03C19.4332 472.513 19.2642 471.91 19.2642 471.221C19.2642 470.823 19.3305 470.43 19.4631 470.042C19.5956 469.655 19.8111 469.302 20.1094 468.983C20.4044 468.665 20.7955 468.412 21.2827 468.223C21.7699 468.034 22.3698 467.939 23.0824 467.939H23.5795L23.5795 473.826H22.5653L22.5653 469.133C22.1345 469.133 21.75 469.219 21.4119 469.391C21.0739 469.56 20.8071 469.802 20.6115 470.117C20.416 470.429 20.3182 470.796 20.3182 471.221C20.3182 471.688 20.4342 472.092 20.6662 472.434C20.8949 472.772 21.1932 473.032 21.5611 473.214C21.929 473.397 22.3234 473.488 22.7443 473.488H23.4205C23.9972 473.488 24.486 473.388 24.8871 473.189C25.2848 472.987 25.5881 472.707 25.7969 472.349C26.0024 471.991 26.1051 471.575 26.1051 471.101C26.1051 470.793 26.062 470.515 25.9759 470.266C25.8864 470.014 25.7538 469.797 25.5781 469.615C25.3991 469.433 25.1771 469.292 24.9119 469.192L25.2301 468.059C25.6146 468.178 25.9527 468.379 26.2443 468.66C26.5327 468.942 26.758 469.29 26.9205 469.704C27.0795 470.119 27.1591 470.584 27.1591 471.101ZM27.1591 463.052C27.1591 463.768 26.9901 464.385 26.652 464.902C26.3139 465.419 25.8482 465.817 25.255 466.095C24.6617 466.373 23.9839 466.513 23.2216 466.513C22.446 466.513 21.7616 466.37 21.1683 466.085C20.5717 465.797 20.1061 465.396 19.7713 464.882C19.4332 464.365 19.2642 463.762 19.2642 463.072C19.2642 462.535 19.3636 462.051 19.5625 461.621C19.7614 461.19 20.0398 460.837 20.3977 460.562C20.7557 460.287 21.1733 460.116 21.6506 460.05V461.223C21.3026 461.312 20.9943 461.511 20.7259 461.819C20.4541 462.124 20.3182 462.535 20.3182 463.052C20.3182 463.51 20.4375 463.911 20.6761 464.256C20.9115 464.597 21.2446 464.864 21.6754 465.056C22.103 465.245 22.6051 465.339 23.1818 465.339C23.7718 465.339 24.2855 465.247 24.723 465.061C25.1605 464.872 25.5002 464.607 25.7422 464.265C25.9841 463.921 26.1051 463.516 26.1051 463.052C26.1051 462.747 26.0521 462.471 25.946 462.222C25.84 461.974 25.6875 461.763 25.4886 461.591C25.2898 461.418 25.0511 461.296 24.7727 461.223V460.05C25.2235 460.116 25.6295 460.28 25.9908 460.542C26.3487 460.8 26.6338 461.143 26.8459 461.571C27.0547 461.995 27.1591 462.489 27.1591 463.052ZM27.1591 455.133C27.1591 455.868 26.9967 456.503 26.6719 457.037C26.3438 457.567 25.8864 457.976 25.2997 458.265C24.7098 458.55 24.0237 458.692 23.2415 458.692C22.4593 458.692 21.7699 458.55 21.1733 458.265C20.5734 457.976 20.1061 457.575 19.7713 457.062C19.4332 456.545 19.2642 455.941 19.2642 455.252C19.2642 454.854 19.3305 454.461 19.4631 454.074C19.5956 453.686 19.8111 453.333 20.1094 453.015C20.4044 452.697 20.7955 452.443 21.2827 452.254C21.7699 452.065 22.3698 451.971 23.0824 451.971H23.5795V457.857H22.5653V453.164C22.1345 453.164 21.75 453.25 21.4119 453.422C21.0739 453.591 20.8071 453.833 20.6115 454.148C20.416 454.46 20.3182 454.828 20.3182 455.252C20.3182 455.719 20.4342 456.124 20.6662 456.465C20.8949 456.803 21.1932 457.063 21.5611 457.246C21.929 457.428 22.3234 457.519 22.7443 457.519H23.4205C23.9972 457.519 24.486 457.42 24.8871 457.221C25.2848 457.019 25.5881 456.738 25.7969 456.381C26.0024 456.023 26.1051 455.607 26.1051 455.133C26.1051 454.824 26.062 454.546 25.9759 454.297C25.8864 454.046 25.7538 453.828 25.5781 453.646C25.3991 453.464 25.1771 453.323 24.9119 453.224L25.2301 452.09C25.6146 452.209 25.9527 452.41 26.2443 452.692C26.5327 452.973 26.758 453.321 26.9205 453.736C27.0795 454.15 27.1591 454.616 27.1591 455.133ZM27 450.186H19.3636V449.013H27V450.186ZM18.0909 449.589C18.0909 449.818 18.013 450.015 17.8572 450.181C17.7015 450.343 17.5142 450.425 17.2955 450.425C17.0767 450.425 16.8894 450.343 16.7337 450.181C16.5779 450.015 16.5 449.818 16.5 449.589C16.5 449.361 16.5779 449.165 16.7337 449.003C16.8894 448.837 17.0767 448.754 17.2955 448.754C17.5142 448.754 17.7015 448.837 17.8572 449.003C18.013 449.165 18.0909 449.361 18.0909 449.589ZM29.8636 446.864H19.3636V445.73H20.5767V445.591C20.4441 445.505 20.2751 445.385 20.0696 445.233C19.8608 445.077 19.6752 444.855 19.5128 444.567C19.3471 444.275 19.2642 443.881 19.2642 443.384C19.2642 442.741 19.425 442.174 19.7464 441.683C20.0679 441.193 20.5237 440.81 21.1136 440.535C21.7036 440.26 22.3996 440.122 23.2017 440.122C24.0104 440.122 24.7114 440.26 25.3047 440.535C25.8946 440.81 26.352 441.191 26.6768 441.678C26.9983 442.165 27.1591 442.727 27.1591 443.364C27.1591 443.854 27.0779 444.247 26.9155 444.542C26.7498 444.837 26.5625 445.064 26.3537 445.223C26.1416 445.382 25.9659 445.505 25.8267 445.591V445.69H29.8636L29.8636 446.864ZM23.1818 445.71C23.7585 445.71 24.2673 445.626 24.7081 445.457C25.1456 445.288 25.4886 445.041 25.7372 444.716C25.9825 444.391 26.1051 443.993 26.1051 443.523C26.1051 443.032 25.9759 442.623 25.7173 442.295C25.4555 441.963 25.1042 441.715 24.6634 441.549C24.2192 441.38 23.7254 441.295 23.1818 441.295C22.6449 441.295 22.161 441.378 21.7301 441.544C21.2959 441.706 20.9529 441.953 20.701 442.285C20.4458 442.613 20.3182 443.026 20.3182 443.523C20.3182 444 20.4392 444.401 20.6811 444.726C20.9197 445.051 21.2545 445.296 21.6854 445.462C22.1129 445.627 22.6117 445.71 23.1818 445.71ZM19.3636 435.011H20.358V438.969H19.3636V435.011ZM17.5341 437.815V436.642H24.8125C25.1439 436.642 25.3925 436.594 25.5582 436.498C25.7206 436.398 25.83 436.272 25.8864 436.12C25.9394 435.964 25.9659 435.8 25.9659 435.628C25.9659 435.499 25.9593 435.393 25.946 435.31C25.9295 435.227 25.9162 435.161 25.9063 435.111L26.9602 434.872C26.9901 434.952 27.0199 435.063 27.0497 435.205C27.0829 435.348 27.0994 435.528 27.0994 435.747C27.0994 436.079 27.0282 436.403 26.8857 436.722C26.7431 437.036 26.526 437.298 26.2344 437.507C25.9427 437.713 25.5748 437.815 25.1307 437.815H17.5341ZM27 427.977H28.0938L28.0938 434.34H27L27 427.977ZM27 427.135H26.1051L20.5369 422.8H20.4574V426.996H19.3636V421.289H20.2983L25.8267 425.504H25.9063V421.149H27V427.135ZM27 419.561H26.1051L20.5369 415.226H20.4574V419.422H19.3636V413.714H20.2983L25.8267 417.93H25.9063V413.575H27V419.561ZM27 411.768H19.3636V410.595H27V411.768ZM18.0909 411.171C18.0909 411.4 18.013 411.597 17.8572 411.763C17.7015 411.925 17.5142 412.007 17.2955 412.007C17.0767 412.007 16.8894 411.925 16.7337 411.763C16.5779 411.597 16.5 411.4 16.5 411.171C16.5 410.943 16.5779 410.747 16.7337 410.585C16.8894 410.419 17.0767 410.336 17.2955 410.336C17.5142 410.336 17.7015 410.419 17.8572 410.585C18.013 410.747 18.0909 410.943 18.0909 411.171ZM24.2159 407.352L22.7642 407.372V407.133L19.3636 403.792V402.341L22.9631 405.9V406L24.2159 407.352ZM27 408.446H16.8182V407.272H27V408.446ZM27 403.593L23.2216 406.576L22.4063 405.741L27 402.102V403.593ZM27 400.83H19.3636V399.697H20.5568V399.597C20.1491 399.438 19.8326 399.182 19.6072 398.827C19.3786 398.472 19.2642 398.046 19.2642 397.549C19.2642 397.045 19.3786 396.626 19.6072 396.291C19.8326 395.953 20.1491 395.69 20.5568 395.501V395.421C20.1624 395.226 19.8492 394.932 19.6172 394.541C19.3819 394.15 19.2642 393.681 19.2642 393.134C19.2642 392.452 19.478 391.893 19.9055 391.459C20.3298 391.025 20.991 390.808 21.8892 390.808H27V391.981H21.8892C21.3258 391.981 20.9231 392.135 20.6811 392.443C20.4392 392.752 20.3182 393.115 20.3182 393.532C20.3182 394.069 20.4806 394.485 20.8054 394.78C21.1269 395.075 21.5346 395.222 22.0284 395.222H27V396.416H21.7699C21.3357 396.416 20.986 396.557 20.7209 396.838C20.4524 397.12 20.3182 397.483 20.3182 397.927C20.3182 398.232 20.3994 398.517 20.5618 398.782C20.7242 399.044 20.9496 399.256 21.2379 399.419C21.523 399.578 21.8527 399.657 22.2273 399.657H27V400.83ZM23.8778 383.85H19.3636V382.677H27V383.85H25.7074V383.93C26.0952 384.108 26.425 384.387 26.6967 384.765C26.9652 385.143 27.0994 385.62 27.0994 386.197C27.0994 386.674 26.995 387.098 26.7862 387.469C26.5741 387.84 26.2559 388.132 25.8317 388.344C25.4041 388.556 24.8655 388.662 24.2159 388.662H19.3636V387.489H24.1364C24.6932 387.489 25.1373 387.333 25.4688 387.022C25.8002 386.707 25.9659 386.306 25.9659 385.819C25.9659 385.527 25.8913 385.23 25.7422 384.929C25.593 384.624 25.3643 384.369 25.0561 384.163C24.7479 383.954 24.3551 383.85 23.8778 383.85ZM24.2159 379.434L22.7642 379.454V379.215L19.3636 375.874V374.423L22.9631 377.982V378.082L24.2159 379.434ZM27 380.528H16.8182V379.354H27V380.528ZM27 375.675L23.2216 378.658L22.4063 377.823L27 374.184V375.675Z" fill="black"/>
<path d="M292 16.983H302.182V20.4233C302.182 21.2188 302.046 21.8717 301.774 22.3821C301.506 22.8925 301.136 23.2704 300.665 23.5156C300.195 23.7609 299.66 23.8835 299.06 23.8835C298.46 23.8835 297.928 23.7609 297.464 23.5156C297 23.2704 296.635 22.8942 296.37 22.3871C296.108 21.88 295.977 21.232 295.977 20.4432V17.6591H297.091V20.4034C297.091 20.947 297.17 21.3845 297.33 21.7159C297.489 22.0507 297.714 22.2926 298.006 22.4418C298.301 22.5942 298.652 22.6705 299.06 22.6705C299.467 22.6705 299.824 22.5942 300.129 22.4418C300.433 22.2893 300.669 22.0457 300.835 21.7109C301.004 21.3762 301.088 20.9337 301.088 20.3835V18.2159H292V16.983ZM296.574 21.7756L292 24.2812V22.8494L296.574 20.3835V21.7756ZM291.841 28.8986C291.841 28.1628 292.003 27.5281 292.328 26.9945C292.656 26.4642 293.114 26.0549 293.7 25.7665C294.29 25.4815 294.976 25.339 295.759 25.339C296.541 25.339 297.23 25.4815 297.827 25.7665C298.427 26.0549 298.894 26.4559 299.229 26.9696C299.567 27.4867 299.736 28.0899 299.736 28.7793C299.736 29.177 299.67 29.5698 299.537 29.9576C299.404 30.3453 299.189 30.6983 298.891 31.0165C298.596 31.3347 298.205 31.5882 297.717 31.7772C297.23 31.9661 296.63 32.0605 295.918 32.0605H295.42V26.1742H296.435V30.8674C296.866 30.8674 297.25 30.7812 297.588 30.6088C297.926 30.4398 298.193 30.1979 298.388 29.883C298.584 29.5714 298.682 29.2035 298.682 28.7793C298.682 28.312 298.566 27.9076 298.334 27.5662C298.105 27.2282 297.807 26.968 297.439 26.7857C297.071 26.6034 296.677 26.5123 296.256 26.5123H295.58C295.003 26.5123 294.514 26.6117 294.113 26.8105C293.715 27.0127 293.412 27.2928 293.203 27.6507C292.998 28.0087 292.895 28.4247 292.895 28.8986C292.895 29.2069 292.938 29.4853 293.024 29.7338C293.114 29.9857 293.246 30.2028 293.422 30.3851C293.601 30.5674 293.823 30.7083 294.088 30.8077L293.77 31.9412C293.385 31.8219 293.047 31.6214 292.756 31.3397C292.467 31.0579 292.242 30.7099 292.08 30.2956C291.92 29.8813 291.841 29.4157 291.841 28.8986ZM291.841 36.9476C291.841 36.2317 292.01 35.6152 292.348 35.0982C292.686 34.5811 293.152 34.1834 293.745 33.905C294.338 33.6266 295.016 33.4874 295.778 33.4874C296.554 33.4874 297.238 33.6299 297.832 33.915C298.428 34.2033 298.894 34.6043 299.229 35.1181C299.567 35.6351 299.736 36.2383 299.736 36.9277C299.736 37.4647 299.636 37.9486 299.438 38.3794C299.239 38.8103 298.96 39.1633 298.602 39.4384C298.244 39.7135 297.827 39.8842 297.349 39.9505V38.7772C297.697 38.6877 298.006 38.4888 298.274 38.1806C298.546 37.8757 298.682 37.4647 298.682 36.9476C298.682 36.4902 298.563 36.0892 298.324 35.7445C298.089 35.4031 297.755 35.1363 297.325 34.9441C296.897 34.7551 296.395 34.6607 295.818 34.6607C295.228 34.6607 294.714 34.7535 294.277 34.9391C293.839 35.128 293.5 35.3932 293.258 35.7346C293.016 36.0792 292.895 36.4836 292.895 36.9476C292.895 37.2525 292.948 37.5293 293.054 37.7779C293.16 38.0265 293.312 38.2369 293.511 38.4093C293.71 38.5816 293.949 38.7042 294.227 38.7772V39.9505C293.777 39.8842 293.371 39.7201 293.009 39.4583C292.651 39.1998 292.366 38.8567 292.154 38.4292C291.945 38.0049 291.841 37.5111 291.841 36.9476ZM292 41.6657H299.636V42.839H292V41.6657ZM300.909 42.2623C300.909 42.0336 300.987 41.8364 301.143 41.6706C301.299 41.5082 301.486 41.427 301.705 41.427C301.923 41.427 302.111 41.5082 302.266 41.6706C302.422 41.8364 302.5 42.0336 302.5 42.2623C302.5 42.4909 302.422 42.6865 302.266 42.8489C302.111 43.0146 301.923 43.0975 301.705 43.0975C301.486 43.0975 301.299 43.0146 301.143 42.8489C300.987 42.6865 300.909 42.4909 300.909 42.2623ZM289.136 44.9879H299.636V46.1214H298.423V46.2607C298.556 46.3468 298.725 46.4661 298.93 46.6186C299.139 46.7744 299.325 46.9964 299.487 47.2848C299.653 47.5765 299.736 47.9709 299.736 48.468C299.736 49.111 299.575 49.6778 299.254 50.1683C298.932 50.6589 298.476 51.0417 297.886 51.3168C297.296 51.5919 296.6 51.7294 295.798 51.7294C294.99 51.7294 294.289 51.5919 293.695 51.3168C293.105 51.0417 292.648 50.6605 292.323 50.1733C292.002 49.6861 291.841 49.1243 291.841 48.4879C291.841 47.9974 291.922 47.6046 292.085 47.3097C292.25 47.0147 292.438 46.7876 292.646 46.6286C292.858 46.4695 293.034 46.3468 293.173 46.2607V46.1612H289.136V44.9879ZM295.818 46.1413C295.241 46.1413 294.733 46.2259 294.292 46.3949C293.854 46.5639 293.511 46.8108 293.263 47.1357C293.018 47.4605 292.895 47.8582 292.895 48.3288C292.895 48.8194 293.024 49.2287 293.283 49.5568C293.545 49.8883 293.896 50.1368 294.337 50.3026C294.781 50.4716 295.275 50.5561 295.818 50.5561C296.355 50.5561 296.839 50.4732 297.27 50.3075C297.704 50.1451 298.047 49.8982 298.299 49.5668C298.554 49.2386 298.682 48.826 298.682 48.3288C298.682 47.8516 298.561 47.4505 298.319 47.1257C298.08 46.8009 297.746 46.5556 297.315 46.3899C296.887 46.2242 296.388 46.1413 295.818 46.1413ZM291.841 56.7209C291.841 55.9851 292.003 55.3504 292.328 54.8168C292.656 54.2865 293.114 53.8771 293.7 53.5888C294.29 53.3037 294.976 53.1612 295.759 53.1612C296.541 53.1612 297.23 53.3037 297.827 53.5888C298.427 53.8771 298.894 54.2782 299.229 54.7919C299.567 55.3089 299.736 55.9122 299.736 56.6016C299.736 56.9993 299.67 57.392 299.537 57.7798C299.404 58.1676 299.189 58.5206 298.891 58.8388C298.596 59.157 298.205 59.4105 297.717 59.5994C297.23 59.7884 296.63 59.8828 295.918 59.8828H295.42V53.9964H296.435V58.6896C296.866 58.6896 297.25 58.6035 297.588 58.4311C297.926 58.2621 298.193 58.0201 298.388 57.7053C298.584 57.3937 298.682 57.0258 298.682 56.6016C298.682 56.1342 298.566 55.7299 298.334 55.3885C298.105 55.0504 297.807 54.7902 297.439 54.608C297.071 54.4257 296.677 54.3345 296.256 54.3345H295.58C295.003 54.3345 294.514 54.4339 294.113 54.6328C293.715 54.835 293.412 55.1151 293.203 55.473C292.998 55.831 292.895 56.2469 292.895 56.7209C292.895 57.0291 292.938 57.3075 293.024 57.5561C293.114 57.808 293.246 58.0251 293.422 58.2074C293.601 58.3897 293.823 58.5305 294.088 58.63L293.77 59.7635C293.385 59.6442 293.047 59.4437 292.756 59.1619C292.467 58.8802 292.242 58.5322 292.08 58.1179C291.92 57.7036 291.841 57.2379 291.841 56.7209ZM292 66.9375H290.906V60.5739H292V66.9375ZM292 67.7789H292.895L298.463 72.1142H298.543V67.9181H299.636V73.6255H298.702L293.173 69.4096H293.094V73.7647H292V67.7789ZM292 75.3532H292.895L298.463 79.6884H298.543V75.4924H299.636V81.1998H298.702L293.173 76.9838H293.094V81.339H292V75.3532ZM292 83.1461H299.636V84.3194H292V83.1461ZM300.909 83.7427C300.909 83.514 300.987 83.3168 301.143 83.1511C301.299 82.9887 301.486 82.9075 301.705 82.9075C301.923 82.9075 302.111 82.9887 302.266 83.1511C302.422 83.3168 302.5 83.514 302.5 83.7427C302.5 83.9714 302.422 84.167 302.266 84.3294C302.111 84.4951 301.923 84.5779 301.705 84.5779C301.486 84.5779 301.299 84.4951 301.143 84.3294C300.987 84.167 300.909 83.9714 300.909 83.7427ZM294.784 87.5621L296.236 87.5423V87.7809L299.636 91.1218V92.5735L296.037 89.0138V88.9144L294.784 87.5621ZM292 86.4684H302.182V87.6417H292V86.4684ZM292 91.3207L295.778 88.3377L296.594 89.1729L292 92.8121V91.3207ZM292 94.0836H299.636V95.2172H298.443V95.3166C298.851 95.4757 299.167 95.7325 299.393 96.0872C299.621 96.4418 299.736 96.8677 299.736 97.3649C299.736 97.8687 299.621 98.2879 299.393 98.6227C299.167 98.9608 298.851 99.2243 298.443 99.4132V99.4927C298.838 99.6883 299.151 99.9816 299.383 100.373C299.618 100.764 299.736 101.233 299.736 101.78C299.736 102.462 299.522 103.021 299.094 103.455C298.67 103.889 298.009 104.106 297.111 104.106H292V102.933H297.111C297.674 102.933 298.077 102.779 298.319 102.471C298.561 102.162 298.682 101.8 298.682 101.382C298.682 100.845 298.519 100.429 298.195 100.134C297.873 99.8391 297.465 99.6916 296.972 99.6916H292V98.4984H297.23C297.664 98.4984 298.014 98.3575 298.279 98.0758C298.548 97.7941 298.682 97.4312 298.682 96.987C298.682 96.6821 298.601 96.3971 298.438 96.1319C298.276 95.8701 298.05 95.658 297.762 95.4956C297.477 95.3365 297.147 95.2569 296.773 95.2569H292V94.0836ZM295.122 111.064H299.636V112.237H292V111.064H293.293V110.985C292.905 110.806 292.575 110.527 292.303 110.149C292.035 109.771 291.901 109.294 291.901 108.718C291.901 108.24 292.005 107.816 292.214 107.445C292.426 107.074 292.744 106.782 293.168 106.57C293.596 106.358 294.134 106.252 294.784 106.252H299.636V107.425H294.864C294.307 107.425 293.863 107.581 293.531 107.892C293.2 108.207 293.034 108.608 293.034 109.095C293.034 109.387 293.109 109.684 293.258 109.985C293.407 110.29 293.636 110.545 293.944 110.751C294.252 110.96 294.645 111.064 295.122 111.064ZM294.784 115.48L296.236 115.46V115.699L299.636 119.04V120.491L296.037 116.932V116.832L294.784 115.48ZM292 114.386H302.182V115.56H292V114.386ZM292 119.239L295.778 116.256L296.594 117.091L292 120.73V119.239Z" fill="black"/>
<circle cx="160" cy="248" r="105" fill="black"/>
<circle cx="160" cy="248" r="101.667" fill="white"/>
<rect x="80.333" y="186.333" width="160" height="100" rx="10" fill="black"/>
<rect x="133.667" y="173.667" width="53.3333" height="100" rx="10" fill="black"/>
<rect x="97" y="180.333" width="16.6667" height="93.3333" rx="2" fill="black"/>
<circle cx="160" cy="236" r="37.6667" fill="white"/>
<circle cx="160" cy="236" r="17.6667" fill="black"/>
<rect x="91" y="198.333" width="28.6667" height="8" rx="2" fill="white"/>
<rect x="218.333" y="215.667" width="4" height="58" rx="2" fill="white"/>
<path d="M214.333 210.333H226.333V213.667C226.333 216.981 223.647 219.667 220.333 219.667V219.667C217.02 219.667 214.333 216.981 214.333 213.667V210.333Z" fill="white"/>
<rect x="219" y="198.333" width="2.66667" height="13.3333" rx="1.33333" fill="white"/>
<rect x="223.667" y="198.333" width="2.66667" height="13.3333" rx="1.33333" fill="white"/>
<rect x="214.333" y="198.333" width="2.66667" height="13.3333" rx="1.33333" fill="white"/>
<path d="M148.086 315.509C147.788 315.509 147.577 315.517 147.454 315.535C147.349 315.535 147.182 315.526 146.954 315.509C146.954 315.702 146.945 315.93 146.927 316.193C146.927 316.457 146.927 316.72 146.927 316.983C146.927 317.246 146.927 317.51 146.927 317.773C146.927 318.019 146.927 318.229 146.927 318.405C147.314 318.826 147.735 319.3 148.191 319.827C148.648 320.336 149.078 320.81 149.482 321.249C149.692 321.494 149.868 321.819 150.008 322.223C150.149 322.627 150.166 323.004 150.061 323.355C149.973 323.653 149.771 323.855 149.455 323.961C149.157 324.066 148.876 324.066 148.613 323.961C148.209 323.803 147.867 323.583 147.586 323.302C147.322 323.021 147.042 322.714 146.743 322.381L145.479 321.117L143.505 323.434C143.224 323.732 142.96 323.961 142.715 324.119C142.486 324.259 142.241 324.329 141.977 324.329C141.697 324.329 141.468 324.268 141.293 324.145C141.117 324.022 140.994 323.864 140.924 323.671C140.872 323.478 140.854 323.267 140.872 323.039C140.907 322.793 140.977 322.556 141.082 322.328C141.117 322.24 141.152 322.161 141.188 322.091C141.24 322.003 141.284 321.916 141.319 321.828C141.214 321.705 141.1 321.582 140.977 321.459C140.872 321.336 140.749 321.205 140.608 321.064L138.265 323.618C137.984 323.917 137.747 324.11 137.554 324.198C137.361 324.285 137.133 324.329 136.869 324.329C136.589 324.329 136.369 324.25 136.211 324.092C136.053 323.934 135.948 323.741 135.895 323.513C135.843 323.285 135.834 323.039 135.869 322.776C135.922 322.512 136.018 322.275 136.159 322.065C136.562 321.433 137.01 320.819 137.501 320.222C137.993 319.625 138.493 319.019 139.002 318.405V315.509H138.318C138.124 315.509 137.914 315.517 137.686 315.535C137.457 315.553 137.229 315.544 137.001 315.509C136.773 315.474 136.562 315.403 136.369 315.298C136.176 315.175 136.036 314.982 135.948 314.719C135.86 314.526 135.825 314.315 135.843 314.087C135.878 313.841 135.948 313.622 136.053 313.429C136.141 313.253 136.299 313.121 136.527 313.034C136.755 312.928 136.957 312.858 137.133 312.823C137.256 312.805 137.405 312.788 137.58 312.77C137.756 312.753 138.01 312.744 138.344 312.744C138.695 312.726 139.143 312.718 139.687 312.718C140.248 312.718 140.968 312.718 141.846 312.718C141.986 312.7 142.135 312.7 142.293 312.718C142.451 312.718 142.601 312.718 142.741 312.718H143.557H143.663H147.981C148.279 312.718 148.525 312.726 148.718 312.744C148.929 312.762 149.104 312.797 149.245 312.849C149.403 312.902 149.534 312.981 149.639 313.086C149.762 313.192 149.885 313.323 150.008 313.481C150.078 313.587 150.122 313.727 150.14 313.902C150.175 314.06 150.175 314.236 150.14 314.429C150.122 314.605 150.078 314.771 150.008 314.929C149.938 315.087 149.85 315.193 149.745 315.245C149.622 315.298 149.482 315.359 149.324 315.43C149.166 315.482 149.016 315.509 148.876 315.509C148.683 315.526 148.551 315.535 148.481 315.535C148.428 315.517 148.297 315.509 148.086 315.509ZM152.193 326.093C152.72 326.076 153.133 326.12 153.431 326.225C153.747 326.33 153.993 326.471 154.168 326.646C154.344 326.822 154.458 327.015 154.511 327.225C154.563 327.436 154.59 327.647 154.59 327.857V330.912C154.625 331.298 154.625 331.684 154.59 332.07C154.554 332.439 154.405 332.737 154.142 332.965C153.896 333.194 153.571 333.308 153.168 333.308C153.08 333.308 152.922 333.299 152.694 333.281C152.466 333.281 152.308 333.264 152.22 333.229C151.992 333.159 151.807 333.053 151.667 332.913C151.544 332.772 151.447 332.614 151.377 332.439C151.307 332.263 151.263 332.079 151.246 331.886C151.228 331.675 151.211 331.473 151.193 331.28C151.193 331.21 151.184 331.078 151.167 330.885C151.167 330.675 151.158 330.464 151.14 330.253C151.14 330.025 151.132 329.815 151.114 329.622C151.114 329.428 151.105 329.297 151.088 329.227C151.035 329.209 150.886 329.191 150.64 329.174C150.412 329.156 149.973 329.148 149.324 329.148C148.762 329.148 148.411 329.156 148.27 329.174C148.147 329.174 148.077 329.183 148.06 329.2H138.555L138.528 329.174C138.528 329.174 138.467 329.156 138.344 329.121C138.239 329.086 138.116 329.033 137.975 328.963C137.835 328.893 137.694 328.796 137.554 328.674C137.431 328.551 137.361 328.393 137.343 328.2C137.256 327.533 137.37 327.006 137.686 326.62C137.896 326.374 138.124 326.234 138.37 326.199C138.616 326.146 138.748 326.12 138.765 326.12L152.193 326.093ZM155.063 322.328C155.063 322.328 155.055 322.39 155.037 322.512C155.02 322.635 154.984 322.776 154.932 322.934C154.879 323.092 154.8 323.258 154.695 323.434C154.59 323.592 154.449 323.724 154.274 323.829C154.028 323.969 153.782 324.04 153.536 324.04C153.238 324.04 152.948 323.943 152.667 323.75C152.474 323.609 152.325 323.425 152.22 323.197C152.079 322.934 151.983 322.644 151.93 322.328C151.895 322.012 151.869 321.687 151.851 321.354C151.851 321.02 151.86 320.696 151.878 320.38C151.895 320.046 151.904 319.73 151.904 319.432C151.921 318.677 151.93 317.931 151.93 317.194C151.93 316.439 151.93 315.693 151.93 314.956V314.613C151.913 314.42 151.904 314.218 151.904 314.008C151.921 313.78 151.957 313.569 152.009 313.376C152.079 313.113 152.237 312.832 152.483 312.533C152.624 312.358 152.817 312.235 153.062 312.165C153.326 312.077 153.607 312.051 153.905 312.086C154.432 312.173 154.783 312.402 154.958 312.77C155.063 312.998 155.107 313.279 155.09 313.613C155.09 313.946 155.081 314.148 155.063 314.218V322.328ZM143.373 315.509C143.233 315.509 143.11 315.517 143.004 315.535C142.917 315.535 142.829 315.535 142.741 315.535H142.214C142.179 316.026 142.162 316.535 142.162 317.062C142.162 317.571 142.188 318.063 142.241 318.537L143.031 319.432C143.417 318.905 143.689 318.563 143.847 318.405V315.535C143.777 315.535 143.706 315.535 143.636 315.535C143.584 315.517 143.496 315.509 143.373 315.509ZM172.621 323.408C172.499 323.425 172.218 323.434 171.779 323.434C171.358 323.434 170.901 323.434 170.41 323.434C169.918 323.416 169.453 323.408 169.014 323.408C168.575 323.408 168.286 323.408 168.145 323.408H168.119C167.803 323.408 167.487 323.408 167.171 323.408C166.873 323.39 166.583 323.364 166.302 323.329C166.021 323.276 165.767 323.197 165.539 323.092C165.31 322.986 165.126 322.828 164.986 322.618C164.828 322.39 164.714 322.1 164.643 321.749C164.591 321.398 164.547 321.064 164.512 320.748C164.494 320.415 164.485 320.125 164.485 319.879C164.503 319.634 164.512 319.502 164.512 319.484V318.905C164.512 318.712 164.512 318.493 164.512 318.247C164.512 318.001 164.521 317.729 164.538 317.431C164.538 317.115 164.538 316.808 164.538 316.509C164.556 316.193 164.564 315.912 164.564 315.667V314.824C164.564 314.771 164.564 314.675 164.564 314.534C164.564 314.394 164.573 314.245 164.591 314.087C164.608 313.911 164.635 313.745 164.67 313.587C164.705 313.411 164.758 313.271 164.828 313.165C164.986 312.92 165.144 312.744 165.302 312.639C165.477 312.516 165.697 312.428 165.96 312.375C166.048 312.358 166.179 312.349 166.355 312.349C166.53 312.331 166.697 312.314 166.855 312.296C167.048 312.279 167.25 312.27 167.461 312.27H173.411C173.798 312.27 174.201 312.305 174.623 312.375C175.061 312.428 175.448 312.56 175.781 312.77C176.044 312.928 176.229 313.13 176.334 313.376C176.439 313.622 176.51 313.885 176.545 314.166C176.58 314.447 176.589 314.736 176.571 315.035C176.553 315.316 176.545 315.579 176.545 315.825C176.545 316.105 176.536 316.386 176.518 316.667C176.518 316.93 176.527 317.203 176.545 317.483V318.932C176.527 319.019 176.518 319.116 176.518 319.221C176.536 319.326 176.545 319.432 176.545 319.537C176.51 319.765 176.501 319.994 176.518 320.222C176.536 320.432 176.545 320.661 176.545 320.906C176.545 321.099 176.527 321.31 176.492 321.538C176.474 321.749 176.422 321.968 176.334 322.196C176.264 322.407 176.158 322.6 176.018 322.776C175.895 322.951 175.728 323.074 175.518 323.144C175.061 323.337 174.579 323.434 174.07 323.434C173.578 323.416 173.095 323.408 172.621 323.408ZM180.757 326.093C181.284 326.076 181.697 326.12 181.995 326.225C182.311 326.33 182.557 326.471 182.732 326.646C182.908 326.822 183.022 327.015 183.074 327.225C183.127 327.436 183.153 327.647 183.153 327.857V330.912C183.189 331.298 183.189 331.684 183.153 332.07C183.118 332.439 182.969 332.737 182.706 332.965C182.46 333.194 182.135 333.308 181.732 333.308C181.644 333.308 181.486 333.299 181.258 333.281C181.03 333.281 180.872 333.264 180.784 333.229C180.556 333.159 180.371 333.053 180.231 332.913C180.108 332.772 180.011 332.614 179.941 332.439C179.871 332.263 179.827 332.079 179.81 331.886C179.792 331.675 179.774 331.473 179.757 331.28C179.757 331.21 179.748 331.078 179.731 330.885C179.731 330.675 179.722 330.464 179.704 330.253C179.704 330.025 179.695 329.815 179.678 329.622C179.678 329.428 179.669 329.297 179.652 329.227C179.599 329.209 179.45 329.191 179.204 329.174C178.976 329.156 178.537 329.148 177.887 329.148C177.326 329.148 176.975 329.156 176.834 329.174C176.711 329.174 176.641 329.183 176.624 329.2H167.118L167.092 329.174C167.092 329.174 167.031 329.156 166.908 329.121C166.803 329.086 166.68 329.033 166.539 328.963C166.399 328.893 166.258 328.796 166.118 328.674C165.995 328.551 165.925 328.393 165.907 328.2C165.82 327.533 165.934 327.006 166.25 326.62C166.46 326.374 166.688 326.234 166.934 326.199C167.18 326.146 167.312 326.12 167.329 326.12L180.757 326.093ZM179.889 319.484C179.379 319.449 178.923 319.423 178.519 319.405C178.116 319.37 177.8 319.177 177.571 318.826C177.466 318.651 177.414 318.431 177.414 318.168C177.414 317.905 177.431 317.676 177.466 317.483C177.519 317.29 177.615 317.132 177.756 317.009C177.896 316.869 178.142 316.755 178.493 316.667C178.563 316.65 178.695 316.641 178.888 316.641C179.081 316.623 179.283 316.606 179.494 316.588C179.722 316.571 179.932 316.562 180.126 316.562C180.319 316.544 180.45 316.535 180.52 316.535V314.271C180.503 314.078 180.494 313.885 180.494 313.692C180.512 313.499 180.547 313.306 180.599 313.113C180.635 312.972 180.67 312.841 180.705 312.718C180.74 312.595 180.819 312.463 180.942 312.323C181.082 312.147 181.275 312.024 181.521 311.954C181.784 311.884 182.065 311.866 182.364 311.901C182.925 311.989 183.285 312.209 183.443 312.56C183.548 312.77 183.61 313.034 183.627 313.35C183.663 313.648 183.68 313.832 183.68 313.902V322.486H183.654C183.654 322.504 183.645 322.565 183.627 322.67C183.61 322.776 183.575 322.907 183.522 323.065C183.469 323.206 183.39 323.355 183.285 323.513C183.18 323.671 183.039 323.803 182.864 323.908C182.618 324.048 182.372 324.119 182.127 324.119C181.828 324.119 181.539 324.022 181.258 323.829C181.047 323.688 180.898 323.513 180.81 323.302C180.705 323.109 180.635 322.916 180.599 322.723C180.564 322.53 180.538 322.337 180.52 322.144V319.484H179.889ZM169.251 315.561C169.093 315.561 168.944 315.561 168.804 315.561C168.681 315.561 168.567 315.579 168.461 315.614C168.216 315.631 168.014 315.737 167.856 315.93C167.786 316.018 167.742 316.149 167.724 316.325C167.724 316.5 167.724 316.606 167.724 316.641V317.747C167.707 317.887 167.698 318.019 167.698 318.142C167.698 318.247 167.698 318.343 167.698 318.431V318.747C167.698 318.747 167.698 318.8 167.698 318.905C167.698 319.011 167.698 319.133 167.698 319.274C167.715 319.414 167.742 319.555 167.777 319.695C167.812 319.836 167.873 319.958 167.961 320.064C168.101 320.239 168.33 320.345 168.646 320.38C168.962 320.397 169.278 320.406 169.594 320.406H169.62C170.076 320.388 170.454 320.388 170.752 320.406C171.05 320.406 171.437 320.406 171.911 320.406C172.051 320.406 172.191 320.415 172.332 320.432C172.49 320.432 172.639 320.415 172.779 320.38C172.92 320.362 173.016 320.318 173.069 320.248C173.122 320.178 173.166 320.09 173.201 319.985C173.236 319.844 173.253 319.73 173.253 319.642C173.324 319.309 173.359 318.932 173.359 318.51C173.359 318.229 173.359 317.949 173.359 317.668C173.376 317.387 173.376 317.106 173.359 316.825C173.341 316.685 173.332 316.544 173.332 316.404C173.35 316.263 173.341 316.123 173.306 315.983C173.236 315.789 173.122 315.684 172.964 315.667C172.806 315.631 172.648 315.614 172.49 315.614L169.251 315.561Z" fill="black"/>
<path d="M89.591 295.591C89.727 295.631 89.815 295.707 89.855 295.819C89.895 295.923 89.907 296.035 89.891 296.155C89.843 296.403 89.707 296.555 89.483 296.611C89.355 296.643 89.223 296.659 89.087 296.659C88.959 296.659 88.827 296.663 88.691 296.671V299.443C88.691 299.635 88.679 299.831 88.655 300.031C88.655 300.103 88.635 300.179 88.595 300.259C88.579 300.299 88.567 300.323 88.559 300.331C88.559 300.347 88.551 300.371 88.535 300.403C88.487 300.491 88.423 300.563 88.343 300.619C88.167 300.715 87.979 300.739 87.779 300.691C87.659 300.667 87.567 300.627 87.503 300.571C87.431 300.515 87.379 300.447 87.347 300.367C87.331 300.327 87.319 300.287 87.311 300.247C87.303 300.207 87.291 300.167 87.275 300.127C87.267 300.087 87.259 300.051 87.251 300.019C87.251 299.979 87.251 299.947 87.251 299.923V299.227C87.251 298.811 87.251 298.379 87.251 297.931C87.259 297.483 87.263 297.051 87.263 296.635C87.079 296.627 86.887 296.623 86.687 296.623C86.495 296.615 86.355 296.567 86.267 296.479C86.219 296.431 86.187 296.371 86.171 296.299C86.155 296.219 86.147 296.139 86.147 296.059C86.155 295.979 86.171 295.907 86.195 295.843C86.219 295.771 86.251 295.719 86.291 295.687C86.395 295.591 86.487 295.539 86.567 295.531C86.655 295.515 86.763 295.503 86.891 295.495C86.907 295.495 86.959 295.495 87.047 295.495C87.143 295.487 87.203 295.483 87.227 295.483C87.235 295.211 87.243 294.939 87.251 294.667C87.259 294.395 87.283 294.147 87.323 293.923C87.371 293.691 87.439 293.491 87.527 293.323C87.623 293.147 87.767 293.015 87.959 292.927C88.191 292.823 88.455 292.759 88.751 292.735C89.047 292.711 89.315 292.747 89.555 292.843C89.667 292.883 89.775 292.963 89.879 293.083C89.991 293.203 90.043 293.335 90.035 293.479C90.027 293.623 89.999 293.755 89.951 293.875C89.903 293.995 89.799 294.075 89.639 294.115C89.567 294.131 89.491 294.139 89.411 294.139C89.339 294.131 89.263 294.127 89.183 294.127C89.103 294.127 89.027 294.139 88.955 294.163C88.891 294.179 88.835 294.215 88.787 294.271C88.747 294.319 88.719 294.383 88.703 294.463C88.695 294.543 88.687 294.627 88.679 294.715C88.671 294.803 88.667 294.891 88.667 294.979C88.675 295.059 88.679 295.127 88.679 295.183V295.483C88.863 295.499 89.031 295.511 89.183 295.519C89.343 295.527 89.479 295.551 89.591 295.591ZM92.5223 296.119C92.5223 296.343 92.5223 296.595 92.5223 296.875C92.5303 297.155 92.5343 297.447 92.5343 297.751C92.5343 298.047 92.5343 298.343 92.5343 298.639C92.5343 298.927 92.5303 299.195 92.5223 299.443C92.5143 299.563 92.5023 299.695 92.4863 299.839C92.4703 299.975 92.4383 300.103 92.3903 300.223C92.3423 300.343 92.2663 300.443 92.1623 300.523C92.0663 300.595 91.9343 300.627 91.7663 300.619C91.5183 300.603 91.3383 300.495 91.2263 300.295C91.1223 300.095 91.0623 299.815 91.0463 299.455C91.0463 299.271 91.0423 299.059 91.0343 298.819C91.0343 298.579 91.0303 298.335 91.0223 298.087C91.0223 297.839 91.0223 297.599 91.0223 297.367C91.0223 297.127 91.0223 296.911 91.0223 296.719C91.0223 296.607 91.0183 296.471 91.0103 296.311C91.0103 296.151 91.0143 295.987 91.0223 295.819C91.0303 295.651 91.0503 295.491 91.0823 295.339C91.1143 295.179 91.1663 295.047 91.2383 294.943C91.2943 294.879 91.3743 294.831 91.4783 294.799C91.5823 294.759 91.6903 294.739 91.8023 294.739C91.9223 294.739 92.0343 294.759 92.1383 294.799C92.2503 294.839 92.3303 294.895 92.3783 294.967C92.4103 295.015 92.4343 295.083 92.4503 295.171C92.4663 295.259 92.4783 295.359 92.4863 295.471C92.5023 295.575 92.5103 295.687 92.5103 295.807C92.5183 295.919 92.5223 296.023 92.5223 296.119ZM92.0663 293.695C91.8183 293.759 91.6103 293.735 91.4423 293.623C91.2823 293.503 91.1823 293.327 91.1423 293.095C91.1103 292.927 91.1223 292.779 91.1783 292.651C91.2343 292.523 91.3183 292.427 91.4303 292.363C91.5423 292.291 91.6703 292.259 91.8143 292.267C91.9583 292.275 92.1023 292.331 92.2463 292.435C92.3823 292.531 92.4783 292.643 92.5343 292.771C92.5983 292.899 92.6183 293.023 92.5943 293.143C92.5783 293.263 92.5263 293.375 92.4383 293.479C92.3503 293.575 92.2263 293.647 92.0663 293.695ZM93.7176 296.383C93.7176 296.199 93.7136 296.003 93.7056 295.795C93.7056 295.587 93.7416 295.399 93.8136 295.231C93.8776 295.079 93.9816 294.971 94.1256 294.907C94.2776 294.835 94.4256 294.819 94.5696 294.859C94.7136 294.883 94.8256 294.927 94.9056 294.991C94.9856 295.055 95.0416 295.131 95.0736 295.219C95.1136 295.299 95.1376 295.395 95.1456 295.507C95.1536 295.611 95.1616 295.715 95.1696 295.819C95.2496 295.675 95.3496 295.559 95.4696 295.471C95.5896 295.383 95.7136 295.311 95.8416 295.255C95.9696 295.199 96.0896 295.159 96.2016 295.135C96.3216 295.111 96.4136 295.099 96.4776 295.099C96.7816 295.099 97.0816 295.167 97.3776 295.303C97.6816 295.431 97.9336 295.615 98.1336 295.855C98.2456 295.999 98.3296 296.151 98.3856 296.311C98.4496 296.463 98.4936 296.623 98.5176 296.791C98.5496 296.959 98.5696 297.131 98.5776 297.307C98.5856 297.475 98.5936 297.647 98.6016 297.823C98.6416 298.335 98.6416 298.843 98.6016 299.347C98.5936 299.451 98.5896 299.571 98.5896 299.707C98.5896 299.843 98.5776 299.979 98.5536 300.115C98.5376 300.243 98.5016 300.359 98.4456 300.463C98.3976 300.559 98.3136 300.619 98.1936 300.643C98.0256 300.683 97.8856 300.691 97.7736 300.667C97.6696 300.651 97.5856 300.615 97.5216 300.559C97.4576 300.503 97.4096 300.431 97.3776 300.343C97.3456 300.255 97.3176 300.155 97.2936 300.043C97.2776 299.955 97.2616 299.855 97.2456 299.743C97.2376 299.623 97.2296 299.503 97.2216 299.383C97.2216 299.263 97.2176 299.147 97.2096 299.035C97.2096 298.915 97.2096 298.807 97.2096 298.711C97.2096 298.559 97.2056 298.391 97.1976 298.207C97.1896 298.023 97.1896 297.851 97.1976 297.691C97.1976 297.315 97.0976 297.031 96.8976 296.839C96.7056 296.639 96.4416 296.555 96.1056 296.587C95.8496 296.619 95.6256 296.723 95.4336 296.899C95.2416 297.067 95.1496 297.287 95.1576 297.559C95.1576 297.663 95.1576 297.759 95.1576 297.847C95.1576 297.935 95.1536 298.023 95.1456 298.111C95.1456 298.199 95.1456 298.295 95.1456 298.399C95.1456 298.503 95.1456 298.619 95.1456 298.747C95.1456 299.011 95.1456 299.291 95.1456 299.587C95.1456 299.875 95.1096 300.111 95.0376 300.295C94.9736 300.487 94.8656 300.619 94.7136 300.691C94.5616 300.763 94.3816 300.743 94.1736 300.631C94.0856 300.583 94.0136 300.519 93.9576 300.439C93.9096 300.351 93.8696 300.259 93.8376 300.163C93.8136 300.067 93.7976 299.971 93.7896 299.875C93.7816 299.771 93.7736 299.675 93.7656 299.587C93.7416 299.323 93.7256 299.079 93.7176 298.855C93.7176 298.623 93.7176 298.375 93.7176 298.111V296.383ZM103.344 292.279C103.496 292.239 103.628 292.235 103.74 292.267C103.86 292.291 103.96 292.343 104.04 292.423C104.128 292.503 104.192 292.603 104.232 292.723C104.28 292.843 104.304 292.975 104.304 293.119C104.312 293.519 104.312 293.831 104.304 294.055C104.304 294.279 104.304 294.475 104.304 294.643V298.327C104.304 298.759 104.304 299.119 104.304 299.407C104.304 299.695 104.288 299.931 104.256 300.115C104.232 300.291 104.184 300.423 104.112 300.511C104.048 300.599 103.948 300.659 103.812 300.691C103.676 300.731 103.496 300.751 103.272 300.751C103.056 300.751 102.784 300.751 102.456 300.751C101.592 300.751 100.908 300.547 100.404 300.139C99.9081 299.731 99.6441 299.083 99.6121 298.195C99.5961 297.811 99.6441 297.459 99.7561 297.139C99.8681 296.819 100.032 296.547 100.248 296.323C100.472 296.091 100.744 295.915 101.064 295.795C101.392 295.667 101.764 295.607 102.18 295.615H102.84V293.467C102.84 293.339 102.84 293.215 102.84 293.095C102.84 292.967 102.852 292.851 102.876 292.747C102.9 292.635 102.948 292.539 103.02 292.459C103.092 292.379 103.2 292.319 103.344 292.279ZM101.256 298.939C101.424 299.171 101.728 299.299 102.168 299.323C102.256 299.331 102.34 299.335 102.42 299.335C102.5 299.327 102.572 299.315 102.636 299.299C102.708 299.291 102.776 299.279 102.84 299.263V297.043C102.56 296.995 102.304 296.967 102.072 296.959C101.848 296.943 101.624 297.023 101.4 297.199C101.28 297.295 101.188 297.419 101.124 297.571C101.06 297.715 101.024 297.871 101.016 298.039C101.008 298.199 101.024 298.359 101.064 298.519C101.104 298.679 101.168 298.819 101.256 298.939ZM113.897 295.315C113.969 295.427 114.001 295.547 113.993 295.675C113.993 295.859 113.961 296.019 113.897 296.155C113.881 296.195 113.857 296.247 113.825 296.311C113.801 296.375 113.773 296.443 113.741 296.515C113.717 296.587 113.689 296.655 113.657 296.719C113.625 296.783 113.601 296.831 113.585 296.863L113.561 296.923C113.449 297.171 113.341 297.411 113.237 297.643C113.133 297.875 113.017 298.123 112.889 298.387C112.761 298.643 112.637 298.895 112.517 299.143C112.405 299.383 112.293 299.619 112.181 299.851C112.149 299.915 112.121 299.979 112.097 300.043C112.073 300.099 112.041 300.159 112.001 300.223L111.425 301.459C111.321 301.667 111.221 301.871 111.125 302.071C111.037 302.271 110.937 302.471 110.825 302.671C110.801 302.711 110.777 302.747 110.753 302.779C110.737 302.819 110.721 302.859 110.705 302.899C110.649 302.995 110.565 303.087 110.453 303.175C110.349 303.271 110.237 303.323 110.117 303.331C109.901 303.347 109.713 303.283 109.553 303.139C109.457 303.083 109.381 303.003 109.325 302.899C109.293 302.827 109.277 302.735 109.277 302.623C109.285 302.575 109.289 302.527 109.289 302.479C109.297 302.439 109.305 302.399 109.313 302.359C109.329 302.319 109.341 302.279 109.349 302.239C109.357 302.199 109.369 302.167 109.385 302.143C109.409 302.079 109.429 302.047 109.445 302.047L110.321 300.151C110.281 300.063 110.241 299.975 110.201 299.887C110.161 299.791 110.125 299.707 110.093 299.635C109.989 299.387 109.877 299.127 109.757 298.855C109.645 298.575 109.529 298.299 109.409 298.027C109.289 297.747 109.165 297.475 109.037 297.211C108.909 296.947 108.781 296.695 108.653 296.455C108.605 296.375 108.561 296.291 108.521 296.203C108.481 296.107 108.449 296.015 108.425 295.927C108.401 295.831 108.393 295.735 108.401 295.639C108.409 295.543 108.445 295.447 108.509 295.351C108.573 295.231 108.657 295.147 108.761 295.099C108.865 295.043 108.973 295.019 109.085 295.027C109.205 295.027 109.317 295.051 109.421 295.099C109.525 295.147 109.609 295.211 109.673 295.291C109.809 295.435 109.917 295.595 109.997 295.771C110.077 295.947 110.153 296.127 110.225 296.311C110.377 296.631 110.533 296.967 110.693 297.319C110.853 297.671 111.013 298.015 111.173 298.351L111.797 297.031C111.861 296.903 111.917 296.779 111.965 296.659C112.021 296.539 112.077 296.423 112.133 296.311C112.197 296.175 112.257 296.035 112.313 295.891C112.377 295.747 112.449 295.615 112.529 295.495C112.545 295.463 112.561 295.435 112.577 295.411C112.593 295.387 112.609 295.359 112.625 295.327C112.697 295.231 112.761 295.155 112.817 295.099C112.857 295.067 112.889 295.043 112.913 295.027C112.945 295.003 112.981 294.987 113.021 294.979C113.077 294.963 113.129 294.955 113.177 294.955C113.233 294.947 113.285 294.947 113.333 294.955C113.413 294.979 113.509 295.015 113.621 295.063C113.741 295.111 113.833 295.195 113.897 295.315ZM116.254 295.243C116.518 295.115 116.794 295.023 117.082 294.967C117.37 294.911 117.654 294.899 117.934 294.931C118.222 294.963 118.498 295.039 118.762 295.159C119.034 295.279 119.282 295.447 119.506 295.663C119.69 295.847 119.85 296.071 119.986 296.335C120.122 296.591 120.222 296.843 120.286 297.091C120.422 297.531 120.442 297.975 120.346 298.423C120.25 298.871 120.086 299.287 119.854 299.671C119.742 299.847 119.602 300.007 119.434 300.151C119.274 300.287 119.102 300.399 118.918 300.487C118.678 300.599 118.418 300.675 118.138 300.715C117.858 300.763 117.586 300.775 117.322 300.751C116.842 300.727 116.418 300.607 116.05 300.391C115.69 300.175 115.398 299.899 115.174 299.563C114.958 299.227 114.814 298.847 114.742 298.423C114.678 297.991 114.706 297.551 114.826 297.103C114.954 296.623 115.138 296.235 115.378 295.939C115.626 295.635 115.918 295.403 116.254 295.243ZM116.614 296.851C116.494 296.963 116.402 297.103 116.338 297.271C116.274 297.439 116.234 297.615 116.218 297.799C116.202 297.975 116.214 298.155 116.254 298.339C116.302 298.515 116.374 298.675 116.47 298.819C116.55 298.939 116.694 299.039 116.902 299.119C117.11 299.199 117.326 299.247 117.55 299.263C117.806 299.279 118.03 299.211 118.222 299.059C118.414 298.899 118.558 298.703 118.654 298.471C118.758 298.239 118.806 297.987 118.798 297.715C118.79 297.443 118.718 297.195 118.582 296.971C118.486 296.811 118.35 296.695 118.174 296.623C118.006 296.543 117.826 296.503 117.634 296.503C117.45 296.495 117.266 296.523 117.082 296.587C116.898 296.643 116.742 296.731 116.614 296.851ZM126.294 297.811C126.278 298.075 126.262 298.343 126.246 298.615C126.23 298.879 126.186 299.135 126.114 299.383C126.05 299.631 125.946 299.855 125.802 300.055C125.666 300.255 125.47 300.415 125.214 300.535C124.99 300.647 124.75 300.723 124.494 300.763C124.238 300.811 123.982 300.831 123.726 300.823C123.47 300.815 123.222 300.775 122.982 300.703C122.742 300.639 122.526 300.547 122.334 300.427C122.142 300.307 121.986 300.151 121.866 299.959C121.746 299.767 121.65 299.559 121.578 299.335C121.514 299.111 121.47 298.879 121.446 298.639C121.422 298.399 121.406 298.175 121.398 297.967C121.366 297.415 121.366 296.871 121.398 296.335C121.398 296.231 121.398 296.115 121.398 295.987C121.398 295.851 121.406 295.719 121.422 295.591C121.446 295.463 121.482 295.347 121.53 295.243C121.578 295.131 121.658 295.047 121.77 294.991C122.01 294.863 122.23 294.855 122.43 294.967C122.638 295.079 122.762 295.311 122.802 295.663C122.826 295.847 122.834 296.051 122.826 296.275C122.826 296.499 122.834 296.703 122.85 296.887C122.858 297.159 122.866 297.455 122.874 297.775C122.882 298.087 122.926 298.367 123.006 298.615C123.094 298.863 123.234 299.051 123.426 299.179C123.626 299.299 123.922 299.303 124.314 299.191C124.498 299.135 124.618 298.995 124.674 298.771C124.738 298.547 124.77 298.215 124.77 297.775C124.77 297.583 124.766 297.371 124.758 297.139C124.75 296.907 124.746 296.679 124.746 296.455C124.746 296.223 124.75 296.011 124.758 295.819C124.774 295.619 124.798 295.467 124.83 295.363C124.87 295.219 124.954 295.111 125.082 295.039C125.21 294.967 125.346 294.931 125.49 294.931C125.634 294.923 125.77 294.951 125.898 295.015C126.026 295.079 126.114 295.183 126.162 295.327C126.21 295.455 126.242 295.619 126.258 295.819C126.282 296.011 126.298 296.223 126.306 296.455C126.314 296.679 126.314 296.911 126.306 297.151C126.306 297.383 126.302 297.603 126.294 297.811ZM127.292 296.419C127.292 296.323 127.292 296.215 127.292 296.095C127.292 295.967 127.296 295.839 127.304 295.711C127.312 295.575 127.324 295.447 127.34 295.327C127.364 295.199 127.396 295.087 127.436 294.991C127.5 294.847 127.6 294.751 127.736 294.703C127.872 294.647 128.02 294.623 128.18 294.631C128.348 294.631 128.48 294.659 128.576 294.715C128.672 294.771 128.744 294.847 128.792 294.943C128.84 295.031 128.868 295.135 128.876 295.255C128.892 295.367 128.9 295.487 128.9 295.615C128.972 295.487 129.068 295.383 129.188 295.303C129.316 295.223 129.444 295.159 129.572 295.111C129.7 295.063 129.816 295.031 129.92 295.015C130.024 294.991 130.084 294.979 130.1 294.979C130.3 294.963 130.48 294.959 130.64 294.967C130.808 294.975 130.992 295.011 131.192 295.075C131.32 295.123 131.452 295.191 131.588 295.279C131.724 295.359 131.844 295.455 131.948 295.567C132.052 295.679 132.12 295.803 132.152 295.939C132.192 296.067 132.176 296.203 132.104 296.347C131.992 296.547 131.868 296.647 131.732 296.647C131.596 296.639 131.448 296.615 131.288 296.575C131.2 296.559 131.096 296.523 130.976 296.467C130.856 296.411 130.752 296.375 130.664 296.359C130.392 296.319 130.152 296.339 129.944 296.419C129.736 296.499 129.556 296.595 129.404 296.707C129.228 296.843 129.076 296.999 128.948 297.175V298.903C128.948 299.119 128.944 299.343 128.936 299.575C128.936 299.807 128.904 300.019 128.84 300.211C128.784 300.395 128.684 300.547 128.54 300.667C128.404 300.779 128.204 300.827 127.94 300.811C127.796 300.803 127.668 300.735 127.556 300.607C127.444 300.471 127.376 300.339 127.352 300.211C127.336 300.091 127.324 299.947 127.316 299.779C127.308 299.611 127.3 299.435 127.292 299.251C127.292 299.067 127.292 298.883 127.292 298.699C127.292 298.507 127.292 298.331 127.292 298.171V296.419ZM136.268 296.419C136.268 296.323 136.268 296.215 136.268 296.095C136.268 295.967 136.272 295.839 136.28 295.711C136.288 295.575 136.3 295.447 136.316 295.327C136.34 295.199 136.372 295.087 136.412 294.991C136.476 294.847 136.576 294.751 136.712 294.703C136.848 294.647 136.996 294.623 137.156 294.631C137.324 294.631 137.456 294.659 137.552 294.715C137.648 294.771 137.72 294.847 137.768 294.943C137.816 295.031 137.844 295.135 137.852 295.255C137.868 295.367 137.876 295.487 137.876 295.615C137.948 295.487 138.044 295.383 138.164 295.303C138.292 295.223 138.42 295.159 138.548 295.111C138.676 295.063 138.792 295.031 138.896 295.015C139 294.991 139.06 294.979 139.076 294.979C139.276 294.963 139.456 294.959 139.616 294.967C139.784 294.975 139.968 295.011 140.168 295.075C140.296 295.123 140.428 295.191 140.564 295.279C140.7 295.359 140.82 295.455 140.924 295.567C141.028 295.679 141.096 295.803 141.128 295.939C141.168 296.067 141.152 296.203 141.08 296.347C140.968 296.547 140.844 296.647 140.708 296.647C140.572 296.639 140.424 296.615 140.264 296.575C140.176 296.559 140.072 296.523 139.952 296.467C139.832 296.411 139.728 296.375 139.64 296.359C139.368 296.319 139.128 296.339 138.92 296.419C138.712 296.499 138.532 296.595 138.38 296.707C138.204 296.843 138.052 296.999 137.924 297.175V298.903C137.924 299.119 137.92 299.343 137.912 299.575C137.912 299.807 137.88 300.019 137.816 300.211C137.76 300.395 137.66 300.547 137.516 300.667C137.38 300.779 137.18 300.827 136.916 300.811C136.772 300.803 136.644 300.735 136.532 300.607C136.42 300.471 136.352 300.339 136.328 300.211C136.312 300.091 136.3 299.947 136.292 299.779C136.284 299.611 136.276 299.435 136.268 299.251C136.268 299.067 136.268 298.883 136.268 298.699C136.268 298.507 136.268 298.331 136.268 298.171V296.419ZM145.553 299.023C145.649 298.999 145.745 298.983 145.841 298.975C145.945 298.967 146.037 298.979 146.117 299.011C146.205 299.043 146.277 299.099 146.333 299.179C146.389 299.251 146.417 299.355 146.417 299.491C146.417 299.587 146.393 299.679 146.345 299.767C146.297 299.855 146.237 299.935 146.165 300.007C146.093 300.079 146.013 300.143 145.925 300.199C145.837 300.247 145.753 300.287 145.673 300.319C145.441 300.423 145.173 300.503 144.869 300.559C144.573 300.615 144.265 300.635 143.945 300.619C143.513 300.603 143.097 300.519 142.697 300.367C142.305 300.207 141.997 299.947 141.773 299.587C141.565 299.235 141.441 298.843 141.401 298.411C141.361 297.979 141.381 297.571 141.461 297.187C141.549 296.723 141.697 296.347 141.905 296.059C142.121 295.763 142.377 295.527 142.673 295.351C143.033 295.143 143.437 295.035 143.885 295.027C144.333 295.019 144.761 295.107 145.169 295.291C145.441 295.411 145.685 295.575 145.901 295.783C146.117 295.983 146.281 296.227 146.393 296.515C146.425 296.587 146.449 296.675 146.465 296.779C146.489 296.883 146.505 296.995 146.513 297.115C146.521 297.227 146.521 297.339 146.513 297.451C146.505 297.563 146.485 297.663 146.453 297.751C146.405 297.895 146.345 298.007 146.273 298.087C146.201 298.167 146.109 298.227 145.997 298.267C145.885 298.307 145.749 298.335 145.589 298.351C145.437 298.359 145.253 298.367 145.037 298.375C144.845 298.383 144.665 298.387 144.497 298.387C144.329 298.387 144.157 298.387 143.981 298.387C143.805 298.379 143.621 298.375 143.429 298.375C143.245 298.367 143.037 298.359 142.805 298.351C142.781 298.511 142.801 298.651 142.865 298.771C142.937 298.883 143.033 298.979 143.153 299.059C143.273 299.131 143.409 299.187 143.561 299.227C143.713 299.267 143.861 299.291 144.005 299.299C144.277 299.315 144.537 299.295 144.785 299.239C145.033 299.175 145.289 299.103 145.553 299.023ZM145.037 296.695C144.885 296.519 144.725 296.391 144.557 296.311C144.429 296.255 144.293 296.231 144.149 296.239C144.013 296.239 143.881 296.259 143.753 296.299C143.521 296.355 143.325 296.475 143.165 296.659C143.149 296.675 143.121 296.715 143.081 296.779C143.041 296.835 143.001 296.895 142.961 296.959C142.929 297.023 142.905 297.083 142.889 297.139C142.873 297.195 142.881 297.223 142.913 297.223H145.265C145.257 297.111 145.237 297.019 145.205 296.947C145.173 296.867 145.117 296.783 145.037 296.695ZM151.947 296.047C152.011 296.159 152.043 296.279 152.043 296.407C152.051 296.535 152.023 296.655 151.959 296.767C151.887 296.911 151.783 297.011 151.647 297.067C151.519 297.115 151.375 297.119 151.215 297.079C151.143 297.063 151.079 297.035 151.023 296.995C150.967 296.955 150.907 296.915 150.843 296.875C150.787 296.827 150.719 296.783 150.639 296.743C150.567 296.703 150.471 296.675 150.351 296.659C150.231 296.643 150.099 296.643 149.955 296.659C149.819 296.675 149.695 296.707 149.583 296.755C149.407 296.843 149.267 296.979 149.163 297.163C149.059 297.339 148.991 297.531 148.959 297.739C148.927 297.939 148.931 298.143 148.971 298.351C149.019 298.559 149.107 298.735 149.235 298.879C149.331 298.991 149.455 299.083 149.607 299.155C149.767 299.227 149.919 299.271 150.063 299.287C150.199 299.303 150.335 299.303 150.471 299.287C150.607 299.263 150.739 299.231 150.867 299.191C150.963 299.151 151.071 299.099 151.191 299.035C151.311 298.963 151.427 298.919 151.539 298.903C151.683 298.903 151.795 298.943 151.875 299.023C151.955 299.095 152.011 299.187 152.043 299.299C152.075 299.403 152.079 299.515 152.055 299.635C152.039 299.755 151.995 299.859 151.923 299.947C151.827 300.067 151.691 300.183 151.515 300.295C151.339 300.399 151.171 300.475 151.011 300.523C150.819 300.587 150.603 300.623 150.363 300.631C150.131 300.639 149.911 300.631 149.703 300.607C149.607 300.591 149.507 300.571 149.403 300.547C149.299 300.523 149.199 300.495 149.103 300.463C148.751 300.335 148.455 300.155 148.215 299.923C147.983 299.683 147.803 299.415 147.675 299.119C147.555 298.823 147.487 298.507 147.471 298.171C147.455 297.835 147.495 297.503 147.591 297.175C147.679 296.863 147.787 296.599 147.915 296.383C148.051 296.167 148.207 295.991 148.383 295.855C148.567 295.711 148.771 295.599 148.995 295.519C149.219 295.431 149.467 295.355 149.739 295.291C150.019 295.235 150.315 295.235 150.627 295.291C150.939 295.347 151.219 295.451 151.467 295.603C151.659 295.707 151.819 295.855 151.947 296.047ZM154.538 296.119C154.538 296.343 154.538 296.595 154.538 296.875C154.546 297.155 154.55 297.447 154.55 297.751C154.55 298.047 154.55 298.343 154.55 298.639C154.55 298.927 154.546 299.195 154.538 299.443C154.53 299.563 154.518 299.695 154.502 299.839C154.486 299.975 154.454 300.103 154.406 300.223C154.358 300.343 154.282 300.443 154.178 300.523C154.082 300.595 153.95 300.627 153.782 300.619C153.534 300.603 153.354 300.495 153.242 300.295C153.138 300.095 153.078 299.815 153.062 299.455C153.062 299.271 153.058 299.059 153.05 298.819C153.05 298.579 153.046 298.335 153.038 298.087C153.038 297.839 153.038 297.599 153.038 297.367C153.038 297.127 153.038 296.911 153.038 296.719C153.038 296.607 153.034 296.471 153.026 296.311C153.026 296.151 153.03 295.987 153.038 295.819C153.046 295.651 153.066 295.491 153.098 295.339C153.13 295.179 153.182 295.047 153.254 294.943C153.31 294.879 153.39 294.831 153.494 294.799C153.598 294.759 153.706 294.739 153.818 294.739C153.938 294.739 154.05 294.759 154.154 294.799C154.266 294.839 154.346 294.895 154.394 294.967C154.426 295.015 154.45 295.083 154.466 295.171C154.482 295.259 154.494 295.359 154.502 295.471C154.518 295.575 154.526 295.687 154.526 295.807C154.534 295.919 154.538 296.023 154.538 296.119ZM154.082 293.695C153.834 293.759 153.626 293.735 153.458 293.623C153.298 293.503 153.198 293.327 153.158 293.095C153.126 292.927 153.138 292.779 153.194 292.651C153.25 292.523 153.334 292.427 153.446 292.363C153.558 292.291 153.686 292.259 153.83 292.267C153.974 292.275 154.118 292.331 154.262 292.435C154.398 292.531 154.494 292.643 154.55 292.771C154.614 292.899 154.634 293.023 154.61 293.143C154.594 293.263 154.542 293.375 154.454 293.479C154.366 293.575 154.242 293.647 154.082 293.695ZM158.952 295.267C159.184 295.363 159.396 295.503 159.588 295.687C159.78 295.863 159.944 296.067 160.08 296.299C160.224 296.531 160.332 296.783 160.404 297.055C160.484 297.319 160.524 297.587 160.524 297.859C160.532 298.267 160.436 298.651 160.236 299.011C160.044 299.371 159.728 299.647 159.288 299.839C158.952 299.975 158.604 300.079 158.244 300.151C157.892 300.215 157.524 300.259 157.14 300.283V302.479C157.14 302.527 157.132 302.571 157.116 302.611C157.108 302.651 157.104 302.691 157.104 302.731C157.088 302.811 157.068 302.883 157.044 302.947C157.028 303.011 157.004 303.079 156.972 303.151C156.94 303.199 156.908 303.243 156.876 303.283C156.844 303.323 156.808 303.363 156.768 303.403C156.576 303.499 156.376 303.519 156.168 303.463C156.04 303.455 155.936 303.415 155.856 303.343C155.784 303.271 155.732 303.195 155.7 303.115C155.668 303.035 155.64 302.943 155.616 302.839C155.608 302.799 155.6 302.759 155.592 302.719C155.592 302.687 155.592 302.651 155.592 302.611V295.927C155.592 295.879 155.592 295.831 155.592 295.783C155.6 295.727 155.608 295.671 155.616 295.615C155.624 295.519 155.648 295.423 155.688 295.327C155.76 295.127 155.908 294.991 156.132 294.919C156.356 294.847 156.608 294.815 156.888 294.823C157.08 294.831 157.276 294.851 157.476 294.883C157.684 294.915 157.88 294.955 158.064 295.003C158.256 295.043 158.428 295.087 158.58 295.135C158.732 295.183 158.856 295.227 158.952 295.267ZM158.976 297.859C159.008 297.635 158.98 297.447 158.892 297.295C158.812 297.135 158.696 297.007 158.544 296.911C158.392 296.807 158.216 296.727 158.016 296.671C157.824 296.615 157.632 296.575 157.44 296.551C157.416 296.543 157.376 296.539 157.32 296.539C157.272 296.539 157.216 296.539 157.152 296.539C157.152 296.795 157.152 297.043 157.152 297.283C157.16 297.515 157.16 297.767 157.152 298.039V298.843C157.336 298.835 157.528 298.815 157.728 298.783C157.936 298.751 158.128 298.699 158.304 298.627C158.48 298.555 158.628 298.459 158.748 298.339C158.876 298.219 158.952 298.059 158.976 297.859ZM165.651 299.023C165.747 298.999 165.843 298.983 165.939 298.975C166.043 298.967 166.135 298.979 166.215 299.011C166.303 299.043 166.375 299.099 166.431 299.179C166.487 299.251 166.515 299.355 166.515 299.491C166.515 299.587 166.491 299.679 166.443 299.767C166.395 299.855 166.335 299.935 166.263 300.007C166.191 300.079 166.111 300.143 166.023 300.199C165.935 300.247 165.851 300.287 165.771 300.319C165.539 300.423 165.271 300.503 164.967 300.559C164.671 300.615 164.363 300.635 164.043 300.619C163.611 300.603 163.195 300.519 162.795 300.367C162.403 300.207 162.095 299.947 161.871 299.587C161.663 299.235 161.539 298.843 161.499 298.411C161.459 297.979 161.479 297.571 161.559 297.187C161.647 296.723 161.795 296.347 162.003 296.059C162.219 295.763 162.475 295.527 162.771 295.351C163.131 295.143 163.535 295.035 163.983 295.027C164.431 295.019 164.859 295.107 165.267 295.291C165.539 295.411 165.783 295.575 165.999 295.783C166.215 295.983 166.379 296.227 166.491 296.515C166.523 296.587 166.547 296.675 166.563 296.779C166.587 296.883 166.603 296.995 166.611 297.115C166.619 297.227 166.619 297.339 166.611 297.451C166.603 297.563 166.583 297.663 166.551 297.751C166.503 297.895 166.443 298.007 166.371 298.087C166.299 298.167 166.207 298.227 166.095 298.267C165.983 298.307 165.847 298.335 165.687 298.351C165.535 298.359 165.351 298.367 165.135 298.375C164.943 298.383 164.763 298.387 164.595 298.387C164.427 298.387 164.255 298.387 164.079 298.387C163.903 298.379 163.719 298.375 163.527 298.375C163.343 298.367 163.135 298.359 162.903 298.351C162.879 298.511 162.899 298.651 162.963 298.771C163.035 298.883 163.131 298.979 163.251 299.059C163.371 299.131 163.507 299.187 163.659 299.227C163.811 299.267 163.959 299.291 164.103 299.299C164.375 299.315 164.635 299.295 164.883 299.239C165.131 299.175 165.387 299.103 165.651 299.023ZM165.135 296.695C164.983 296.519 164.823 296.391 164.655 296.311C164.527 296.255 164.391 296.231 164.247 296.239C164.111 296.239 163.979 296.259 163.851 296.299C163.619 296.355 163.423 296.475 163.263 296.659C163.247 296.675 163.219 296.715 163.179 296.779C163.139 296.835 163.099 296.895 163.059 296.959C163.027 297.023 163.003 297.083 162.987 297.139C162.971 297.195 162.979 297.223 163.011 297.223H165.363C165.355 297.111 165.335 297.019 165.303 296.947C165.271 296.867 165.215 296.783 165.135 296.695ZM177.694 295.267C177.766 295.371 177.79 295.535 177.766 295.759C177.75 295.975 177.71 296.211 177.646 296.467C177.582 296.715 177.506 296.963 177.418 297.211C177.33 297.451 177.258 297.651 177.202 297.811C177.066 298.179 176.946 298.523 176.842 298.843C176.738 299.163 176.614 299.515 176.47 299.899C176.422 300.011 176.374 300.123 176.326 300.235C176.286 300.347 176.234 300.447 176.17 300.535C176.114 300.623 176.042 300.695 175.954 300.751C175.874 300.807 175.774 300.835 175.654 300.835C175.518 300.835 175.398 300.787 175.294 300.691C175.198 300.595 175.114 300.475 175.042 300.331C174.978 300.187 174.922 300.035 174.874 299.875C174.826 299.715 174.786 299.575 174.754 299.455C174.65 299.103 174.558 298.783 174.478 298.495C174.398 298.199 174.326 297.935 174.262 297.703C174.19 297.935 174.118 298.187 174.046 298.459C173.974 298.731 173.882 299.039 173.77 299.383C173.738 299.503 173.698 299.651 173.65 299.827C173.602 299.995 173.542 300.155 173.47 300.307C173.406 300.459 173.322 300.587 173.218 300.691C173.122 300.803 173.006 300.851 172.87 300.835C172.678 300.827 172.51 300.751 172.366 300.607C172.23 300.455 172.11 300.275 172.006 300.067C171.91 299.859 171.826 299.643 171.754 299.419C171.682 299.195 171.622 298.999 171.574 298.831C171.51 298.615 171.434 298.375 171.346 298.111C171.258 297.847 171.17 297.579 171.082 297.307C171.002 297.027 170.926 296.751 170.854 296.479C170.782 296.199 170.734 295.943 170.71 295.711C170.694 295.559 170.722 295.419 170.794 295.291C170.874 295.163 170.974 295.075 171.094 295.027C171.222 294.971 171.358 294.959 171.502 294.991C171.654 295.023 171.79 295.119 171.91 295.279C171.974 295.359 172.03 295.459 172.078 295.579C172.134 295.699 172.182 295.831 172.222 295.975C172.262 296.111 172.302 296.251 172.342 296.395C172.382 296.539 172.422 296.679 172.462 296.815C172.55 297.119 172.622 297.359 172.678 297.535C172.742 297.703 172.806 297.879 172.87 298.063C172.926 297.879 172.982 297.703 173.038 297.535C173.102 297.359 173.178 297.119 173.266 296.815C173.298 296.719 173.334 296.611 173.374 296.491C173.422 296.363 173.47 296.243 173.518 296.131C173.574 296.019 173.634 295.915 173.698 295.819C173.77 295.715 173.846 295.639 173.926 295.591C174.102 295.471 174.262 295.443 174.406 295.507C174.55 295.563 174.674 295.663 174.778 295.807C174.882 295.951 174.97 296.119 175.042 296.311C175.122 296.495 175.186 296.663 175.234 296.815C175.282 296.975 175.326 297.115 175.366 297.235C175.406 297.347 175.442 297.451 175.474 297.547C175.506 297.643 175.534 297.735 175.558 297.823C175.59 297.911 175.622 298.003 175.654 298.099C175.686 298.003 175.714 297.911 175.738 297.823C175.77 297.735 175.802 297.643 175.834 297.547C175.866 297.451 175.902 297.347 175.942 297.235C175.982 297.115 176.026 296.975 176.074 296.815C176.106 296.711 176.138 296.591 176.17 296.455C176.21 296.319 176.25 296.183 176.29 296.047C176.33 295.903 176.37 295.767 176.41 295.639C176.458 295.511 176.51 295.403 176.566 295.315C176.622 295.227 176.698 295.155 176.794 295.099C176.89 295.035 176.99 294.999 177.094 294.991C177.198 294.975 177.302 294.987 177.406 295.027C177.518 295.067 177.614 295.147 177.694 295.267ZM180.261 296.119C180.261 296.343 180.261 296.595 180.261 296.875C180.269 297.155 180.273 297.447 180.273 297.751C180.273 298.047 180.273 298.343 180.273 298.639C180.273 298.927 180.269 299.195 180.261 299.443C180.253 299.563 180.241 299.695 180.225 299.839C180.209 299.975 180.177 300.103 180.129 300.223C180.081 300.343 180.005 300.443 179.901 300.523C179.805 300.595 179.673 300.627 179.505 300.619C179.257 300.603 179.077 300.495 178.965 300.295C178.861 300.095 178.801 299.815 178.785 299.455C178.785 299.271 178.781 299.059 178.773 298.819C178.773 298.579 178.769 298.335 178.761 298.087C178.761 297.839 178.761 297.599 178.761 297.367C178.761 297.127 178.761 296.911 178.761 296.719C178.761 296.607 178.757 296.471 178.749 296.311C178.749 296.151 178.753 295.987 178.761 295.819C178.769 295.651 178.789 295.491 178.821 295.339C178.853 295.179 178.905 295.047 178.977 294.943C179.033 294.879 179.113 294.831 179.217 294.799C179.321 294.759 179.429 294.739 179.541 294.739C179.661 294.739 179.773 294.759 179.877 294.799C179.989 294.839 180.069 294.895 180.117 294.967C180.149 295.015 180.173 295.083 180.189 295.171C180.205 295.259 180.217 295.359 180.225 295.471C180.241 295.575 180.249 295.687 180.249 295.807C180.257 295.919 180.261 296.023 180.261 296.119ZM179.805 293.695C179.557 293.759 179.349 293.735 179.181 293.623C179.021 293.503 178.921 293.327 178.881 293.095C178.849 292.927 178.861 292.779 178.917 292.651C178.973 292.523 179.057 292.427 179.169 292.363C179.281 292.291 179.409 292.259 179.553 292.267C179.697 292.275 179.841 292.331 179.985 292.435C180.121 292.531 180.217 292.643 180.273 292.771C180.337 292.899 180.357 293.023 180.333 293.143C180.317 293.263 180.265 293.375 180.177 293.479C180.089 293.575 179.965 293.647 179.805 293.695ZM186.439 295.375C186.503 295.527 186.507 295.695 186.451 295.879C186.403 296.063 186.311 296.183 186.175 296.239C186.103 296.271 186.007 296.299 185.887 296.323C185.767 296.339 185.635 296.355 185.491 296.371C185.355 296.387 185.219 296.399 185.083 296.407C184.947 296.415 184.831 296.419 184.735 296.419C184.743 296.659 184.751 296.907 184.759 297.163C184.767 297.411 184.775 297.655 184.783 297.895C184.791 298.135 184.795 298.367 184.795 298.591C184.795 298.807 184.791 299.003 184.783 299.179C184.783 299.299 184.783 299.439 184.783 299.599C184.783 299.751 184.771 299.899 184.747 300.043C184.731 300.187 184.703 300.315 184.663 300.427C184.623 300.531 184.563 300.599 184.483 300.631C184.235 300.735 184.007 300.763 183.799 300.715C183.599 300.675 183.455 300.591 183.367 300.463C183.303 300.359 183.255 300.239 183.223 300.103C183.191 299.959 183.167 299.815 183.151 299.671C183.143 299.519 183.139 299.375 183.139 299.239C183.147 299.095 183.151 298.971 183.151 298.867C183.159 298.531 183.163 298.151 183.163 297.727C183.171 297.295 183.175 296.863 183.175 296.431H182.995C182.899 296.431 182.775 296.431 182.623 296.431C182.479 296.423 182.331 296.411 182.179 296.395C182.035 296.371 181.899 296.343 181.771 296.311C181.643 296.271 181.551 296.215 181.495 296.143C181.407 296.039 181.351 295.927 181.327 295.807C181.311 295.687 181.319 295.575 181.351 295.471C181.391 295.359 181.451 295.263 181.531 295.183C181.611 295.095 181.703 295.039 181.807 295.015C181.951 294.975 182.155 294.955 182.419 294.955C182.683 294.947 182.931 294.947 183.163 294.955C183.155 294.875 183.151 294.799 183.151 294.727C183.151 294.647 183.147 294.571 183.139 294.499C183.131 294.403 183.127 294.283 183.127 294.139C183.127 293.987 183.135 293.839 183.151 293.695C183.175 293.543 183.211 293.403 183.259 293.275C183.307 293.139 183.375 293.035 183.463 292.963C183.583 292.867 183.703 292.815 183.823 292.807C183.951 292.791 184.067 292.807 184.171 292.855C184.283 292.903 184.375 292.975 184.447 293.071C184.527 293.159 184.583 293.259 184.615 293.371C184.639 293.467 184.659 293.583 184.675 293.719C184.691 293.847 184.699 293.983 184.699 294.127C184.707 294.271 184.711 294.415 184.711 294.559C184.711 294.703 184.711 294.835 184.711 294.955H184.831C184.951 294.955 185.091 294.951 185.251 294.943C185.411 294.935 185.567 294.939 185.719 294.955C185.879 294.971 186.023 295.011 186.151 295.075C186.279 295.131 186.375 295.231 186.439 295.375ZM192.136 298.303C192.144 298.463 192.148 298.631 192.148 298.807C192.148 298.975 192.144 299.131 192.136 299.275C192.128 299.491 192.116 299.691 192.1 299.875C192.084 300.051 192.052 300.203 192.004 300.331C191.956 300.451 191.88 300.543 191.776 300.607C191.68 300.663 191.544 300.679 191.368 300.655C191.184 300.631 191.052 300.543 190.972 300.391C190.892 300.239 190.836 300.067 190.804 299.875C190.78 299.675 190.772 299.475 190.78 299.275C190.788 299.075 190.788 298.919 190.78 298.807C190.772 298.631 190.764 298.431 190.756 298.207C190.756 297.975 190.732 297.759 190.684 297.559C190.644 297.351 190.572 297.175 190.468 297.031C190.364 296.887 190.208 296.811 190 296.803C189.736 296.787 189.532 296.807 189.388 296.863C189.252 296.919 189.152 297.003 189.088 297.115C189.024 297.219 188.984 297.347 188.968 297.499C188.96 297.651 188.944 297.815 188.92 297.991L188.908 298.459V299.335C188.908 299.479 188.904 299.631 188.896 299.791C188.896 299.943 188.872 300.083 188.824 300.211C188.776 300.339 188.7 300.447 188.596 300.535C188.5 300.623 188.356 300.667 188.164 300.667C187.924 300.667 187.744 300.591 187.624 300.439C187.512 300.279 187.456 300.083 187.456 299.851V292.951C187.456 292.903 187.456 292.859 187.456 292.819C187.464 292.771 187.472 292.723 187.48 292.675C187.496 292.627 187.508 292.583 187.516 292.543C187.524 292.495 187.536 292.451 187.552 292.411C187.576 292.331 187.616 292.271 187.672 292.231C187.712 292.191 187.752 292.159 187.792 292.135C187.832 292.111 187.876 292.095 187.924 292.087C187.964 292.079 188.008 292.075 188.056 292.075C188.104 292.067 188.152 292.063 188.2 292.063C188.32 292.063 188.436 292.099 188.548 292.171C188.596 292.203 188.64 292.239 188.68 292.279C188.72 292.311 188.752 292.359 188.776 292.423C188.84 292.575 188.872 292.719 188.872 292.855C188.88 292.895 188.884 292.955 188.884 293.035C188.892 293.107 188.896 293.183 188.896 293.263C188.896 293.343 188.896 293.423 188.896 293.503C188.904 293.575 188.908 293.631 188.908 293.671V293.731C188.916 293.987 188.92 294.247 188.92 294.511C188.92 294.775 188.92 295.043 188.92 295.315V295.519C189.256 295.407 189.608 295.355 189.976 295.363C190.344 295.363 190.672 295.435 190.96 295.579C191.256 295.731 191.48 295.903 191.632 296.095C191.792 296.287 191.908 296.499 191.98 296.731C192.052 296.963 192.092 297.211 192.1 297.475C192.116 297.739 192.128 298.015 192.136 298.303ZM200.685 296.047C200.749 296.159 200.781 296.279 200.781 296.407C200.789 296.535 200.761 296.655 200.697 296.767C200.625 296.911 200.521 297.011 200.385 297.067C200.257 297.115 200.113 297.119 199.953 297.079C199.881 297.063 199.817 297.035 199.761 296.995C199.705 296.955 199.645 296.915 199.581 296.875C199.525 296.827 199.457 296.783 199.377 296.743C199.305 296.703 199.209 296.675 199.089 296.659C198.969 296.643 198.837 296.643 198.693 296.659C198.557 296.675 198.433 296.707 198.321 296.755C198.145 296.843 198.005 296.979 197.901 297.163C197.797 297.339 197.729 297.531 197.697 297.739C197.665 297.939 197.669 298.143 197.709 298.351C197.757 298.559 197.845 298.735 197.973 298.879C198.069 298.991 198.193 299.083 198.345 299.155C198.505 299.227 198.657 299.271 198.801 299.287C198.937 299.303 199.073 299.303 199.209 299.287C199.345 299.263 199.477 299.231 199.605 299.191C199.701 299.151 199.809 299.099 199.929 299.035C200.049 298.963 200.165 298.919 200.277 298.903C200.421 298.903 200.533 298.943 200.613 299.023C200.693 299.095 200.749 299.187 200.781 299.299C200.813 299.403 200.817 299.515 200.793 299.635C200.777 299.755 200.733 299.859 200.661 299.947C200.565 300.067 200.429 300.183 200.253 300.295C200.077 300.399 199.909 300.475 199.749 300.523C199.557 300.587 199.341 300.623 199.101 300.631C198.869 300.639 198.649 300.631 198.441 300.607C198.345 300.591 198.245 300.571 198.141 300.547C198.037 300.523 197.937 300.495 197.841 300.463C197.489 300.335 197.193 300.155 196.953 299.923C196.721 299.683 196.541 299.415 196.413 299.119C196.293 298.823 196.225 298.507 196.209 298.171C196.193 297.835 196.233 297.503 196.329 297.175C196.417 296.863 196.525 296.599 196.653 296.383C196.789 296.167 196.945 295.991 197.121 295.855C197.305 295.711 197.509 295.599 197.733 295.519C197.957 295.431 198.205 295.355 198.477 295.291C198.757 295.235 199.053 295.235 199.365 295.291C199.677 295.347 199.957 295.451 200.205 295.603C200.397 295.707 200.557 295.855 200.685 296.047ZM203.168 295.615C203.408 295.495 203.66 295.411 203.924 295.363C204.188 295.307 204.448 295.295 204.704 295.327C204.968 295.351 205.22 295.419 205.46 295.531C205.7 295.635 205.924 295.787 206.132 295.987C206.34 296.195 206.5 296.423 206.612 296.671C206.724 296.919 206.804 297.195 206.852 297.499C206.884 297.707 206.936 297.899 207.008 298.075C207.08 298.251 207.156 298.427 207.236 298.603C207.324 298.779 207.404 298.955 207.476 299.131C207.556 299.307 207.62 299.491 207.668 299.683C207.708 299.867 207.692 300.047 207.62 300.223C207.556 300.391 207.42 300.495 207.212 300.535C207.092 300.559 206.976 300.551 206.864 300.511C206.76 300.463 206.664 300.399 206.576 300.319C206.488 300.231 206.408 300.139 206.336 300.043C206.272 299.939 206.212 299.843 206.156 299.755C205.972 299.995 205.772 300.183 205.556 300.319C205.34 300.447 205.08 300.531 204.776 300.571C204.52 300.603 204.276 300.611 204.044 300.595C203.812 300.579 203.564 300.535 203.3 300.463C202.956 300.375 202.672 300.223 202.448 300.007C202.232 299.783 202.064 299.527 201.944 299.239C201.832 298.943 201.772 298.627 201.764 298.291C201.756 297.955 201.796 297.623 201.884 297.295C201.996 296.863 202.164 296.511 202.388 296.239C202.612 295.967 202.872 295.759 203.168 295.615ZM203.468 297.019C203.356 297.131 203.268 297.263 203.204 297.415C203.14 297.567 203.1 297.727 203.084 297.895C203.076 298.063 203.092 298.231 203.132 298.399C203.172 298.567 203.236 298.715 203.324 298.843C203.404 298.955 203.54 299.051 203.732 299.131C203.924 299.203 204.124 299.247 204.332 299.263C204.572 299.279 204.78 299.215 204.956 299.071C205.14 298.927 205.276 298.747 205.364 298.531C205.46 298.307 205.504 298.071 205.496 297.823C205.488 297.567 205.42 297.335 205.292 297.127C205.196 296.975 205.068 296.863 204.908 296.791C204.756 296.719 204.592 296.683 204.416 296.683C204.24 296.675 204.064 296.703 203.888 296.767C203.72 296.823 203.58 296.907 203.468 297.019ZM215.171 297.871C215.187 298.127 215.195 298.371 215.195 298.603C215.195 298.827 215.187 299.067 215.171 299.323C215.171 299.419 215.171 299.527 215.171 299.647C215.171 299.767 215.163 299.883 215.147 299.995C215.131 300.107 215.103 300.211 215.063 300.307C215.023 300.403 214.963 300.479 214.883 300.535C214.787 300.599 214.679 300.643 214.559 300.667C214.439 300.683 214.327 300.675 214.223 300.643C214.119 300.611 214.027 300.551 213.947 300.463C213.875 300.375 213.835 300.251 213.827 300.091C213.803 299.723 213.791 299.355 213.791 298.987C213.791 298.803 213.787 298.627 213.779 298.459C213.779 298.291 213.783 298.055 213.791 297.751C213.791 297.599 213.779 297.427 213.755 297.235C213.731 297.035 213.671 296.895 213.575 296.815C213.503 296.751 213.423 296.715 213.335 296.707C213.247 296.691 213.159 296.699 213.071 296.731C212.991 296.763 212.919 296.823 212.855 296.911C212.791 296.991 212.747 297.095 212.723 297.223C212.723 297.327 212.719 297.435 212.711 297.547C212.711 297.651 212.715 297.751 212.723 297.847C212.731 298.103 212.735 298.347 212.735 298.579C212.735 298.803 212.731 299.043 212.723 299.299C212.715 299.403 212.711 299.515 212.711 299.635C212.719 299.755 212.719 299.875 212.711 299.995C212.703 300.107 212.679 300.211 212.639 300.307C212.607 300.403 212.547 300.479 212.459 300.535C212.363 300.599 212.259 300.639 212.147 300.655C212.043 300.663 211.943 300.647 211.847 300.607C211.759 300.559 211.679 300.487 211.607 300.391C211.543 300.295 211.507 300.167 211.499 300.007C211.483 299.823 211.471 299.655 211.463 299.503C211.463 299.343 211.463 299.175 211.463 298.999C211.463 298.815 211.467 298.627 211.475 298.435C211.483 298.235 211.479 298.043 211.463 297.859C211.463 297.803 211.459 297.739 211.451 297.667C211.451 297.587 211.447 297.507 211.439 297.427C211.439 297.347 211.431 297.271 211.415 297.199C211.407 297.119 211.391 297.055 211.367 297.007C211.303 296.895 211.187 296.823 211.019 296.791C210.859 296.759 210.723 296.771 210.611 296.827C210.499 296.883 210.415 296.955 210.359 297.043C210.303 297.131 210.263 297.227 210.239 297.331C210.215 297.435 210.203 297.547 210.203 297.667C210.203 297.779 210.203 297.887 210.203 297.991C210.203 298.511 210.203 298.963 210.203 299.347C210.211 299.723 210.171 300.027 210.083 300.259C210.043 300.379 209.959 300.471 209.831 300.535C209.711 300.599 209.579 300.631 209.435 300.631C209.299 300.631 209.171 300.599 209.051 300.535C208.931 300.471 208.851 300.371 208.811 300.235C208.787 300.147 208.763 300.023 208.739 299.863C208.723 299.695 208.711 299.511 208.703 299.311C208.695 299.111 208.691 298.911 208.691 298.711C208.691 298.503 208.691 298.315 208.691 298.147V296.419C208.683 296.235 208.679 296.035 208.679 295.819C208.679 295.603 208.711 295.407 208.775 295.231C208.831 295.079 208.919 294.983 209.039 294.943C209.159 294.895 209.283 294.875 209.411 294.883C209.555 294.883 209.667 294.923 209.747 295.003C209.835 295.075 209.899 295.167 209.939 295.279C209.979 295.383 210.003 295.503 210.011 295.639C210.019 295.767 210.027 295.891 210.035 296.011C210.123 295.811 210.227 295.647 210.347 295.519C210.475 295.383 210.655 295.295 210.887 295.255C211.479 295.143 211.951 295.295 212.303 295.711C212.463 295.551 212.667 295.419 212.915 295.315C213.107 295.243 213.303 295.211 213.503 295.219C213.703 295.219 213.891 295.255 214.067 295.327C214.251 295.399 214.415 295.503 214.559 295.639C214.711 295.775 214.831 295.939 214.919 296.131C215.039 296.387 215.107 296.671 215.123 296.983C215.139 297.295 215.155 297.591 215.171 297.871ZM220.307 299.023C220.403 298.999 220.499 298.983 220.595 298.975C220.699 298.967 220.791 298.979 220.871 299.011C220.959 299.043 221.031 299.099 221.087 299.179C221.143 299.251 221.171 299.355 221.171 299.491C221.171 299.587 221.147 299.679 221.099 299.767C221.051 299.855 220.991 299.935 220.919 300.007C220.847 300.079 220.767 300.143 220.679 300.199C220.591 300.247 220.507 300.287 220.427 300.319C220.195 300.423 219.927 300.503 219.623 300.559C219.327 300.615 219.019 300.635 218.699 300.619C218.267 300.603 217.851 300.519 217.451 300.367C217.059 300.207 216.751 299.947 216.527 299.587C216.319 299.235 216.195 298.843 216.155 298.411C216.115 297.979 216.135 297.571 216.215 297.187C216.303 296.723 216.451 296.347 216.659 296.059C216.875 295.763 217.131 295.527 217.427 295.351C217.787 295.143 218.191 295.035 218.639 295.027C219.087 295.019 219.515 295.107 219.923 295.291C220.195 295.411 220.439 295.575 220.655 295.783C220.871 295.983 221.035 296.227 221.147 296.515C221.179 296.587 221.203 296.675 221.219 296.779C221.243 296.883 221.259 296.995 221.267 297.115C221.275 297.227 221.275 297.339 221.267 297.451C221.259 297.563 221.239 297.663 221.207 297.751C221.159 297.895 221.099 298.007 221.027 298.087C220.955 298.167 220.863 298.227 220.751 298.267C220.639 298.307 220.503 298.335 220.343 298.351C220.191 298.359 220.007 298.367 219.791 298.375C219.599 298.383 219.419 298.387 219.251 298.387C219.083 298.387 218.911 298.387 218.735 298.387C218.559 298.379 218.375 298.375 218.183 298.375C217.999 298.367 217.791 298.359 217.559 298.351C217.535 298.511 217.555 298.651 217.619 298.771C217.691 298.883 217.787 298.979 217.907 299.059C218.027 299.131 218.163 299.187 218.315 299.227C218.467 299.267 218.615 299.291 218.759 299.299C219.031 299.315 219.291 299.295 219.539 299.239C219.787 299.175 220.043 299.103 220.307 299.023ZM219.791 296.695C219.639 296.519 219.479 296.391 219.311 296.311C219.183 296.255 219.047 296.231 218.903 296.239C218.767 296.239 218.635 296.259 218.507 296.299C218.275 296.355 218.079 296.475 217.919 296.659C217.903 296.675 217.875 296.715 217.835 296.779C217.795 296.835 217.755 296.895 217.715 296.959C217.683 297.023 217.659 297.083 217.643 297.139C217.627 297.195 217.635 297.223 217.667 297.223H220.019C220.011 297.111 219.991 297.019 219.959 296.947C219.927 296.867 219.871 296.783 219.791 296.695ZM222.249 296.419C222.249 296.323 222.249 296.215 222.249 296.095C222.249 295.967 222.253 295.839 222.261 295.711C222.269 295.575 222.281 295.447 222.297 295.327C222.321 295.199 222.353 295.087 222.393 294.991C222.457 294.847 222.557 294.751 222.693 294.703C222.829 294.647 222.977 294.623 223.137 294.631C223.305 294.631 223.437 294.659 223.533 294.715C223.629 294.771 223.701 294.847 223.749 294.943C223.797 295.031 223.825 295.135 223.833 295.255C223.849 295.367 223.857 295.487 223.857 295.615C223.929 295.487 224.025 295.383 224.145 295.303C224.273 295.223 224.401 295.159 224.529 295.111C224.657 295.063 224.773 295.031 224.877 295.015C224.981 294.991 225.041 294.979 225.057 294.979C225.257 294.963 225.437 294.959 225.597 294.967C225.765 294.975 225.949 295.011 226.149 295.075C226.277 295.123 226.409 295.191 226.545 295.279C226.681 295.359 226.801 295.455 226.905 295.567C227.009 295.679 227.077 295.803 227.109 295.939C227.149 296.067 227.133 296.203 227.061 296.347C226.949 296.547 226.825 296.647 226.689 296.647C226.553 296.639 226.405 296.615 226.245 296.575C226.157 296.559 226.053 296.523 225.933 296.467C225.813 296.411 225.709 296.375 225.621 296.359C225.349 296.319 225.109 296.339 224.901 296.419C224.693 296.499 224.513 296.595 224.361 296.707C224.185 296.843 224.033 296.999 223.905 297.175V298.903C223.905 299.119 223.901 299.343 223.893 299.575C223.893 299.807 223.861 300.019 223.797 300.211C223.741 300.395 223.641 300.547 223.497 300.667C223.361 300.779 223.161 300.827 222.897 300.811C222.753 300.803 222.625 300.735 222.513 300.607C222.401 300.471 222.333 300.339 222.309 300.211C222.293 300.091 222.281 299.947 222.273 299.779C222.265 299.611 222.257 299.435 222.249 299.251C222.249 299.067 222.249 298.883 222.249 298.699C222.249 298.507 222.249 298.331 222.249 298.171V296.419ZM228.785 295.615C229.025 295.495 229.277 295.411 229.541 295.363C229.805 295.307 230.065 295.295 230.321 295.327C230.585 295.351 230.837 295.419 231.077 295.531C231.317 295.635 231.541 295.787 231.749 295.987C231.957 296.195 232.117 296.423 232.229 296.671C232.341 296.919 232.421 297.195 232.469 297.499C232.501 297.707 232.553 297.899 232.625 298.075C232.697 298.251 232.773 298.427 232.853 298.603C232.941 298.779 233.021 298.955 233.093 299.131C233.173 299.307 233.237 299.491 233.285 299.683C233.325 299.867 233.309 300.047 233.237 300.223C233.173 300.391 233.037 300.495 232.829 300.535C232.709 300.559 232.593 300.551 232.481 300.511C232.377 300.463 232.281 300.399 232.193 300.319C232.105 300.231 232.025 300.139 231.953 300.043C231.889 299.939 231.829 299.843 231.773 299.755C231.589 299.995 231.389 300.183 231.173 300.319C230.957 300.447 230.697 300.531 230.393 300.571C230.137 300.603 229.893 300.611 229.661 300.595C229.429 300.579 229.181 300.535 228.917 300.463C228.573 300.375 228.289 300.223 228.065 300.007C227.849 299.783 227.681 299.527 227.561 299.239C227.449 298.943 227.389 298.627 227.381 298.291C227.373 297.955 227.413 297.623 227.501 297.295C227.613 296.863 227.781 296.511 228.005 296.239C228.229 295.967 228.489 295.759 228.785 295.615ZM229.085 297.019C228.973 297.131 228.885 297.263 228.821 297.415C228.757 297.567 228.717 297.727 228.701 297.895C228.693 298.063 228.709 298.231 228.749 298.399C228.789 298.567 228.853 298.715 228.941 298.843C229.021 298.955 229.157 299.051 229.349 299.131C229.541 299.203 229.741 299.247 229.949 299.263C230.189 299.279 230.397 299.215 230.573 299.071C230.757 298.927 230.893 298.747 230.981 298.531C231.077 298.307 231.121 298.071 231.113 297.823C231.105 297.567 231.037 297.335 230.909 297.127C230.813 296.975 230.685 296.863 230.525 296.791C230.373 296.719 230.209 296.683 230.033 296.683C229.857 296.675 229.681 296.703 229.505 296.767C229.337 296.823 229.197 296.907 229.085 297.019Z" fill="black"/>
<rect x="283" y="17" width="3" height="100" fill="black"/>
<rect x="33" y="383" width="3" height="100" fill="black"/>
</svg>
