<svg width="320" height="500" viewBox="0 0 320 500" fill="none" xmlns="http://www.w3.org/2000/svg">
<rect width="320" height="500" rx="4" fill="white"/>
<path d="M42.374 64.436V77.092H43.48V64.436H42.374ZM40.372 69.532V70.512H42.808V69.532H40.372ZM39.616 64.702V76.462H40.708V64.702H39.616ZM35.304 66.396V67.852C35.304 70.428 34.38 72.584 32.56 73.592L33.274 74.488C35.22 73.326 36.214 70.89 36.214 67.852V66.396H35.304ZM35.514 66.396V67.852C35.514 70.638 36.522 72.976 38.454 74.04L39.14 73.144C37.362 72.234 36.424 70.176 36.424 67.852V66.396H35.514ZM32.854 65.92V66.886H38.734V65.92H32.854ZM48.7709 71.856V74.964H49.9189V71.856H48.7709ZM52.8169 71.828V74.95H53.9509V71.828H52.8169ZM45.5789 74.572V75.538H57.0449V74.572H45.5789ZM46.9649 65.374V66.312H54.4829V68.272H47.0069V71.744H48.1549V69.196H55.6309V65.374H46.9649ZM47.0069 71.226V72.178H55.9249V71.226H47.0069ZM58.4438 70.316V71.198H69.9238V70.316H58.4438ZM59.8018 72.22V73.046H67.3478V74.124H59.8438V76.406H60.9918V74.922H68.4818V72.22H59.8018ZM59.8438 76.098V76.938H68.8878V76.098H59.8438ZM59.8998 64.8V65.626H67.3058V66.648H59.9278V68.804H61.0758V67.432H68.4398V64.8H59.8998ZM59.9278 68.524V69.364H68.6778V68.524H59.9278ZM83.8282 64.436V77.092H85.0042V64.436H83.8282ZM84.7242 69.406V70.4H87.0762V69.406H84.7242ZM75.7642 65.5V74.054H81.6722V65.5H80.5242V68.846H76.9122V65.5H75.7642ZM76.9122 69.77H80.5242V73.102H76.9122V69.77ZM96.8051 64.436V72.22H97.9671V64.436H96.8051ZM97.6451 67.698V68.678H99.8431V67.698H97.6451ZM93.9491 72.528C91.3591 72.528 89.7911 73.368 89.7911 74.81C89.7911 76.252 91.3591 77.064 93.9491 77.064C96.5391 77.064 98.1071 76.252 98.1071 74.81C98.1071 73.368 96.5391 72.528 93.9491 72.528ZM93.9491 73.438C95.8391 73.438 96.9731 73.942 96.9731 74.81C96.9731 75.664 95.8391 76.168 93.9491 76.168C92.0731 76.168 90.9391 75.664 90.9391 74.81C90.9391 73.942 92.0731 73.438 93.9491 73.438ZM88.7271 70.428V71.366H89.6931C92.2691 71.366 93.7251 71.31 95.4611 71.002L95.3351 70.064C93.6411 70.372 92.2271 70.428 89.6931 70.428H88.7271ZM88.7271 65.318V70.876H89.8751V66.27H94.5091V65.318H88.7271ZM89.5111 67.838V68.762H94.2711V67.838H89.5111ZM106.744 65.234C104.112 65.234 102.138 66.634 102.138 68.734C102.138 70.848 104.112 72.234 106.744 72.234C109.376 72.234 111.336 70.848 111.336 68.734C111.336 66.634 109.376 65.234 106.744 65.234ZM106.744 66.186C108.746 66.186 110.23 67.208 110.23 68.734C110.23 70.246 108.746 71.282 106.744 71.282C104.742 71.282 103.258 70.246 103.258 68.734C103.258 67.208 104.742 66.186 106.744 66.186ZM101.032 74.446V75.426H112.498V74.446H101.032ZM113.911 74.572V75.538H125.377V74.572H113.911ZM119.035 71.856V74.978H120.197V71.856H119.035ZM115.297 65.374V66.312H122.815V68.272H115.339V71.744H116.487V69.21H123.963V65.374H115.297ZM115.339 71.254V72.206H124.257V71.254H115.339ZM133.527 70.946V74.74H134.675V70.946H133.527ZM138.203 70.946V74.74H139.365V70.946H138.203ZM130.727 74.516V75.482H142.193V74.516H130.727ZM136.439 65.234C133.751 65.234 131.833 66.508 131.833 68.496C131.833 70.47 133.751 71.744 136.439 71.744C139.113 71.744 141.031 70.47 141.031 68.496C141.031 66.508 139.113 65.234 136.439 65.234ZM136.439 66.158C138.469 66.158 139.911 67.082 139.911 68.496C139.911 69.896 138.469 70.82 136.439 70.82C134.409 70.82 132.953 69.896 132.953 68.496C132.953 67.082 134.409 66.158 136.439 66.158ZM152.818 64.422V77.106H153.98V64.422H152.818ZM144.334 73.088V74.054H145.384C147.554 74.054 149.458 73.97 151.754 73.592L151.628 72.64C149.388 73.004 147.498 73.088 145.384 73.088H144.334ZM144.306 65.612V66.564H148.982V69.182H144.334V73.452H145.496V70.134H150.158V65.612H144.306ZM165.137 64.394V71.38H166.299V64.394H165.137ZM165.809 67.432V68.412H168.175V67.432H165.809ZM158.263 72.024V72.906H165.165V74.012H158.291V76.392H159.439V74.852H166.299V72.024H158.263ZM158.291 76.056V76.952H166.761V76.056H158.291ZM156.513 65.57V66.48H163.989V65.57H156.513ZM160.251 67.04C158.403 67.04 157.213 67.838 157.213 69.126C157.213 70.4 158.403 71.184 160.251 71.184C162.071 71.184 163.275 70.4 163.275 69.126C163.275 67.838 162.071 67.04 160.251 67.04ZM160.251 67.894C161.413 67.894 162.169 68.37 162.169 69.126C162.169 69.868 161.413 70.344 160.251 70.344C159.075 70.344 158.319 69.868 158.319 69.126C158.319 68.37 159.075 67.894 160.251 67.894ZM159.663 64.296V66.2H160.825V64.296H159.663ZM178.412 64.884V65.584C178.412 67.39 176.186 68.902 173.876 69.252L174.338 70.19C176.97 69.742 179.434 68.006 179.434 65.584V64.884H178.412ZM178.622 64.884V65.584C178.622 67.978 181.1 69.742 183.704 70.19L184.166 69.252C181.884 68.902 179.63 67.348 179.63 65.584V64.884H178.622ZM178.412 72.276V77.092H179.56V72.276H178.412ZM173.302 71.562V72.528H184.74V71.562H173.302ZM193.268 72.22V72.906C193.268 74.124 192.316 75.482 190.72 76.056L191.308 76.924C193.128 76.224 194.164 74.558 194.164 72.906V72.22H193.268ZM193.52 72.22V72.906C193.52 74.586 194.346 76.322 196.166 77.036L196.656 76.154C195.144 75.538 194.388 74.18 194.388 72.906V72.22H193.52ZM197.944 72.22V72.906C197.944 73.998 197.174 75.468 195.676 76.154L196.166 77.036C197.972 76.266 198.812 74.39 198.812 72.906V72.22H197.944ZM198.182 72.22V72.906C198.182 74.656 199.19 76.252 201.038 76.924L201.626 76.056C200.016 75.51 199.078 74.208 199.078 72.906V72.22H198.182ZM199.316 64.45V71.674H200.492V64.45H199.316ZM193.702 65.178C191.784 65.178 190.398 66.382 190.398 68.132C190.398 69.882 191.784 71.072 193.702 71.072C195.62 71.072 196.992 69.882 196.992 68.132C196.992 66.382 195.62 65.178 193.702 65.178ZM193.702 66.144C194.962 66.144 195.872 66.956 195.872 68.132C195.872 69.308 194.962 70.106 193.702 70.106C192.442 70.106 191.532 69.308 191.532 68.132C191.532 66.956 192.442 66.144 193.702 66.144ZM204.537 68.23V69.182H213.133V68.23H204.537ZM202.983 70.876V71.828H214.463V70.876H202.983ZM204.537 64.898V68.706H205.685V64.898H204.537ZM204.453 75.832V76.784H213.203V75.832H204.453ZM204.453 73.088V76.084H205.601V73.088H204.453ZM220.219 73.018V73.984H221.059C222.655 73.984 224.083 73.928 225.861 73.62L225.763 72.668C224.027 72.962 222.599 73.018 221.059 73.018H220.219ZM220.191 65.822V66.774H223.593V69.294H220.219V73.41H221.353V70.232H224.713V65.822H220.191ZM229.431 64.436V77.092H230.551V64.436H229.431ZM225.315 68.972V69.938H227.359V68.972H225.315ZM226.883 64.744V76.434H227.961V64.744H226.883ZM236.024 65.528V67.796C236.024 70.19 234.498 72.612 232.622 73.508L233.336 74.46C235.408 73.41 236.976 70.708 236.976 67.796V65.528H236.024ZM236.22 65.528V67.796C236.22 70.61 237.802 73.214 239.86 74.222L240.56 73.298C238.684 72.43 237.172 70.106 237.172 67.796V65.528H236.22ZM241.876 64.422V77.106H243.038V64.422H241.876ZM254.783 64.436V77.092H255.945V64.436H254.783ZM245.879 65.794V66.746H253.047V65.794H245.879ZM245.683 73.97C247.993 73.956 251.031 73.914 253.761 73.48L253.691 72.626C251.003 72.948 247.895 72.976 245.543 72.976L245.683 73.97ZM247.279 66.508V73.242H248.399V66.508H247.279ZM250.513 66.508V73.242H251.647V66.508H250.513ZM272.006 64.436V77.092H273.126V64.436H272.006ZM267.4 68.972V69.938H269.822V68.972H267.4ZM269.472 64.73V76.448H270.564V64.73H269.472ZM264.964 66.396V68.006C264.964 70.33 263.984 72.64 262.22 73.704L262.934 74.572C264.796 73.396 265.86 70.778 265.86 68.006V66.396H264.964ZM265.202 66.396V68.006C265.202 70.652 266.224 73.144 268.072 74.264L268.786 73.41C267.05 72.402 266.098 70.204 266.098 68.006V66.396H265.202ZM262.57 65.906V66.872H268.352V65.906H262.57ZM280.936 72.416C278.234 72.416 276.526 73.298 276.526 74.754C276.526 76.196 278.234 77.064 280.936 77.064C283.624 77.064 285.346 76.196 285.346 74.754C285.346 73.298 283.624 72.416 280.936 72.416ZM280.936 73.326C282.924 73.326 284.184 73.872 284.184 74.754C284.184 75.622 282.924 76.168 280.936 76.168C278.948 76.168 277.674 75.622 277.674 74.754C277.674 73.872 278.948 73.326 280.936 73.326ZM276.624 65.066V66.018H284.772V65.066H276.624ZM275.266 70.33V71.268H286.69V70.33H275.266ZM279.956 67.894V70.596H281.104V67.894H279.956ZM284.1 65.066V66.144C284.1 67.138 284.1 68.062 283.75 69.364L284.898 69.504C285.234 68.188 285.234 67.166 285.234 66.144V65.066H284.1Z" fill="black"/>
<path d="M33.6619 55V52.2621L44.5497 36.9851H33.6406V33.1818H50.3452V35.9197L39.4467 51.1967H50.3665V55H33.6619ZM53.6717 55V52.2621L64.5595 36.9851H53.6504V33.1818H70.3549V35.9197L59.4565 51.1967H70.3762V55H53.6717ZM78.5288 33.1818V55H73.9158V33.1818H78.5288ZM82.324 55V33.1818H86.937V42.8018H87.2246L95.0762 33.1818H100.605L92.5087 42.951L100.701 55H95.1827L89.2061 46.0298L86.937 48.7997V55H82.324ZM103.008 33.1818H108.697L114.705 47.8409H114.961L120.969 33.1818H126.658V55H122.184V40.799H122.003L116.356 54.8935H113.309L107.663 40.7457H107.482V55H103.008V33.1818ZM143.935 33.1818H148.548V47.3509C148.548 48.9418 148.168 50.3338 147.408 51.527C146.656 52.7202 145.601 53.6506 144.244 54.3182C142.888 54.9787 141.308 55.3089 139.504 55.3089C137.692 55.3089 136.109 54.9787 134.752 54.3182C133.396 53.6506 132.341 52.7202 131.588 51.527C130.835 50.3338 130.459 48.9418 130.459 47.3509V33.1818H135.072V46.9567C135.072 47.7876 135.253 48.5263 135.615 49.1726C135.984 49.8189 136.503 50.3267 137.17 50.696C137.838 51.0653 138.616 51.25 139.504 51.25C140.398 51.25 141.176 51.0653 141.837 50.696C142.504 50.3267 143.019 49.8189 143.381 49.1726C143.751 48.5263 143.935 47.7876 143.935 46.9567V33.1818ZM152.344 55V33.1818H156.956V42.8018H157.244L165.096 33.1818H170.625L162.528 42.951L170.721 55H165.202L159.226 46.0298L156.956 48.7997V55H152.344Z" fill="black"/>
<path d="M49.3588 391.032V392.136C49.3588 394.104 47.8708 395.896 45.6948 396.6L46.3668 397.656C48.7988 396.824 50.4628 394.68 50.4628 392.136V391.032H49.3588ZM49.6148 391.032V392.136C49.6148 394.584 51.3108 396.616 53.7108 397.4L54.3668 396.36C52.2388 395.688 50.7188 394.008 50.7188 392.136V391.032H49.6148ZM46.0628 390.728V391.8H53.9828V390.728H46.0628ZM56.0308 389.784V397.608H57.3748V389.784H56.0308ZM48.0468 398.328V404.056H57.3748V398.328H56.0628V400.04H49.3588V398.328H48.0468ZM49.3588 401.112H56.0628V402.968H49.3588V401.112ZM66.0935 395.4V396.504H68.8295V395.4H66.0935ZM71.2455 389.784V404.248H72.5255V389.784H71.2455ZM68.3815 390.088V403.528H69.6455V390.088H68.3815ZM63.4855 390.984C61.6135 390.984 60.4135 392.92 60.4135 396.024C60.4135 399.128 61.6135 401.064 63.4855 401.064C65.3575 401.064 66.5735 399.128 66.5735 396.024C66.5735 392.92 65.3575 390.984 63.4855 390.984ZM63.4855 392.216C64.6375 392.216 65.3575 393.688 65.3575 396.024C65.3575 398.36 64.6375 399.832 63.4855 399.832C62.3495 399.832 61.6295 398.36 61.6295 396.024C61.6295 393.688 62.3495 392.216 63.4855 392.216ZM83.0563 398.68V399.464C83.0563 400.856 81.9683 402.408 80.1443 403.064L80.8163 404.056C82.8963 403.256 84.0803 401.352 84.0803 399.464V398.68H83.0563ZM83.3443 398.68V399.464C83.3443 401.384 84.2883 403.368 86.3683 404.184L86.9283 403.176C85.2003 402.472 84.3363 400.92 84.3363 399.464V398.68H83.3443ZM88.4003 398.68V399.464C88.4003 400.712 87.5203 402.392 85.8083 403.176L86.3683 404.184C88.4323 403.304 89.3923 401.16 89.3923 399.464V398.68H88.4003ZM88.6723 398.68V399.464C88.6723 401.464 89.8243 403.288 91.9363 404.056L92.6083 403.064C90.7683 402.44 89.6963 400.952 89.6963 399.464V398.68H88.6723ZM89.9683 389.8V398.056H91.3123V389.8H89.9683ZM83.5523 390.632C81.3603 390.632 79.7763 392.008 79.7763 394.008C79.7763 396.008 81.3603 397.368 83.5523 397.368C85.7443 397.368 87.3123 396.008 87.3123 394.008C87.3123 392.008 85.7443 390.632 83.5523 390.632ZM83.5523 391.736C84.9923 391.736 86.0323 392.664 86.0323 394.008C86.0323 395.352 84.9923 396.264 83.5523 396.264C82.1123 396.264 81.0723 395.352 81.0723 394.008C81.0723 392.664 82.1123 391.736 83.5523 391.736ZM95.935 394.12V395.208H105.759V394.12H95.935ZM94.159 397.144V398.232H107.279V397.144H94.159ZM95.935 390.312V394.664H97.247V390.312H95.935ZM95.839 402.808V403.896H105.839V402.808H95.839ZM95.839 399.672V403.096H97.151V399.672H95.839ZM124.45 389.784V404.248H125.714V389.784H124.45ZM122.162 395.608V396.728H124.946V395.608H122.162ZM121.298 390.088V403.528H122.546V390.088H121.298ZM116.37 392.024V393.688C116.37 396.632 115.314 399.096 113.234 400.248L114.05 401.272C116.274 399.944 117.41 397.16 117.41 393.688V392.024H116.37ZM116.61 392.024V393.688C116.61 396.872 117.762 399.544 119.97 400.76L120.754 399.736C118.722 398.696 117.65 396.344 117.65 393.688V392.024H116.61ZM113.57 391.48V392.584H120.29V391.48H113.57ZM131.761 398.264V401.816H133.073V398.264H131.761ZM136.385 398.232V401.8H137.681V398.232H136.385ZM128.113 401.368V402.472H141.217V401.368H128.113ZM129.697 390.856V391.928H138.289V394.168H129.745V398.136H131.057V395.224H139.601V390.856H129.697ZM129.745 397.544V398.632H139.937V397.544H129.745ZM142.815 396.504V397.512H155.935V396.504H142.815ZM144.367 398.68V399.624H152.991V400.856H144.415V403.464H145.727V401.768H154.287V398.68H144.367ZM144.415 403.112V404.072H154.751V403.112H144.415ZM144.479 390.2V391.144H152.943V392.312H144.511V394.776H145.823V393.208H154.239V390.2H144.479ZM144.511 394.456V395.416H154.511V394.456H144.511ZM172.338 389.784V397.416H173.65V389.784H172.338ZM172.722 392.936V394.04H175.426V392.936H172.722ZM162.418 390.472V396.664H166.306V390.472H165.17V392.472H163.554V390.472H162.418ZM163.554 393.512H165.17V395.592H163.554V393.512ZM167.186 390.472V396.664H171.058V390.472H169.938V392.472H168.322V390.472H167.186ZM168.322 393.512H169.938V395.592H168.322V393.512ZM164.194 398.056V399.112H172.338V400.488H164.242V403.592H165.538V401.48H173.65V398.056H164.194ZM164.242 403.032V404.088H174.178V403.032H164.242ZM187.297 389.768V404.264H188.625V389.768H187.297ZM177.601 399.672V400.776H178.801C181.281 400.776 183.457 400.68 186.081 400.248L185.937 399.16C183.377 399.576 181.217 399.672 178.801 399.672H177.601ZM177.569 391.128V392.216H182.913V395.208H177.601V400.088H178.929V396.296H184.257V391.128H177.569ZM206.564 389.768V404.264H207.876V389.768H206.564ZM203.444 395.576V396.68H206.948V395.576H203.444ZM199.668 393.224V394.456C199.668 396.952 198.132 399.416 196.004 400.44L196.756 401.464C199.044 400.328 200.724 397.512 200.724 394.456V393.224H199.668ZM199.924 393.224V394.456C199.924 397.416 201.62 400.12 203.94 401.192L204.676 400.168C202.548 399.192 200.964 396.84 200.964 394.456V393.224H199.924ZM196.404 392.296V393.368H204.18V392.296H196.404ZM199.652 390.04V392.888H200.98V390.04H199.652ZM221.234 389.768V404.264H222.562V389.768H221.234ZM211.538 399.672V400.776H212.738C215.218 400.776 217.394 400.68 220.018 400.248L219.874 399.16C217.314 399.576 215.154 399.672 212.738 399.672H211.538ZM211.506 391.128V392.216H216.85V395.208H211.538V400.088H212.866V396.296H218.194V391.128H211.506ZM235.217 389.784V404.248H236.545V389.784H235.217ZM236.225 395.72V396.84H238.913V395.72H236.225ZM225.345 392.088V393.176H233.873V392.088H225.345ZM229.665 394.376C227.633 394.376 226.145 395.752 226.145 397.704C226.145 399.656 227.633 401.032 229.665 401.032C231.713 401.032 233.185 399.656 233.185 397.704C233.185 395.752 231.713 394.376 229.665 394.376ZM229.665 395.48C230.977 395.48 231.921 396.392 231.921 397.704C231.921 399 230.977 399.928 229.665 399.928C228.353 399.928 227.409 399 227.409 397.704C227.409 396.392 228.353 395.48 229.665 395.48ZM228.977 389.96V392.584H230.305V389.96H228.977ZM241.52 391.224V392.328H250.832V391.224H241.52ZM240.144 401.128V402.232H253.216V401.128H240.144ZM245.216 395.96V401.672H246.544V395.96H245.216ZM250.336 391.224V392.664C250.336 394.392 250.336 396.424 249.792 399.192L251.12 399.368C251.648 396.44 251.648 394.456 251.648 392.664V391.224H250.336ZM269.875 389.8V397.816H271.219V389.8H269.875ZM263.123 390.312V391.72C263.123 393.8 261.619 395.72 259.443 396.488L260.115 397.528C262.562 396.648 264.227 394.392 264.227 391.72V390.312H263.123ZM263.363 390.312V391.72C263.363 394.312 265.027 396.44 267.459 397.272L268.115 396.216C265.971 395.512 264.451 393.736 264.451 391.72V390.312H263.363ZM261.651 398.68V399.768H271.299V398.68H261.651ZM261.507 402.984V404.056H271.459V402.984H261.507ZM263.635 399.144V403.608H264.931V399.144H263.635ZM268.019 399.144V403.608H269.331V399.144H268.019ZM274.065 397.384V398.472H287.137V397.384H274.065ZM275.761 402.84V403.928H285.697V402.84H275.761ZM275.761 399.736V403.176H277.089V399.736H275.761ZM280.609 390.264C277.505 390.264 275.521 391.352 275.521 393.16C275.521 394.952 277.505 396.04 280.609 396.04C283.697 396.04 285.697 394.952 285.697 393.16C285.697 391.352 283.697 390.264 280.609 390.264ZM280.609 391.352C282.881 391.352 284.337 392.024 284.337 393.16C284.337 394.296 282.881 394.968 280.609 394.968C278.337 394.968 276.881 394.296 276.881 393.16C276.881 392.024 278.337 391.352 280.609 391.352ZM204.056 410.848V413.2C204.056 415.648 202.312 418.4 200.248 419.408L201.016 420.464C203.272 419.312 205.112 416.208 205.112 413.2V410.848H204.056ZM204.296 410.848V413.2C204.296 416.064 206.04 418.976 208.328 420.112L209.08 419.056C206.984 418.064 205.352 415.488 205.352 413.2V410.848H204.296ZM200.76 410.256V411.376H208.552V410.256H200.76ZM210.264 408.784V423.248H211.608V408.784H210.264ZM211.288 414.624V415.744H213.976V414.624H211.288ZM219.318 411.312V411.504C219.318 413.04 217.91 414.384 215.846 414.848L216.39 415.904C218.838 415.296 220.406 413.632 220.406 411.504V411.312H219.318ZM219.558 411.312V411.504C219.558 413.536 221.126 415.12 223.542 415.696L224.086 414.656C222.038 414.192 220.646 412.96 220.646 411.504V411.312H219.558ZM216.15 410.416V411.472H223.814V410.416H216.15ZM219.302 408.816V411.12H220.646V408.816H219.302ZM219.334 417.056V422.832H220.662V417.056H219.334ZM225.734 408.784V423.264H227.046V408.784H225.734ZM215.35 418.032C218.038 418.032 221.558 417.984 224.806 417.424L224.71 416.448C221.542 416.896 217.91 416.912 215.174 416.912L215.35 418.032ZM232.949 409.68V411.616C232.949 413.248 231.813 415.12 229.909 415.952L230.629 416.992C232.757 416.048 234.005 413.776 234.005 411.616V409.68H232.949ZM233.157 409.68V411.616C233.157 413.744 234.357 415.744 236.437 416.576L237.157 415.568C235.301 414.848 234.213 413.216 234.213 411.616V409.68H233.157ZM240.837 408.8V417.712H242.101V408.8H240.837ZM238.533 412.656V413.744H241.269V412.656H238.533ZM237.733 409.072V417.248H238.997V409.072H237.733ZM237.349 418.032C234.357 418.032 232.533 418.992 232.533 420.64C232.533 422.272 234.357 423.216 237.349 423.216C240.325 423.216 242.181 422.272 242.181 420.64C242.181 418.992 240.325 418.032 237.349 418.032ZM237.349 419.072C239.525 419.072 240.853 419.648 240.853 420.64C240.853 421.616 239.525 422.192 237.349 422.192C235.173 422.192 233.829 421.616 233.829 420.64C233.829 419.648 235.173 419.072 237.349 419.072ZM244.644 414.816V415.904H257.716V414.816H244.644ZM246.372 412.576V413.648H256.164V412.576H246.372ZM246.372 409.248V413.44H247.684V410.336H256.004V409.248H246.372ZM246.212 417.152V418.192H254.724V419.568H246.244V422.384H247.556V420.56H256.036V417.152H246.212ZM246.244 422.032V423.088H256.468V422.032H246.244ZM265.219 414.4V415.504H267.955V414.4H265.219ZM270.371 408.784V423.248H271.651V408.784H270.371ZM267.507 409.088V422.528H268.771V409.088H267.507ZM262.611 409.984C260.739 409.984 259.539 411.92 259.539 415.024C259.539 418.128 260.739 420.064 262.611 420.064C264.483 420.064 265.699 418.128 265.699 415.024C265.699 411.92 264.483 409.984 262.611 409.984ZM262.611 411.216C263.763 411.216 264.483 412.688 264.483 415.024C264.483 417.36 263.763 418.832 262.611 418.832C261.475 418.832 260.755 417.36 260.755 415.024C260.755 412.688 261.475 411.216 262.611 411.216ZM285.089 408.784V423.248H286.369V408.784H285.089ZM278.817 414.688V415.76H282.465V414.688H278.817ZM282.081 409.152V422.512H283.329V409.152H282.081ZM278.993 410.608V410.848C278.993 414.256 277.473 417.136 274.065 419.184L274.849 420.128C278.753 417.808 280.273 414.4 280.273 410.608H278.993ZM274.705 410.608V411.696H279.489V410.608H274.705Z" fill="black"/>
</svg>
