<svg width="320" height="500" viewBox="0 0 320 500" fill="none" xmlns="http://www.w3.org/2000/svg">
<rect width="320" height="500" rx="4" fill="white"/>
<path d="M42.374 87.436V100.092H43.48V87.436H42.374ZM40.372 92.532V93.512H42.808V92.532H40.372ZM39.616 87.702V99.462H40.708V87.702H39.616ZM35.304 89.396V90.852C35.304 93.428 34.38 95.584 32.56 96.592L33.274 97.488C35.22 96.326 36.214 93.89 36.214 90.852V89.396H35.304ZM35.514 89.396V90.852C35.514 93.638 36.522 95.976 38.454 97.04L39.14 96.144C37.362 95.234 36.424 93.176 36.424 90.852V89.396H35.514ZM32.854 88.92V89.886H38.734V88.92H32.854ZM48.7709 94.856V97.964H49.9189V94.856H48.7709ZM52.8169 94.828V97.95H53.9509V94.828H52.8169ZM45.5789 97.572V98.538H57.0449V97.572H45.5789ZM46.9649 88.374V89.312H54.4829V91.272H47.0069V94.744H48.1549V92.196H55.6309V88.374H46.9649ZM47.0069 94.226V95.178H55.9249V94.226H47.0069ZM58.4438 93.316V94.198H69.9238V93.316H58.4438ZM59.8018 95.22V96.046H67.3478V97.124H59.8438V99.406H60.9918V97.922H68.4818V95.22H59.8018ZM59.8438 99.098V99.938H68.8878V99.098H59.8438ZM59.8998 87.8V88.626H67.3058V89.648H59.9278V91.804H61.0758V90.432H68.4398V87.8H59.8998ZM59.9278 91.524V92.364H68.6778V91.524H59.9278ZM83.8282 87.436V100.092H85.0042V87.436H83.8282ZM84.7242 92.406V93.4H87.0762V92.406H84.7242ZM75.7642 88.5V97.054H81.6722V88.5H80.5242V91.846H76.9122V88.5H75.7642ZM76.9122 92.77H80.5242V96.102H76.9122V92.77ZM96.8051 87.436V95.22H97.9671V87.436H96.8051ZM97.6451 90.698V91.678H99.8431V90.698H97.6451ZM93.9491 95.528C91.3591 95.528 89.7911 96.368 89.7911 97.81C89.7911 99.252 91.3591 100.064 93.9491 100.064C96.5391 100.064 98.1071 99.252 98.1071 97.81C98.1071 96.368 96.5391 95.528 93.9491 95.528ZM93.9491 96.438C95.8391 96.438 96.9731 96.942 96.9731 97.81C96.9731 98.664 95.8391 99.168 93.9491 99.168C92.0731 99.168 90.9391 98.664 90.9391 97.81C90.9391 96.942 92.0731 96.438 93.9491 96.438ZM88.7271 93.428V94.366H89.6931C92.2691 94.366 93.7251 94.31 95.4611 94.002L95.3351 93.064C93.6411 93.372 92.2271 93.428 89.6931 93.428H88.7271ZM88.7271 88.318V93.876H89.8751V89.27H94.5091V88.318H88.7271ZM89.5111 90.838V91.762H94.2711V90.838H89.5111ZM106.744 88.234C104.112 88.234 102.138 89.634 102.138 91.734C102.138 93.848 104.112 95.234 106.744 95.234C109.376 95.234 111.336 93.848 111.336 91.734C111.336 89.634 109.376 88.234 106.744 88.234ZM106.744 89.186C108.746 89.186 110.23 90.208 110.23 91.734C110.23 93.246 108.746 94.282 106.744 94.282C104.742 94.282 103.258 93.246 103.258 91.734C103.258 90.208 104.742 89.186 106.744 89.186ZM101.032 97.446V98.426H112.498V97.446H101.032ZM113.911 97.572V98.538H125.377V97.572H113.911ZM119.035 94.856V97.978H120.197V94.856H119.035ZM115.297 88.374V89.312H122.815V91.272H115.339V94.744H116.487V92.21H123.963V88.374H115.297ZM115.339 94.254V95.206H124.257V94.254H115.339ZM133.527 93.946V97.74H134.675V93.946H133.527ZM138.203 93.946V97.74H139.365V93.946H138.203ZM130.727 97.516V98.482H142.193V97.516H130.727ZM136.439 88.234C133.751 88.234 131.833 89.508 131.833 91.496C131.833 93.47 133.751 94.744 136.439 94.744C139.113 94.744 141.031 93.47 141.031 91.496C141.031 89.508 139.113 88.234 136.439 88.234ZM136.439 89.158C138.469 89.158 139.911 90.082 139.911 91.496C139.911 92.896 138.469 93.82 136.439 93.82C134.409 93.82 132.953 92.896 132.953 91.496C132.953 90.082 134.409 89.158 136.439 89.158ZM152.818 87.422V100.106H153.98V87.422H152.818ZM144.334 96.088V97.054H145.384C147.554 97.054 149.458 96.97 151.754 96.592L151.628 95.64C149.388 96.004 147.498 96.088 145.384 96.088H144.334ZM144.306 88.612V89.564H148.982V92.182H144.334V96.452H145.496V93.134H150.158V88.612H144.306ZM165.137 87.394V94.38H166.299V87.394H165.137ZM165.809 90.432V91.412H168.175V90.432H165.809ZM158.263 95.024V95.906H165.165V97.012H158.291V99.392H159.439V97.852H166.299V95.024H158.263ZM158.291 99.056V99.952H166.761V99.056H158.291ZM156.513 88.57V89.48H163.989V88.57H156.513ZM160.251 90.04C158.403 90.04 157.213 90.838 157.213 92.126C157.213 93.4 158.403 94.184 160.251 94.184C162.071 94.184 163.275 93.4 163.275 92.126C163.275 90.838 162.071 90.04 160.251 90.04ZM160.251 90.894C161.413 90.894 162.169 91.37 162.169 92.126C162.169 92.868 161.413 93.344 160.251 93.344C159.075 93.344 158.319 92.868 158.319 92.126C158.319 91.37 159.075 90.894 160.251 90.894ZM159.663 87.296V89.2H160.825V87.296H159.663ZM178.412 87.884V88.584C178.412 90.39 176.186 91.902 173.876 92.252L174.338 93.19C176.97 92.742 179.434 91.006 179.434 88.584V87.884H178.412ZM178.622 87.884V88.584C178.622 90.978 181.1 92.742 183.704 93.19L184.166 92.252C181.884 91.902 179.63 90.348 179.63 88.584V87.884H178.622ZM178.412 95.276V100.092H179.56V95.276H178.412ZM173.302 94.562V95.528H184.74V94.562H173.302ZM193.268 95.22V95.906C193.268 97.124 192.316 98.482 190.72 99.056L191.308 99.924C193.128 99.224 194.164 97.558 194.164 95.906V95.22H193.268ZM193.52 95.22V95.906C193.52 97.586 194.346 99.322 196.166 100.036L196.656 99.154C195.144 98.538 194.388 97.18 194.388 95.906V95.22H193.52ZM197.944 95.22V95.906C197.944 96.998 197.174 98.468 195.676 99.154L196.166 100.036C197.972 99.266 198.812 97.39 198.812 95.906V95.22H197.944ZM198.182 95.22V95.906C198.182 97.656 199.19 99.252 201.038 99.924L201.626 99.056C200.016 98.51 199.078 97.208 199.078 95.906V95.22H198.182ZM199.316 87.45V94.674H200.492V87.45H199.316ZM193.702 88.178C191.784 88.178 190.398 89.382 190.398 91.132C190.398 92.882 191.784 94.072 193.702 94.072C195.62 94.072 196.992 92.882 196.992 91.132C196.992 89.382 195.62 88.178 193.702 88.178ZM193.702 89.144C194.962 89.144 195.872 89.956 195.872 91.132C195.872 92.308 194.962 93.106 193.702 93.106C192.442 93.106 191.532 92.308 191.532 91.132C191.532 89.956 192.442 89.144 193.702 89.144ZM204.537 91.23V92.182H213.133V91.23H204.537ZM202.983 93.876V94.828H214.463V93.876H202.983ZM204.537 87.898V91.706H205.685V87.898H204.537ZM204.453 98.832V99.784H213.203V98.832H204.453ZM204.453 96.088V99.084H205.601V96.088H204.453ZM220.219 96.018V96.984H221.059C222.655 96.984 224.083 96.928 225.861 96.62L225.763 95.668C224.027 95.962 222.599 96.018 221.059 96.018H220.219ZM220.191 88.822V89.774H223.593V92.294H220.219V96.41H221.353V93.232H224.713V88.822H220.191ZM229.431 87.436V100.092H230.551V87.436H229.431ZM225.315 91.972V92.938H227.359V91.972H225.315ZM226.883 87.744V99.434H227.961V87.744H226.883ZM236.024 88.528V90.796C236.024 93.19 234.498 95.612 232.622 96.508L233.336 97.46C235.408 96.41 236.976 93.708 236.976 90.796V88.528H236.024ZM236.22 88.528V90.796C236.22 93.61 237.802 96.214 239.86 97.222L240.56 96.298C238.684 95.43 237.172 93.106 237.172 90.796V88.528H236.22ZM241.876 87.422V100.106H243.038V87.422H241.876ZM254.783 87.436V100.092H255.945V87.436H254.783ZM245.879 88.794V89.746H253.047V88.794H245.879ZM245.683 96.97C247.993 96.956 251.031 96.914 253.761 96.48L253.691 95.626C251.003 95.948 247.895 95.976 245.543 95.976L245.683 96.97ZM247.279 89.508V96.242H248.399V89.508H247.279ZM250.513 89.508V96.242H251.647V89.508H250.513ZM272.006 87.436V100.092H273.126V87.436H272.006ZM267.4 91.972V92.938H269.822V91.972H267.4ZM269.472 87.73V99.448H270.564V87.73H269.472ZM264.964 89.396V91.006C264.964 93.33 263.984 95.64 262.22 96.704L262.934 97.572C264.796 96.396 265.86 93.778 265.86 91.006V89.396H264.964ZM265.202 89.396V91.006C265.202 93.652 266.224 96.144 268.072 97.264L268.786 96.41C267.05 95.402 266.098 93.204 266.098 91.006V89.396H265.202ZM262.57 88.906V89.872H268.352V88.906H262.57ZM280.936 95.416C278.234 95.416 276.526 96.298 276.526 97.754C276.526 99.196 278.234 100.064 280.936 100.064C283.624 100.064 285.346 99.196 285.346 97.754C285.346 96.298 283.624 95.416 280.936 95.416ZM280.936 96.326C282.924 96.326 284.184 96.872 284.184 97.754C284.184 98.622 282.924 99.168 280.936 99.168C278.948 99.168 277.674 98.622 277.674 97.754C277.674 96.872 278.948 96.326 280.936 96.326ZM276.624 88.066V89.018H284.772V88.066H276.624ZM275.266 93.33V94.268H286.69V93.33H275.266ZM279.956 90.894V93.596H281.104V90.894H279.956ZM284.1 88.066V89.144C284.1 90.138 284.1 91.062 283.75 92.364L284.898 92.504C285.234 91.188 285.234 90.166 285.234 89.144V88.066H284.1Z" fill="black"/>
<path d="M91.6619 78V75.2621L102.55 59.9851H91.6406V56.1818H108.345V58.9197L97.4467 74.1967H108.366V78H91.6619ZM111.672 78V75.2621L122.559 59.9851H111.65V56.1818H128.355V58.9197L117.456 74.1967H128.376V78H111.672ZM136.529 56.1818V78H131.916V56.1818H136.529ZM140.324 78V56.1818H144.937V65.8018H145.225L153.076 56.1818H158.605L150.509 65.951L158.701 78H153.183L147.206 69.0298L144.937 71.7997V78H140.324ZM161.008 56.1818H166.697L172.705 70.8409H172.961L178.969 56.1818H184.658V78H180.184V63.799H180.003L174.356 77.8935H171.309L165.663 63.7457H165.482V78H161.008V56.1818ZM201.935 56.1818H206.548V70.3509C206.548 71.9418 206.168 73.3338 205.408 74.527C204.656 75.7202 203.601 76.6506 202.244 77.3182C200.888 77.9787 199.308 78.3089 197.504 78.3089C195.692 78.3089 194.109 77.9787 192.752 77.3182C191.396 76.6506 190.341 75.7202 189.588 74.527C188.835 73.3338 188.459 71.9418 188.459 70.3509V56.1818H193.072V69.9567C193.072 70.7876 193.253 71.5263 193.615 72.1726C193.984 72.8189 194.503 73.3267 195.17 73.696C195.838 74.0653 196.616 74.25 197.504 74.25C198.398 74.25 199.176 74.0653 199.837 73.696C200.504 73.3267 201.019 72.8189 201.381 72.1726C201.751 71.5263 201.935 70.7876 201.935 69.9567V56.1818ZM210.344 78V56.1818H214.956V65.8018H215.244L223.096 56.1818H228.625L220.528 65.951L228.721 78H223.202L217.226 69.0298L214.956 71.7997V78H210.344Z" fill="black"/>
<path d="M73.3104 389.768V404.264H74.6544V389.768H73.3104ZM74.3344 395.48V396.6H77.0224V395.48H74.3344ZM64.1424 399.544V400.664H65.2784C67.9984 400.664 69.9024 400.584 72.1264 400.168L71.9824 399.048C69.8224 399.448 67.9504 399.544 65.2784 399.544H64.1424ZM64.1424 391.176V400.04H65.4544V392.264H70.8624V391.176H64.1424ZM78.2371 397.112V398.2H91.3571V397.112H78.2371ZM84.2211 397.8V401.128H85.5651V397.8H84.2211ZM79.9011 402.824V403.928H89.9011V402.824H79.9011ZM79.9011 399.704V403.128H81.2291V399.704H79.9011ZM84.7811 390.136C81.7091 390.136 79.7091 391.256 79.7091 393.048C79.7091 394.84 81.7091 395.96 84.7811 395.96C87.8371 395.96 89.8531 394.84 89.8531 393.048C89.8531 391.256 87.8371 390.136 84.7811 390.136ZM84.7811 391.224C86.9891 391.224 88.4451 391.928 88.4451 393.048C88.4451 394.184 86.9891 394.872 84.7811 394.872C82.5731 394.872 81.1171 394.184 81.1171 393.048C81.1171 391.928 82.5731 391.224 84.7811 391.224ZM102.86 389.784V398.248H104.188V389.784H102.86ZM103.82 393.256V394.376H106.332V393.256H103.82ZM93.5639 390.584V397.336H100.252V390.584H98.9559V392.792H94.8759V390.584H93.5639ZM94.8759 393.848H98.9559V396.264H94.8759V393.848ZM95.1479 399.032V403.736H96.4759V400.104H104.3V399.032H95.1479ZM95.1479 402.968V404.056H104.588V402.968H95.1479ZM111.531 390.888C109.403 390.888 107.899 392.856 107.899 395.928C107.899 399.016 109.403 400.984 111.531 400.984C113.659 400.984 115.163 399.016 115.163 395.928C115.163 392.856 113.659 390.888 111.531 390.888ZM111.531 392.088C112.923 392.088 113.899 393.592 113.899 395.928C113.899 398.28 112.923 399.816 111.531 399.816C110.123 399.816 109.163 398.28 109.163 395.928C109.163 393.592 110.123 392.088 111.531 392.088ZM117.467 389.784V404.248H118.811V389.784H117.467ZM118.491 395.56V396.68H121.179V395.56H118.491ZM130.749 391.272V392.424C130.749 394.472 129.277 396.36 127.101 397.128L127.789 398.168C130.221 397.304 131.853 395.08 131.853 392.424V391.272H130.749ZM131.005 391.272V392.424C131.005 394.952 132.669 397.08 135.069 397.896L135.757 396.856C133.613 396.136 132.109 394.376 132.109 392.424V391.272H131.005ZM137.421 389.784V398.536H138.765V389.784H137.421ZM129.101 399.304V400.392H137.421V404.248H138.765V399.304H129.101ZM127.453 390.792V391.864H135.373V390.792H127.453ZM149.34 393.288V394.376H152.556V393.288H149.34ZM152.188 389.784V397.64H153.516V389.784H152.188ZM144.252 398.344V404.056H153.516V398.344H152.204V400.104H145.564V398.344H144.252ZM145.564 401.176H152.204V402.968H145.564V401.176ZM145.308 390.92V392.104C145.308 394.152 143.82 396.072 141.66 396.824L142.348 397.896C144.764 397 146.396 394.728 146.396 392.104V390.92H145.308ZM145.564 390.92V392.088C145.564 394.52 147.116 396.696 149.468 397.544L150.14 396.504C148.044 395.768 146.636 393.96 146.636 392.088V390.92H145.564ZM142.076 390.648V391.72H149.804V390.648H142.076ZM171.343 389.768V404.264H172.671V389.768H171.343ZM165.039 390.888C162.911 390.888 161.375 392.856 161.375 395.928C161.375 399.016 162.911 400.984 165.039 400.984C167.183 400.984 168.719 399.016 168.719 395.928C168.719 392.856 167.183 390.888 165.039 390.888ZM165.039 392.088C166.463 392.088 167.439 393.592 167.439 395.928C167.439 398.28 166.463 399.816 165.039 399.816C163.631 399.816 162.639 398.28 162.639 395.928C162.639 393.592 163.631 392.088 165.039 392.088ZM178.782 394.68V397.416H180.094V394.68H178.782ZM184.094 394.68V397.416H185.406V394.68H184.094ZM175.55 396.936V398.008H188.622V396.936H175.55ZM182.078 399.096C178.974 399.096 177.118 400.008 177.118 401.656C177.118 403.304 178.974 404.232 182.078 404.232C185.182 404.232 187.038 403.304 187.038 401.656C187.038 400.008 185.182 399.096 182.078 399.096ZM182.078 400.12C184.35 400.12 185.694 400.68 185.694 401.656C185.694 402.648 184.35 403.192 182.078 403.192C179.822 403.192 178.462 402.648 178.462 401.656C178.462 400.68 179.822 400.12 182.078 400.12ZM182.094 390.04C178.942 390.04 177.006 391.048 177.006 392.744C177.006 394.424 178.942 395.416 182.094 395.416C185.23 395.416 187.182 394.424 187.182 392.744C187.182 391.048 185.23 390.04 182.094 390.04ZM182.094 391.08C184.398 391.08 185.822 391.688 185.822 392.744C185.822 393.784 184.398 394.392 182.094 394.392C179.79 394.392 178.366 393.784 178.366 392.744C178.366 391.688 179.79 391.08 182.094 391.08ZM190.252 392.248V393.336H197.42V392.248H190.252ZM193.836 394.296C192.044 394.296 190.732 395.656 190.732 397.608C190.732 399.544 192.044 400.904 193.836 400.904C195.644 400.904 196.956 399.544 196.956 397.608C196.956 395.656 195.644 394.296 193.836 394.296ZM193.836 395.432C194.956 395.432 195.772 396.328 195.772 397.608C195.772 398.888 194.956 399.784 193.836 399.784C192.732 399.784 191.932 398.888 191.932 397.608C191.932 396.328 192.732 395.432 193.836 395.432ZM201.244 389.784V404.248H202.524V389.784H201.244ZM198.94 395.864V396.968H201.676V395.864H198.94ZM198.156 390.104V403.544H199.404V390.104H198.156ZM193.196 390.2V392.92H194.508V390.2H193.196ZM209.503 401.304V402.408H222.607V401.304H209.503ZM215.359 397.848V401.624H216.687V397.848H215.359ZM211.039 390.808V398.2H221.039V390.808H219.727V393.384H212.351V390.808H211.039ZM212.351 394.456H219.727V397.112H212.351V394.456ZM229.918 394.952V396.056H232.686V394.952H229.918ZM227.214 391.144V393.896C227.214 396.376 226.03 398.968 224.046 400.136L224.878 401.144C226.99 399.848 228.254 396.92 228.254 393.896V391.144H227.214ZM227.47 391.144V393.848C227.47 396.664 228.638 399.544 230.718 400.824L231.486 399.784C229.582 398.632 228.494 396.168 228.494 393.848V391.144H227.47ZM235.23 389.784V404.248H236.51V389.784H235.23ZM232.302 390.088V403.528H233.55V390.088H232.302ZM242.141 397.224V401.56H243.453V397.224H242.141ZM247.485 397.224V401.56H248.813V397.224H247.485ZM238.941 401.304V402.408H252.045V401.304H238.941ZM245.469 390.696C242.397 390.696 240.205 392.152 240.205 394.424C240.205 396.68 242.397 398.136 245.469 398.136C248.525 398.136 250.717 396.68 250.717 394.424C250.717 392.152 248.525 390.696 245.469 390.696ZM245.469 391.752C247.789 391.752 249.437 392.808 249.437 394.424C249.437 396.024 247.789 397.08 245.469 397.08C243.149 397.08 241.485 396.024 241.485 394.424C241.485 392.808 243.149 391.752 245.469 391.752ZM255.064 403.091C254.784 403.091 254.543 402.991 254.342 402.79C254.142 402.589 254.041 402.348 254.041 402.068C254.041 401.788 254.142 401.547 254.342 401.347C254.543 401.146 254.784 401.045 255.064 401.045C255.344 401.045 255.585 401.146 255.786 401.347C255.986 401.547 256.087 401.788 256.087 402.068C256.087 402.254 256.039 402.424 255.945 402.58C255.854 402.735 255.731 402.86 255.575 402.955C255.424 403.045 255.253 403.091 255.064 403.091Z" fill="black"/>
</svg>
