<svg width="320" height="500" viewBox="0 0 320 500" fill="none" xmlns="http://www.w3.org/2000/svg">
<rect width="320" height="500" rx="4" fill="white"/>
<path d="M21.8631 29.22V30.58H32.5431V35.56H34.2231V29.22H21.8631ZM32.5431 17.48V28.3H34.2231V17.48H32.5431ZM21.9431 19.52V21.12C21.9431 22.84 21.1231 25.2 19.0831 26.3L19.9631 27.52C22.3031 26.24 23.1631 23.38 23.1631 21.12V19.52H21.9431ZM22.3431 19.52V21.12C22.3431 23.12 22.9431 26.28 25.3031 27.68L26.0631 26.44C24.0631 25.16 23.5231 22.66 23.5231 21.12V19.52H22.3431ZM27.1031 19.52V21.12C27.1031 22.74 26.5631 25.2 24.5631 26.44L25.3031 27.68C27.6831 26.32 28.2831 23.24 28.2831 21.12V19.52H27.1031ZM27.4631 19.52V21.12C27.4631 23.46 28.3231 26.26 30.6831 27.52L31.5631 26.3C29.5031 25.22 28.7031 22.9 28.7031 21.12V19.52H27.4631ZM19.6831 18.84V20.18H24.8831V18.84H19.6831ZM25.7431 18.84V20.18H30.8431V18.84H25.7431ZM40.4016 29.16V30.48H50.8016V35.58H52.4616V29.16H40.4016ZM50.8016 17.48V28.14H52.4616V17.48H50.8016ZM46.3616 22V23.38H51.3016V22H46.3616ZM38.4216 18.84V26.92H46.6816V18.84H38.4216ZM45.0416 20.16V25.6H40.0416V20.16H45.0416ZM56.7 19.28V30.98H65V19.28H56.7ZM63.38 20.62V29.64H58.32V20.62H63.38ZM68.22 17.48V35.56H69.9V17.48H68.22ZM69.5 24.7V26.1H72.86V24.7H69.5ZM76.4984 27.22V28.56H88.9184V27.22H76.4984ZM74.3984 31.86V33.24H90.7784V31.86H74.3984ZM76.4984 19.02V27.64H78.1784V20.38H88.7184V19.02H76.4984ZM77.6384 23.06V24.38H88.3384V23.06H77.6384Z" fill="black"/>
<path d="M25.375 104.139C24.6259 104.139 23.9879 103.935 23.4609 103.528C22.9339 103.117 22.5313 102.522 22.2528 101.743C21.9744 100.961 21.8352 100.016 21.8352 98.9091C21.8352 97.8087 21.9744 96.8691 22.2528 96.0902C22.5346 95.308 22.9389 94.7114 23.4659 94.3004C23.9962 93.8861 24.6326 93.679 25.375 93.679C26.1174 93.679 26.7521 93.8861 27.2791 94.3004C27.8094 94.7114 28.2138 95.308 28.4922 96.0902C28.7739 96.8691 28.9148 97.8087 28.9148 98.9091C28.9148 100.016 28.7756 100.961 28.4972 101.743C28.2188 102.522 27.8161 103.117 27.2891 103.528C26.7621 103.935 26.1241 104.139 25.375 104.139ZM25.375 103.045C26.1174 103.045 26.6941 102.687 27.1051 101.972C27.5161 101.256 27.7216 100.235 27.7216 98.9091C27.7216 98.0275 27.6271 97.2768 27.4382 96.657C27.2526 96.0372 26.9841 95.5649 26.6328 95.2401C26.2848 94.9152 25.8655 94.7528 25.375 94.7528C24.6392 94.7528 24.0642 95.1158 23.6499 95.8416C23.2356 96.5642 23.0284 97.5866 23.0284 98.9091C23.0284 99.7907 23.1212 100.54 23.3068 101.156C23.4924 101.773 23.7592 102.242 24.1072 102.563C24.4586 102.885 24.8812 103.045 25.375 103.045ZM34.3835 93.8182V104H33.1506V95.1108H33.0909L30.6051 96.7614V95.5085L33.1506 93.8182H34.3835ZM44.1853 93.038V94.27C44.1853 96.16 42.9113 97.91 40.9933 98.61L41.5813 99.534C43.7233 98.722 45.1513 96.664 45.1513 94.27V93.038H44.1853ZM44.3953 93.038V94.27C44.3953 96.594 45.8233 98.526 47.9373 99.296L48.5253 98.386C46.6493 97.728 45.3473 96.09 45.3473 94.27V93.038H44.3953ZM42.8133 100.696V101.648H50.0933V105.092H51.2693V100.696H42.8133ZM50.0933 92.436V100.052H51.2693V92.436H50.0933ZM62.7762 92.436V100.192H63.9242V92.436H62.7762ZM63.2942 95.684V96.664H65.4782V95.684H63.2942ZM54.0962 93.346V99.184H57.4982V93.346H56.5042V95.32H55.0902V93.346H54.0962ZM55.0902 96.244H56.5042V98.232H55.0902V96.244ZM58.2682 93.346V99.184H61.6562V93.346H60.6762V95.32H59.2622V93.346H58.2682ZM59.2622 96.244H60.6762V98.232H59.2622V96.244ZM59.7662 100.416C57.1482 100.416 55.5382 101.284 55.5382 102.754C55.5382 104.224 57.1482 105.064 59.7662 105.064C62.4122 105.064 64.0222 104.224 64.0222 102.754C64.0222 101.284 62.4122 100.416 59.7662 100.416ZM59.7662 101.34C61.6982 101.34 62.8462 101.858 62.8462 102.754C62.8462 103.636 61.6982 104.154 59.7662 104.154C57.8622 104.154 56.7002 103.636 56.7002 102.754C56.7002 101.858 57.8622 101.34 59.7662 101.34Z" fill="black"/>
<path d="M25.375 128.139C24.6259 128.139 23.9879 127.935 23.4609 127.528C22.9339 127.117 22.5313 126.522 22.2528 125.743C21.9744 124.961 21.8352 124.016 21.8352 122.909C21.8352 121.809 21.9744 120.869 22.2528 120.09C22.5346 119.308 22.9389 118.711 23.4659 118.3C23.9962 117.886 24.6326 117.679 25.375 117.679C26.1174 117.679 26.7521 117.886 27.2791 118.3C27.8094 118.711 28.2138 119.308 28.4922 120.09C28.7739 120.869 28.9148 121.809 28.9148 122.909C28.9148 124.016 28.7756 124.961 28.4972 125.743C28.2188 126.522 27.8161 127.117 27.2891 127.528C26.7621 127.935 26.1241 128.139 25.375 128.139ZM25.375 127.045C26.1174 127.045 26.6941 126.687 27.1051 125.972C27.5161 125.256 27.7216 124.235 27.7216 122.909C27.7216 122.027 27.6271 121.277 27.4382 120.657C27.2526 120.037 26.9841 119.565 26.6328 119.24C26.2848 118.915 25.8655 118.753 25.375 118.753C24.6392 118.753 24.0642 119.116 23.6499 119.842C23.2356 120.564 23.0284 121.587 23.0284 122.909C23.0284 123.791 23.1212 124.54 23.3068 125.156C23.4924 125.773 23.7592 126.242 24.1072 126.563C24.4586 126.885 24.8812 127.045 25.375 127.045ZM30.804 128V127.105L34.1648 123.426C34.5592 122.995 34.884 122.621 35.1392 122.303C35.3944 121.981 35.5833 121.679 35.706 121.398C35.8319 121.113 35.8949 120.814 35.8949 120.503C35.8949 120.145 35.8087 119.835 35.6364 119.573C35.4673 119.311 35.2353 119.109 34.9403 118.967C34.6454 118.824 34.3139 118.753 33.946 118.753C33.5549 118.753 33.2135 118.834 32.9219 118.996C32.6335 119.156 32.4098 119.379 32.2507 119.668C32.0949 119.956 32.017 120.294 32.017 120.682H30.8438C30.8438 120.085 30.9813 119.562 31.2564 119.111C31.5315 118.66 31.906 118.309 32.38 118.057C32.8572 117.805 33.3925 117.679 33.9858 117.679C34.5824 117.679 35.111 117.805 35.5717 118.057C36.0324 118.309 36.3937 118.648 36.6555 119.076C36.9174 119.504 37.0483 119.979 37.0483 120.503C37.0483 120.877 36.9804 121.244 36.8445 121.602C36.7119 121.956 36.4799 122.352 36.1484 122.79C35.8203 123.224 35.3646 123.754 34.7812 124.381L32.4943 126.827V126.906H37.2273V128H30.804ZM47.7641 119.95V120.888H50.5781V119.95H47.7641ZM47.6661 123.128V124.066H50.5501V123.128H47.6661ZM52.4961 116.436V129.092H53.6161V116.436H52.4961ZM49.9621 116.758V128.448H51.0541V116.758H49.9621ZM47.1341 118.032V118.242C47.1341 121.224 45.8041 123.744 42.8501 125.536L43.5221 126.362C46.9241 124.332 48.2541 121.35 48.2541 118.032H47.1341ZM43.4101 118.032V118.984H47.5961V118.032H43.4101ZM64.395 116.45V125.774H65.557V116.45H64.395ZM65.207 120.314V121.294H67.433V120.314H65.207ZM57.759 127.86V128.812H66.131V127.86H57.759ZM57.759 125.046V128.21H58.921V125.046H57.759ZM56.289 122.848V123.8H57.283C59.621 123.8 61.287 123.73 63.289 123.394L63.191 122.428C61.217 122.778 59.579 122.848 57.283 122.848H56.289ZM56.261 117.262V118.214H60.811V120.006H56.289V123.184H57.423V120.888H61.959V117.262H56.261ZM69.4134 122.909C69.4134 121.656 69.5758 120.504 69.9006 119.454C70.2287 118.4 70.696 117.43 71.3026 116.545H72.3366C72.098 116.874 71.8743 117.278 71.6655 117.759C71.46 118.236 71.2794 118.761 71.1236 119.335C70.9678 119.905 70.8452 120.495 70.7557 121.104C70.6695 121.714 70.6264 122.316 70.6264 122.909C70.6264 123.698 70.7027 124.498 70.8551 125.31C71.0076 126.122 71.2131 126.876 71.4716 127.572C71.7301 128.268 72.0185 128.835 72.3366 129.273H71.3026C70.696 128.388 70.2287 127.42 69.9006 126.369C69.5758 125.315 69.4134 124.162 69.4134 122.909ZM77.6277 117.818V128H76.3947V119.111H76.335L73.8493 120.761V119.509L76.3947 117.818H77.6277ZM80.5559 128V127.105L83.9167 123.426C84.3111 122.995 84.6359 122.621 84.8912 122.303C85.1464 121.981 85.3353 121.679 85.4579 121.398C85.5839 121.113 85.6468 120.814 85.6468 120.503C85.6468 120.145 85.5607 119.835 85.3883 119.573C85.2193 119.311 84.9873 119.109 84.6923 118.967C84.3973 118.824 84.0659 118.753 83.698 118.753C83.3069 118.753 82.9655 118.834 82.6738 118.996C82.3855 119.156 82.1618 119.379 82.0027 119.668C81.8469 119.956 81.769 120.294 81.769 120.682H80.5957C80.5957 120.085 80.7333 119.562 81.0083 119.111C81.2834 118.66 81.658 118.309 82.1319 118.057C82.6092 117.805 83.1445 117.679 83.7377 117.679C84.3343 117.679 84.863 117.805 85.3237 118.057C85.7844 118.309 86.1457 118.648 86.4075 119.076C86.6693 119.504 86.8002 119.979 86.8002 120.503C86.8002 120.877 86.7323 121.244 86.5964 121.602C86.4638 121.956 86.2318 122.352 85.9004 122.79C85.5723 123.224 85.1165 123.754 84.5332 124.381L82.2463 126.827V126.906H86.9792V128H80.5559ZM98.2825 116.436V129.092H99.4025V116.436H98.2825ZM96.2385 121.518V122.47H98.6605V121.518H96.2385ZM92.9625 118.06V118.284C92.9625 121.21 91.8425 123.772 88.6645 125.55L89.3505 126.376C92.9625 124.346 94.0825 121.322 94.0825 118.06H92.9625ZM89.1545 118.06V119.026H93.3545V118.06H89.1545ZM95.4685 116.772V128.476H96.5745V116.772H95.4685ZM104.437 123.705C104.437 124.957 104.273 126.111 103.945 127.165C103.62 128.215 103.154 129.183 102.548 130.068H101.514C101.752 129.74 101.974 129.336 102.18 128.855C102.389 128.378 102.571 127.854 102.727 127.284C102.883 126.711 103.003 126.119 103.09 125.509C103.179 124.896 103.224 124.295 103.224 123.705C103.224 122.916 103.148 122.115 102.995 121.303C102.843 120.491 102.637 119.737 102.379 119.041C102.12 118.345 101.832 117.778 101.514 117.341H102.548C103.154 118.226 103.62 119.195 103.945 120.249C104.273 121.3 104.437 122.452 104.437 123.705Z" fill="black"/>
<path d="M25.375 152.139C24.6259 152.139 23.9879 151.935 23.4609 151.528C22.9339 151.117 22.5313 150.522 22.2528 149.743C21.9744 148.961 21.8352 148.016 21.8352 146.909C21.8352 145.809 21.9744 144.869 22.2528 144.09C22.5346 143.308 22.9389 142.711 23.4659 142.3C23.9962 141.886 24.6326 141.679 25.375 141.679C26.1174 141.679 26.7521 141.886 27.2791 142.3C27.8094 142.711 28.2138 143.308 28.4922 144.09C28.7739 144.869 28.9148 145.809 28.9148 146.909C28.9148 148.016 28.7756 148.961 28.4972 149.743C28.2188 150.522 27.8161 151.117 27.2891 151.528C26.7621 151.935 26.1241 152.139 25.375 152.139ZM25.375 151.045C26.1174 151.045 26.6941 150.687 27.1051 149.972C27.5161 149.256 27.7216 148.235 27.7216 146.909C27.7216 146.027 27.6271 145.277 27.4382 144.657C27.2526 144.037 26.9841 143.565 26.6328 143.24C26.2848 142.915 25.8655 142.753 25.375 142.753C24.6392 142.753 24.0642 143.116 23.6499 143.842C23.2356 144.564 23.0284 145.587 23.0284 146.909C23.0284 147.791 23.1212 148.54 23.3068 149.156C23.4924 149.773 23.7592 150.242 24.1072 150.563C24.4586 150.885 24.8812 151.045 25.375 151.045ZM34.2443 152.139C33.5881 152.139 33.0031 152.027 32.4893 151.801C31.9789 151.576 31.5729 151.263 31.2713 150.862C30.973 150.457 30.8106 149.988 30.7841 149.455H32.0369C32.0634 149.783 32.1761 150.066 32.375 150.305C32.5739 150.54 32.834 150.722 33.1555 150.852C33.477 150.981 33.8333 151.045 34.2244 151.045C34.6619 151.045 35.0497 150.969 35.3878 150.817C35.7259 150.664 35.991 150.452 36.1832 150.18C36.3755 149.909 36.4716 149.594 36.4716 149.236C36.4716 148.861 36.3788 148.531 36.1932 148.246C36.0076 147.958 35.7358 147.733 35.3778 147.57C35.0199 147.408 34.5824 147.327 34.0653 147.327H33.25V146.233H34.0653C34.4697 146.233 34.8243 146.16 35.1293 146.014C35.4375 145.868 35.6778 145.663 35.8501 145.398C36.0258 145.133 36.1136 144.821 36.1136 144.463C36.1136 144.118 36.0374 143.818 35.8849 143.563C35.7325 143.308 35.517 143.109 35.2386 142.967C34.9635 142.824 34.6387 142.753 34.2642 142.753C33.9129 142.753 33.5814 142.817 33.2699 142.947C32.9616 143.073 32.7098 143.257 32.5142 143.499C32.3187 143.737 32.2126 144.026 32.196 144.364H31.0028C31.0227 143.83 31.1835 143.363 31.4851 142.962C31.7867 142.557 32.1811 142.242 32.6683 142.017C33.1589 141.792 33.6974 141.679 34.2841 141.679C34.9138 141.679 35.4541 141.807 35.9048 142.062C36.3556 142.314 36.7019 142.647 36.9439 143.061C37.1858 143.475 37.3068 143.923 37.3068 144.403C37.3068 144.977 37.156 145.466 36.8544 145.87C36.5561 146.274 36.1501 146.554 35.6364 146.71V146.79C36.2794 146.896 36.7815 147.169 37.1428 147.61C37.504 148.048 37.6847 148.589 37.6847 149.236C37.6847 149.789 37.5339 150.286 37.2322 150.727C36.9339 151.165 36.5263 151.509 36.0092 151.761C35.4922 152.013 34.9039 152.139 34.2443 152.139ZM49.0136 140.73C46.2696 140.73 44.5616 141.654 44.5616 143.194C44.5616 144.72 46.2696 145.644 49.0136 145.644C51.7436 145.644 53.4656 144.72 53.4656 143.194C53.4656 141.654 51.7436 140.73 49.0136 140.73ZM49.0136 141.654C51.0156 141.654 52.2756 142.228 52.2756 143.194C52.2756 144.146 51.0156 144.706 49.0136 144.706C47.0116 144.706 45.7516 144.146 45.7516 143.194C45.7516 142.228 47.0116 141.654 49.0136 141.654ZM43.2876 146.862V147.814H54.7256V146.862H43.2876ZM48.4396 145.182V147.198H49.5876V145.182H48.4396ZM44.5616 149.004V149.956H52.1496V153.092H53.3116V149.004H44.5616ZM61.2905 140.884V141.584C61.2905 143.39 59.0645 144.902 56.7545 145.252L57.2165 146.19C59.8485 145.742 62.3125 144.006 62.3125 141.584V140.884H61.2905ZM61.5005 140.884V141.584C61.5005 143.978 63.9785 145.742 66.5825 146.19L67.0445 145.252C64.7625 144.902 62.5085 143.348 62.5085 141.584V140.884H61.5005ZM61.2905 148.276V153.092H62.4385V148.276H61.2905ZM56.1805 147.562V148.528H67.6185V147.562H56.1805ZM74.1694 140.884V141.584C74.1694 143.39 71.9434 144.902 69.6334 145.252L70.0954 146.19C72.7274 145.742 75.1914 144.006 75.1914 141.584V140.884H74.1694ZM74.3794 140.884V141.584C74.3794 143.978 76.8574 145.742 79.4614 146.19L79.9234 145.252C77.6414 144.902 75.3874 143.348 75.3874 141.584V140.884H74.3794ZM74.1694 148.276V153.092H75.3174V148.276H74.1694ZM69.0594 147.562V148.528H80.4974V147.562H69.0594ZM91.4863 140.436V149.956H92.5923V140.436H91.4863ZM89.4703 144.342V145.308H91.8643V144.342H89.4703ZM88.7283 140.674V149.536H89.8203V140.674H88.7283ZM84.3043 151.86V152.812H92.9983V151.86H84.3043ZM84.3043 148.808V152.392H85.4663V148.808H84.3043ZM86.4043 141.514V141.836C86.4043 144.384 85.1723 146.414 82.0503 147.716L82.6243 148.57C86.1383 147.058 87.5383 144.608 87.5383 141.514H86.4043ZM82.6243 141.514V142.466H86.8103V141.514H82.6243ZM86.2923 143.88L82.0363 144.16L82.2183 145.126L86.2923 144.692V143.88Z" fill="black"/>
<path d="M25.375 176.139C24.6259 176.139 23.9879 175.935 23.4609 175.528C22.9339 175.117 22.5313 174.522 22.2528 173.743C21.9744 172.961 21.8352 172.016 21.8352 170.909C21.8352 169.809 21.9744 168.869 22.2528 168.09C22.5346 167.308 22.9389 166.711 23.4659 166.3C23.9962 165.886 24.6326 165.679 25.375 165.679C26.1174 165.679 26.7521 165.886 27.2791 166.3C27.8094 166.711 28.2138 167.308 28.4922 168.09C28.7739 168.869 28.9148 169.809 28.9148 170.909C28.9148 172.016 28.7756 172.961 28.4972 173.743C28.2188 174.522 27.8161 175.117 27.2891 175.528C26.7621 175.935 26.1241 176.139 25.375 176.139ZM25.375 175.045C26.1174 175.045 26.6941 174.687 27.1051 173.972C27.5161 173.256 27.7216 172.235 27.7216 170.909C27.7216 170.027 27.6271 169.277 27.4382 168.657C27.2526 168.037 26.9841 167.565 26.6328 167.24C26.2848 166.915 25.8655 166.753 25.375 166.753C24.6392 166.753 24.0642 167.116 23.6499 167.842C23.2356 168.564 23.0284 169.587 23.0284 170.909C23.0284 171.791 23.1212 172.54 23.3068 173.156C23.4924 173.773 23.7592 174.242 24.1072 174.563C24.4586 174.885 24.8812 175.045 25.375 175.045ZM30.5653 173.912V172.898L35.0398 165.818H35.7756V167.389H35.2784L31.8977 172.739V172.818H37.9233V173.912H30.5653ZM35.358 176V173.604V173.131V165.818H36.5312V176H35.358ZM52.5539 164.422V177.106H53.7159V164.422H52.5539ZM44.0839 165.5V174.054H50.0479V165.5H48.8859V168.846H45.2319V165.5H44.0839ZM45.2319 169.77H48.8859V173.102H45.2319V169.77ZM61.6248 168.048V169H63.7808V168.048H61.6248ZM59.2448 165.416C57.5648 165.416 56.3608 166.69 56.3608 168.496C56.3608 170.302 57.5648 171.576 59.2448 171.576C60.8968 171.576 62.1148 170.302 62.1148 168.496C62.1148 166.69 60.8968 165.416 59.2448 165.416ZM59.2448 166.424C60.2808 166.424 61.0648 167.278 61.0648 168.496C61.0648 169.714 60.2808 170.582 59.2448 170.582C58.1948 170.582 57.4108 169.714 57.4108 168.496C57.4108 167.278 58.1948 166.424 59.2448 166.424ZM65.7968 164.436V173.9H66.9028V164.436H65.7968ZM63.4028 164.688V173.536H64.5088V164.688H63.4028ZM58.6568 175.86V176.812H67.2948V175.86H58.6568ZM58.6568 172.682V176.294H59.8188V172.682H58.6568ZM78.5357 169.476V170.456H80.8737V169.476H78.5357ZM77.6817 164.422V177.092H78.8577V164.422H77.6817ZM69.6177 165.668V173.508H70.7797V165.668H69.6177ZM69.6177 172.906V173.886H70.6257C72.5437 173.886 74.4897 173.76 76.6457 173.312L76.5057 172.346C74.4197 172.78 72.5017 172.906 70.6257 172.906H69.6177ZM82.7981 170.909C82.7981 169.656 82.9605 168.504 83.2853 167.454C83.6135 166.4 84.0808 165.43 84.6873 164.545H85.7214C85.4828 164.874 85.2591 165.278 85.0502 165.759C84.8448 166.236 84.6641 166.761 84.5083 167.335C84.3526 167.905 84.2299 168.495 84.1404 169.104C84.0543 169.714 84.0112 170.316 84.0112 170.909C84.0112 171.698 84.0874 172.498 84.2399 173.31C84.3923 174.122 84.5978 174.876 84.8564 175.572C85.1149 176.268 85.4032 176.835 85.7214 177.273H84.6873C84.0808 176.388 83.6135 175.42 83.2853 174.369C82.9605 173.315 82.7981 172.162 82.7981 170.909ZM90.8732 176.139C90.217 176.139 89.632 176.027 89.1183 175.801C88.6078 175.576 88.2018 175.263 87.9002 174.862C87.6019 174.457 87.4395 173.988 87.413 173.455H88.6658C88.6924 173.783 88.805 174.066 89.0039 174.305C89.2028 174.54 89.4629 174.722 89.7844 174.852C90.1059 174.981 90.4622 175.045 90.8533 175.045C91.2908 175.045 91.6786 174.969 92.0167 174.817C92.3548 174.664 92.6199 174.452 92.8121 174.18C93.0044 173.909 93.1005 173.594 93.1005 173.236C93.1005 172.861 93.0077 172.531 92.8221 172.246C92.6365 171.958 92.3647 171.733 92.0067 171.57C91.6488 171.408 91.2113 171.327 90.6942 171.327H89.8789V170.233H90.6942C91.0986 170.233 91.4532 170.16 91.7582 170.014C92.0664 169.868 92.3067 169.663 92.479 169.398C92.6547 169.133 92.7425 168.821 92.7425 168.463C92.7425 168.118 92.6663 167.818 92.5138 167.563C92.3614 167.308 92.146 167.109 91.8675 166.967C91.5924 166.824 91.2676 166.753 90.8931 166.753C90.5418 166.753 90.2103 166.817 89.8988 166.947C89.5906 167.073 89.3387 167.257 89.1431 167.499C88.9476 167.737 88.8415 168.026 88.8249 168.364H87.6317C87.6516 167.83 87.8124 167.363 88.114 166.962C88.4156 166.557 88.81 166.242 89.2972 166.017C89.7878 165.792 90.3263 165.679 90.913 165.679C91.5427 165.679 92.083 165.807 92.5337 166.062C92.9845 166.314 93.3308 166.647 93.5728 167.061C93.8147 167.475 93.9357 167.923 93.9357 168.403C93.9357 168.977 93.7849 169.466 93.4833 169.87C93.185 170.274 92.779 170.554 92.2653 170.71V170.79C92.9083 170.896 93.4104 171.169 93.7717 171.61C94.1329 172.048 94.3136 172.589 94.3136 173.236C94.3136 173.789 94.1628 174.286 93.8612 174.727C93.5629 175.165 93.1552 175.509 92.6381 175.761C92.1211 176.013 91.5328 176.139 90.8732 176.139ZM99.668 176.139C98.9189 176.139 98.2809 175.935 97.7539 175.528C97.2269 175.117 96.8242 174.522 96.5458 173.743C96.2674 172.961 96.1282 172.016 96.1282 170.909C96.1282 169.809 96.2674 168.869 96.5458 168.09C96.8275 167.308 97.2319 166.711 97.7589 166.3C98.2892 165.886 98.9255 165.679 99.668 165.679C100.41 165.679 101.045 165.886 101.572 166.3C102.102 166.711 102.507 167.308 102.785 168.09C103.067 168.869 103.208 169.809 103.208 170.909C103.208 172.016 103.069 172.961 102.79 173.743C102.512 174.522 102.109 175.117 101.582 175.528C101.055 175.935 100.417 176.139 99.668 176.139ZM99.668 175.045C100.41 175.045 100.987 174.687 101.398 173.972C101.809 173.256 102.015 172.235 102.015 170.909C102.015 170.027 101.92 169.277 101.731 168.657C101.546 168.037 101.277 167.565 100.926 167.24C100.578 166.915 100.158 166.753 99.668 166.753C98.9322 166.753 98.3571 167.116 97.9428 167.842C97.5285 168.564 97.3214 169.587 97.3214 170.909C97.3214 171.791 97.4142 172.54 97.5998 173.156C97.7854 173.773 98.0522 174.242 98.4002 174.563C98.7515 174.885 99.1741 175.045 99.668 175.045ZM108.418 176.139C107.669 176.139 107.031 175.935 106.504 175.528C105.977 175.117 105.574 174.522 105.296 173.743C105.017 172.961 104.878 172.016 104.878 170.909C104.878 169.809 105.017 168.869 105.296 168.09C105.578 167.308 105.982 166.711 106.509 166.3C107.039 165.886 107.676 165.679 108.418 165.679C109.16 165.679 109.795 165.886 110.322 166.3C110.852 166.711 111.257 167.308 111.535 168.09C111.817 168.869 111.958 169.809 111.958 170.909C111.958 172.016 111.819 172.961 111.54 173.743C111.262 174.522 110.859 175.117 110.332 175.528C109.805 175.935 109.167 176.139 108.418 176.139ZM108.418 175.045C109.16 175.045 109.737 174.687 110.148 173.972C110.559 173.256 110.765 172.235 110.765 170.909C110.765 170.027 110.67 169.277 110.481 168.657C110.296 168.037 110.027 167.565 109.676 167.24C109.328 166.915 108.908 166.753 108.418 166.753C107.682 166.753 107.107 167.116 106.693 167.842C106.279 168.564 106.071 169.587 106.071 170.909C106.071 171.791 106.164 172.54 106.35 173.156C106.535 173.773 106.802 174.242 107.15 174.563C107.502 174.885 107.924 175.045 108.418 175.045ZM116.949 179.023C116.382 179.023 115.895 178.95 115.488 178.804C115.08 178.661 114.74 178.473 114.468 178.237C114.2 178.005 113.986 177.757 113.827 177.491L114.762 176.835C114.868 176.974 115.002 177.134 115.164 177.312C115.327 177.495 115.549 177.652 115.831 177.785C116.116 177.921 116.489 177.989 116.949 177.989C117.566 177.989 118.074 177.839 118.475 177.541C118.877 177.243 119.077 176.776 119.077 176.139V174.588H118.978C118.891 174.727 118.769 174.9 118.61 175.105C118.454 175.307 118.229 175.488 117.934 175.647C117.642 175.803 117.248 175.881 116.75 175.881C116.134 175.881 115.58 175.735 115.09 175.443C114.603 175.152 114.217 174.727 113.931 174.17C113.65 173.614 113.509 172.937 113.509 172.142C113.509 171.36 113.646 170.679 113.922 170.099C114.197 169.515 114.579 169.065 115.07 168.746C115.56 168.425 116.127 168.264 116.77 168.264C117.267 168.264 117.662 168.347 117.953 168.513C118.248 168.675 118.474 168.861 118.63 169.07C118.789 169.275 118.911 169.444 118.998 169.577H119.117V168.364H120.25V176.219C120.25 176.875 120.101 177.409 119.803 177.82C119.508 178.234 119.11 178.537 118.61 178.729C118.113 178.925 117.559 179.023 116.949 179.023ZM116.909 174.827C117.38 174.827 117.778 174.719 118.103 174.504C118.427 174.288 118.674 173.978 118.843 173.574C119.012 173.17 119.097 172.686 119.097 172.122C119.097 171.572 119.014 171.086 118.848 170.665C118.683 170.245 118.437 169.915 118.113 169.676C117.788 169.437 117.387 169.318 116.909 169.318C116.412 169.318 115.998 169.444 115.667 169.696C115.338 169.948 115.092 170.286 114.926 170.71C114.763 171.134 114.682 171.605 114.682 172.122C114.682 172.652 114.765 173.121 114.931 173.529C115.1 173.933 115.348 174.252 115.676 174.484C116.008 174.712 116.419 174.827 116.909 174.827ZM124.904 171.705C124.904 172.957 124.74 174.111 124.412 175.165C124.087 176.215 123.621 177.183 123.015 178.068H121.98C122.219 177.74 122.441 177.336 122.647 176.855C122.855 176.378 123.038 175.854 123.194 175.284C123.349 174.711 123.47 174.119 123.556 173.509C123.646 172.896 123.691 172.295 123.691 171.705C123.691 170.916 123.614 170.115 123.462 169.303C123.31 168.491 123.104 167.737 122.846 167.041C122.587 166.345 122.299 165.778 121.98 165.341H123.015C123.621 166.226 124.087 167.195 124.412 168.249C124.74 169.3 124.904 170.452 124.904 171.705Z" fill="black"/>
<path d="M25.375 200.139C24.6259 200.139 23.9879 199.935 23.4609 199.528C22.9339 199.117 22.5313 198.522 22.2528 197.743C21.9744 196.961 21.8352 196.016 21.8352 194.909C21.8352 193.809 21.9744 192.869 22.2528 192.09C22.5346 191.308 22.9389 190.711 23.4659 190.3C23.9962 189.886 24.6326 189.679 25.375 189.679C26.1174 189.679 26.7521 189.886 27.2791 190.3C27.8094 190.711 28.2138 191.308 28.4922 192.09C28.7739 192.869 28.9148 193.809 28.9148 194.909C28.9148 196.016 28.7756 196.961 28.4972 197.743C28.2188 198.522 27.8161 199.117 27.2891 199.528C26.7621 199.935 26.1241 200.139 25.375 200.139ZM25.375 199.045C26.1174 199.045 26.6941 198.687 27.1051 197.972C27.5161 197.256 27.7216 196.235 27.7216 194.909C27.7216 194.027 27.6271 193.277 27.4382 192.657C27.2526 192.037 26.9841 191.565 26.6328 191.24C26.2848 190.915 25.8655 190.753 25.375 190.753C24.6392 190.753 24.0642 191.116 23.6499 191.842C23.2356 192.564 23.0284 193.587 23.0284 194.909C23.0284 195.791 23.1212 196.54 23.3068 197.156C23.4924 197.773 23.7592 198.242 24.1072 198.563C24.4586 198.885 24.8812 199.045 25.375 199.045ZM33.9858 200.139C33.4025 200.139 32.8771 200.023 32.4098 199.791C31.9425 199.559 31.5679 199.241 31.2862 198.837C31.0045 198.432 30.8504 197.972 30.8239 197.455H32.017C32.0634 197.915 32.2723 198.296 32.6435 198.598C33.018 198.896 33.4654 199.045 33.9858 199.045C34.4034 199.045 34.7746 198.948 35.0994 198.752C35.4276 198.557 35.6844 198.288 35.87 197.947C36.0589 197.602 36.1534 197.213 36.1534 196.778C36.1534 196.334 36.0556 195.938 35.8601 195.59C35.6679 195.239 35.4027 194.962 35.0646 194.76C34.7266 194.558 34.3404 194.455 33.9062 194.452C33.5947 194.448 33.2749 194.496 32.9467 194.596C32.6186 194.692 32.3485 194.816 32.1364 194.969L30.983 194.83L31.5994 189.818H36.8892V190.912H32.6335L32.2756 193.915H32.3352C32.544 193.749 32.8059 193.612 33.1207 193.502C33.4356 193.393 33.7637 193.338 34.1051 193.338C34.7282 193.338 35.2834 193.487 35.7706 193.786C36.2611 194.08 36.6456 194.485 36.924 194.999C37.2057 195.512 37.3466 196.099 37.3466 196.759C37.3466 197.408 37.2008 197.988 36.9091 198.499C36.6207 199.006 36.223 199.407 35.7159 199.702C35.2088 199.993 34.6321 200.139 33.9858 200.139ZM52.1031 188.436V201.092H53.2651V188.436H52.1031ZM46.4051 191.446V192.524C46.4051 194.736 45.0051 196.892 43.1291 197.76L43.7871 198.656C45.8171 197.676 47.3431 195.226 47.3431 192.524V191.446H46.4051ZM46.6291 191.446V192.524C46.6291 195.142 48.1831 197.508 50.2271 198.432L50.8851 197.522C48.9951 196.696 47.5531 194.638 47.5531 192.524V191.446H46.6291ZM43.4791 190.634V191.572H50.4511V190.634H43.4791ZM46.4051 188.66V191.152H47.5671V188.66H46.4051ZM55.784 198.446V199.412H67.25V198.446H55.784ZM60.908 190.144V191.194C60.908 193.196 58.514 194.96 56.33 195.338L56.806 196.262C59.298 195.744 61.888 193.784 61.888 191.194V190.144H60.908ZM61.118 190.144V191.194C61.118 193.784 63.722 195.716 66.256 196.22L66.718 195.282C64.506 194.932 62.098 193.196 62.098 191.194V190.144H61.118ZM56.722 189.682V190.648H66.284V189.682H56.722ZM69.4544 194.909C69.4544 193.656 69.6168 192.504 69.9416 191.454C70.2697 190.4 70.737 189.43 71.3436 188.545H72.3777C72.139 188.874 71.9153 189.278 71.7065 189.759C71.501 190.236 71.3204 190.761 71.1646 191.335C71.0088 191.905 70.8862 192.495 70.7967 193.104C70.7105 193.714 70.6674 194.316 70.6674 194.909C70.6674 195.698 70.7437 196.498 70.8961 197.31C71.0486 198.122 71.2541 198.876 71.5126 199.572C71.7711 200.268 72.0595 200.835 72.3777 201.273H71.3436C70.737 200.388 70.2697 199.42 69.9416 198.369C69.6168 197.315 69.4544 196.162 69.4544 194.909ZM74.0891 200V199.105L77.4499 195.426C77.8443 194.995 78.1692 194.621 78.4244 194.303C78.6796 193.981 78.8685 193.679 78.9911 193.398C79.1171 193.113 79.18 192.814 79.18 192.503C79.18 192.145 79.0939 191.835 78.9215 191.573C78.7525 191.311 78.5205 191.109 78.2255 190.967C77.9305 190.824 77.5991 190.753 77.2312 190.753C76.8401 190.753 76.4987 190.834 76.207 190.996C75.9187 191.156 75.695 191.379 75.5359 191.668C75.3801 191.956 75.3022 192.294 75.3022 192.682H74.1289C74.1289 192.085 74.2665 191.562 74.5415 191.111C74.8166 190.66 75.1912 190.309 75.6651 190.057C76.1424 189.805 76.6777 189.679 77.271 189.679C77.8675 189.679 78.3962 189.805 78.8569 190.057C79.3176 190.309 79.6789 190.648 79.9407 191.076C80.2025 191.504 80.3335 191.979 80.3335 192.503C80.3335 192.877 80.2655 193.244 80.1296 193.602C79.997 193.956 79.765 194.352 79.4336 194.79C79.1055 195.224 78.6497 195.754 78.0664 196.381L75.7795 198.827V198.906H80.5124V200H74.0891ZM85.8867 200.139C85.1377 200.139 84.4996 199.935 83.9727 199.528C83.4457 199.117 83.043 198.522 82.7646 197.743C82.4862 196.961 82.3469 196.016 82.3469 194.909C82.3469 193.809 82.4862 192.869 82.7646 192.09C83.0463 191.308 83.4506 190.711 83.9776 190.3C84.5079 189.886 85.1443 189.679 85.8867 189.679C86.6291 189.679 87.2638 189.886 87.7908 190.3C88.3211 190.711 88.7255 191.308 89.0039 192.09C89.2856 192.869 89.4265 193.809 89.4265 194.909C89.4265 196.016 89.2873 196.961 89.0089 197.743C88.7305 198.522 88.3278 199.117 87.8008 199.528C87.2738 199.935 86.6358 200.139 85.8867 200.139ZM85.8867 199.045C86.6291 199.045 87.2058 198.687 87.6168 197.972C88.0278 197.256 88.2333 196.235 88.2333 194.909C88.2333 194.027 88.1388 193.277 87.9499 192.657C87.7643 192.037 87.4959 191.565 87.1445 191.24C86.7965 190.915 86.3772 190.753 85.8867 190.753C85.1509 190.753 84.5759 191.116 84.1616 191.842C83.7473 192.564 83.5401 193.587 83.5401 194.909C83.5401 195.791 83.6329 196.54 83.8185 197.156C84.0041 197.773 84.271 198.242 84.619 198.563C84.9703 198.885 85.3929 199.045 85.8867 199.045ZM94.6367 200.139C93.8877 200.139 93.2496 199.935 92.7227 199.528C92.1957 199.117 91.793 198.522 91.5146 197.743C91.2362 196.961 91.0969 196.016 91.0969 194.909C91.0969 193.809 91.2362 192.869 91.5146 192.09C91.7963 191.308 92.2006 190.711 92.7276 190.3C93.2579 189.886 93.8943 189.679 94.6367 189.679C95.3791 189.679 96.0138 189.886 96.5408 190.3C97.0711 190.711 97.4755 191.308 97.7539 192.09C98.0356 192.869 98.1765 193.809 98.1765 194.909C98.1765 196.016 98.0373 196.961 97.7589 197.743C97.4805 198.522 97.0778 199.117 96.5508 199.528C96.0238 199.935 95.3858 200.139 94.6367 200.139ZM94.6367 199.045C95.3791 199.045 95.9558 198.687 96.3668 197.972C96.7778 197.256 96.9833 196.235 96.9833 194.909C96.9833 194.027 96.8888 193.277 96.6999 192.657C96.5143 192.037 96.2459 191.565 95.8945 191.24C95.5465 190.915 95.1272 190.753 94.6367 190.753C93.9009 190.753 93.3259 191.116 92.9116 191.842C92.4973 192.564 92.2901 193.587 92.2901 194.909C92.2901 195.791 92.3829 196.54 92.5685 197.156C92.7541 197.773 93.021 198.242 93.369 198.563C93.7203 198.885 94.1429 199.045 94.6367 199.045ZM103.168 203.023C102.601 203.023 102.114 202.95 101.706 202.804C101.299 202.661 100.959 202.473 100.687 202.237C100.419 202.005 100.205 201.757 100.046 201.491L100.98 200.835C101.087 200.974 101.221 201.134 101.383 201.312C101.546 201.495 101.768 201.652 102.049 201.785C102.334 201.921 102.707 201.989 103.168 201.989C103.784 201.989 104.293 201.839 104.694 201.541C105.095 201.243 105.296 200.776 105.296 200.139V198.588H105.196C105.11 198.727 104.988 198.9 104.828 199.105C104.673 199.307 104.447 199.488 104.152 199.647C103.861 199.803 103.466 199.881 102.969 199.881C102.353 199.881 101.799 199.735 101.309 199.443C100.821 199.152 100.435 198.727 100.15 198.17C99.8685 197.614 99.7276 196.937 99.7276 196.142C99.7276 195.36 99.8652 194.679 100.14 194.099C100.415 193.515 100.798 193.065 101.289 192.746C101.779 192.425 102.346 192.264 102.989 192.264C103.486 192.264 103.881 192.347 104.172 192.513C104.467 192.675 104.693 192.861 104.848 193.07C105.007 193.275 105.13 193.444 105.216 193.577H105.336V192.364H106.469V200.219C106.469 200.875 106.32 201.409 106.022 201.82C105.727 202.234 105.329 202.537 104.828 202.729C104.331 202.925 103.778 203.023 103.168 203.023ZM103.128 198.827C103.599 198.827 103.997 198.719 104.321 198.504C104.646 198.288 104.893 197.978 105.062 197.574C105.231 197.17 105.316 196.686 105.316 196.122C105.316 195.572 105.233 195.086 105.067 194.665C104.901 194.245 104.656 193.915 104.331 193.676C104.007 193.437 103.605 193.318 103.128 193.318C102.631 193.318 102.217 193.444 101.885 193.696C101.557 193.948 101.31 194.286 101.145 194.71C100.982 195.134 100.901 195.605 100.901 196.122C100.901 196.652 100.984 197.121 101.15 197.529C101.319 197.933 101.567 198.252 101.895 198.484C102.227 198.712 102.638 198.827 103.128 198.827ZM111.123 195.705C111.123 196.957 110.958 198.111 110.63 199.165C110.306 200.215 109.84 201.183 109.233 202.068H108.199C108.438 201.74 108.66 201.336 108.865 200.855C109.074 200.378 109.257 199.854 109.412 199.284C109.568 198.711 109.689 198.119 109.775 197.509C109.865 196.896 109.909 196.295 109.909 195.705C109.909 194.916 109.833 194.115 109.681 193.303C109.528 192.491 109.323 191.737 109.064 191.041C108.806 190.345 108.517 189.778 108.199 189.341H109.233C109.84 190.226 110.306 191.195 110.63 192.249C110.958 193.3 111.123 194.452 111.123 195.705Z" fill="black"/>
<line x1="20.999" y1="46.5" x2="302.001" y2="46.5" stroke="black" stroke-dasharray="2 2"/>
<line x1="20.999" y1="81.5" x2="302.001" y2="81.5" stroke="black" stroke-dasharray="2 2"/>
<line x1="20.999" y1="216.5" x2="302.001" y2="216.5" stroke="black" stroke-dasharray="2 2"/>
<path d="M26.304 57.536V59.008C26.304 61.216 24.896 63.168 22.72 63.968L23.424 65.04C25.84 64.096 27.408 61.792 27.408 59.008V57.536H26.304ZM26.544 57.536V59.104C26.544 61.616 28.128 63.76 30.448 64.624L31.152 63.584C29.072 62.864 27.632 61.056 27.632 59.104V57.536H26.544ZM32.688 56.784V65.552H34.016V56.784H32.688ZM33.648 60.512V61.632H36.16V60.512H33.648ZM29.408 65.952C26.448 65.952 24.656 66.928 24.656 68.592C24.656 70.256 26.448 71.216 29.408 71.216C32.368 71.216 34.16 70.256 34.16 68.592C34.16 66.928 32.368 65.952 29.408 65.952ZM29.408 67.008C31.552 67.008 32.864 67.584 32.864 68.592C32.864 69.6 31.552 70.176 29.408 70.176C27.264 70.176 25.952 69.6 25.952 68.592C25.952 67.584 27.264 67.008 29.408 67.008ZM43.3908 64.464V66.96H44.7028V64.464H43.3908ZM37.5028 63.76V64.848H50.5748V63.76H37.5028ZM38.7188 57.232V58.32H49.3428V57.232H38.7188ZM38.7828 61.344V62.432H49.2788V61.344H38.7828ZM40.9108 57.712V62.048H42.2388V57.712H40.9108ZM45.8388 57.712V62.048H47.1508V57.712H45.8388ZM39.1028 66.528V71.056H48.9748V66.528H39.1028ZM47.6788 67.584V69.984H40.4148V67.584H47.6788ZM59.1335 59.12V60.208H63.3095V59.12H59.1335ZM59.1335 62V63.072H63.3415V62H59.1335ZM62.7975 56.784V65.344H64.1255V56.784H62.7975ZM52.8935 57.872V64.304H59.5015V57.872H52.8935ZM58.1895 58.944V63.248H54.1895V58.944H58.1895ZM59.3735 65.76C56.3815 65.76 54.5415 66.768 54.5415 68.496C54.5415 70.224 56.3815 71.216 59.3735 71.216C62.3495 71.216 64.1895 70.224 64.1895 68.496C64.1895 66.768 62.3495 65.76 59.3735 65.76ZM59.3735 66.816C61.5495 66.816 62.8775 67.44 62.8775 68.496C62.8775 69.552 61.5495 70.176 59.3735 70.176C57.1975 70.176 55.8695 69.552 55.8695 68.496C55.8695 67.44 57.1975 66.816 59.3735 66.816Z" fill="black"/>
<path d="M23.156 234.094V235.046H31.304V234.094H23.156ZM21.7 238.756V239.708H33.166V238.756H21.7ZM30.548 234.094V235.032C30.548 236.082 30.548 237.3 30.128 239.036L31.262 239.092C31.682 237.342 31.682 236.11 31.682 235.032V234.094H30.548ZM23.1 241.43V245.924H31.724V241.43H23.1ZM30.59 242.354V244.986H24.234V242.354H30.59ZM37.5749 234.234C35.8949 234.234 34.6909 235.452 34.6909 237.23C34.6909 238.98 35.8949 240.198 37.5749 240.198C39.2269 240.198 40.4449 238.98 40.4449 237.23C40.4449 235.452 39.2269 234.234 37.5749 234.234ZM37.5749 235.214C38.6109 235.214 39.3949 236.054 39.3949 237.23C39.3949 238.392 38.6109 239.232 37.5749 239.232C36.5249 239.232 35.7549 238.392 35.7549 237.23C35.7549 236.054 36.5249 235.214 37.5749 235.214ZM44.1269 233.45V240.968H45.2329V233.45H44.1269ZM42.0829 236.684V237.65H44.4769V236.684H42.0829ZM41.4249 233.674V240.898H42.5309V233.674H41.4249ZM36.7489 241.668V242.62H44.0849V246.092H45.2329V241.668H36.7489Z" fill="black"/>
<path d="M291.405 98.806V101.62H292.567V98.806H291.405ZM297.019 92.436V102.068H298.181V92.436H297.019ZM289.543 103.86V104.812H298.489V103.86H289.543ZM289.543 101.13V104.126H290.705V101.13H289.543ZM287.905 99.24C290.201 99.24 293.267 99.198 295.997 98.764L295.913 97.91C293.225 98.26 290.089 98.288 287.751 98.288L287.905 99.24ZM294.443 99.912V100.766H297.313V99.912H294.443ZM291.867 92.954C290.005 92.954 288.745 93.822 288.745 95.152C288.745 96.496 290.005 97.364 291.867 97.364C293.715 97.364 294.975 96.496 294.975 95.152C294.975 93.822 293.715 92.954 291.867 92.954ZM291.867 93.822C293.043 93.822 293.869 94.34 293.869 95.152C293.869 95.964 293.043 96.482 291.867 96.482C290.677 96.482 289.851 95.964 289.851 95.152C289.851 94.34 290.677 93.822 291.867 93.822Z" fill="black"/>
<path d="M291.405 122.806V125.62H292.567V122.806H291.405ZM297.019 116.436V126.068H298.181V116.436H297.019ZM289.543 127.86V128.812H298.489V127.86H289.543ZM289.543 125.13V128.126H290.705V125.13H289.543ZM287.905 123.24C290.201 123.24 293.267 123.198 295.997 122.764L295.913 121.91C293.225 122.26 290.089 122.288 287.751 122.288L287.905 123.24ZM294.443 123.912V124.766H297.313V123.912H294.443ZM291.867 116.954C290.005 116.954 288.745 117.822 288.745 119.152C288.745 120.496 290.005 121.364 291.867 121.364C293.715 121.364 294.975 120.496 294.975 119.152C294.975 117.822 293.715 116.954 291.867 116.954ZM291.867 117.822C293.043 117.822 293.869 118.34 293.869 119.152C293.869 119.964 293.043 120.482 291.867 120.482C290.677 120.482 289.851 119.964 289.851 119.152C289.851 118.34 290.677 117.822 291.867 117.822Z" fill="black"/>
<path d="M291.405 146.806V149.62H292.567V146.806H291.405ZM297.019 140.436V150.068H298.181V140.436H297.019ZM289.543 151.86V152.812H298.489V151.86H289.543ZM289.543 149.13V152.126H290.705V149.13H289.543ZM287.905 147.24C290.201 147.24 293.267 147.198 295.997 146.764L295.913 145.91C293.225 146.26 290.089 146.288 287.751 146.288L287.905 147.24ZM294.443 147.912V148.766H297.313V147.912H294.443ZM291.867 140.954C290.005 140.954 288.745 141.822 288.745 143.152C288.745 144.496 290.005 145.364 291.867 145.364C293.715 145.364 294.975 144.496 294.975 143.152C294.975 141.822 293.715 140.954 291.867 140.954ZM291.867 141.822C293.043 141.822 293.869 142.34 293.869 143.152C293.869 143.964 293.043 144.482 291.867 144.482C290.677 144.482 289.851 143.964 289.851 143.152C289.851 142.34 290.677 141.822 291.867 141.822Z" fill="black"/>
<path d="M291.405 170.806V173.62H292.567V170.806H291.405ZM297.019 164.436V174.068H298.181V164.436H297.019ZM289.543 175.86V176.812H298.489V175.86H289.543ZM289.543 173.13V176.126H290.705V173.13H289.543ZM287.905 171.24C290.201 171.24 293.267 171.198 295.997 170.764L295.913 169.91C293.225 170.26 290.089 170.288 287.751 170.288L287.905 171.24ZM294.443 171.912V172.766H297.313V171.912H294.443ZM291.867 164.954C290.005 164.954 288.745 165.822 288.745 167.152C288.745 168.496 290.005 169.364 291.867 169.364C293.715 169.364 294.975 168.496 294.975 167.152C294.975 165.822 293.715 164.954 291.867 164.954ZM291.867 165.822C293.043 165.822 293.869 166.34 293.869 167.152C293.869 167.964 293.043 168.482 291.867 168.482C290.677 168.482 289.851 167.964 289.851 167.152C289.851 166.34 290.677 165.822 291.867 165.822Z" fill="black"/>
<path d="M291.405 194.806V197.62H292.567V194.806H291.405ZM297.019 188.436V198.068H298.181V188.436H297.019ZM289.543 199.86V200.812H298.489V199.86H289.543ZM289.543 197.13V200.126H290.705V197.13H289.543ZM287.905 195.24C290.201 195.24 293.267 195.198 295.997 194.764L295.913 193.91C293.225 194.26 290.089 194.288 287.751 194.288L287.905 195.24ZM294.443 195.912V196.766H297.313V195.912H294.443ZM291.867 188.954C290.005 188.954 288.745 189.822 288.745 191.152C288.745 192.496 290.005 193.364 291.867 193.364C293.715 193.364 294.975 192.496 294.975 191.152C294.975 189.822 293.715 188.954 291.867 188.954ZM291.867 189.822C293.043 189.822 293.869 190.34 293.869 191.152C293.869 191.964 293.043 192.482 291.867 192.482C290.677 192.482 289.851 191.964 289.851 191.152C289.851 190.34 290.677 189.822 291.867 189.822Z" fill="black"/>
<path d="M291.405 239.806V242.62H292.567V239.806H291.405ZM297.019 233.436V243.068H298.181V233.436H297.019ZM289.543 244.86V245.812H298.489V244.86H289.543ZM289.543 242.13V245.126H290.705V242.13H289.543ZM287.905 240.24C290.201 240.24 293.267 240.198 295.997 239.764L295.913 238.91C293.225 239.26 290.089 239.288 287.751 239.288L287.905 240.24ZM294.443 240.912V241.766H297.313V240.912H294.443ZM291.867 233.954C290.005 233.954 288.745 234.822 288.745 236.152C288.745 237.496 290.005 238.364 291.867 238.364C293.715 238.364 294.975 237.496 294.975 236.152C294.975 234.822 293.715 233.954 291.867 233.954ZM291.867 234.822C293.043 234.822 293.869 235.34 293.869 236.152C293.869 236.964 293.043 237.482 291.867 237.482C290.677 237.482 289.851 236.964 289.851 236.152C289.851 235.34 290.677 234.822 291.867 234.822Z" fill="black"/>
</svg>
