<svg width="320" height="500" viewBox="0 0 320 500" fill="none" xmlns="http://www.w3.org/2000/svg">
<rect width="320" height="500" rx="4" fill="white"/>
<path d="M42.374 64.436V77.092H43.48V64.436H42.374ZM40.372 69.532V70.512H42.808V69.532H40.372ZM39.616 64.702V76.462H40.708V64.702H39.616ZM35.304 66.396V67.852C35.304 70.428 34.38 72.584 32.56 73.592L33.274 74.488C35.22 73.326 36.214 70.89 36.214 67.852V66.396H35.304ZM35.514 66.396V67.852C35.514 70.638 36.522 72.976 38.454 74.04L39.14 73.144C37.362 72.234 36.424 70.176 36.424 67.852V66.396H35.514ZM32.854 65.92V66.886H38.734V65.92H32.854ZM48.7709 71.856V74.964H49.9189V71.856H48.7709ZM52.8169 71.828V74.95H53.9509V71.828H52.8169ZM45.5789 74.572V75.538H57.0449V74.572H45.5789ZM46.9649 65.374V66.312H54.4829V68.272H47.0069V71.744H48.1549V69.196H55.6309V65.374H46.9649ZM47.0069 71.226V72.178H55.9249V71.226H47.0069ZM58.4438 70.316V71.198H69.9238V70.316H58.4438ZM59.8018 72.22V73.046H67.3478V74.124H59.8438V76.406H60.9918V74.922H68.4818V72.22H59.8018ZM59.8438 76.098V76.938H68.8878V76.098H59.8438ZM59.8998 64.8V65.626H67.3058V66.648H59.9278V68.804H61.0758V67.432H68.4398V64.8H59.8998ZM59.9278 68.524V69.364H68.6778V68.524H59.9278ZM83.8282 64.436V77.092H85.0042V64.436H83.8282ZM84.7242 69.406V70.4H87.0762V69.406H84.7242ZM75.7642 65.5V74.054H81.6722V65.5H80.5242V68.846H76.9122V65.5H75.7642ZM76.9122 69.77H80.5242V73.102H76.9122V69.77ZM96.8051 64.436V72.22H97.9671V64.436H96.8051ZM97.6451 67.698V68.678H99.8431V67.698H97.6451ZM93.9491 72.528C91.3591 72.528 89.7911 73.368 89.7911 74.81C89.7911 76.252 91.3591 77.064 93.9491 77.064C96.5391 77.064 98.1071 76.252 98.1071 74.81C98.1071 73.368 96.5391 72.528 93.9491 72.528ZM93.9491 73.438C95.8391 73.438 96.9731 73.942 96.9731 74.81C96.9731 75.664 95.8391 76.168 93.9491 76.168C92.0731 76.168 90.9391 75.664 90.9391 74.81C90.9391 73.942 92.0731 73.438 93.9491 73.438ZM88.7271 70.428V71.366H89.6931C92.2691 71.366 93.7251 71.31 95.4611 71.002L95.3351 70.064C93.6411 70.372 92.2271 70.428 89.6931 70.428H88.7271ZM88.7271 65.318V70.876H89.8751V66.27H94.5091V65.318H88.7271ZM89.5111 67.838V68.762H94.2711V67.838H89.5111ZM106.744 65.234C104.112 65.234 102.138 66.634 102.138 68.734C102.138 70.848 104.112 72.234 106.744 72.234C109.376 72.234 111.336 70.848 111.336 68.734C111.336 66.634 109.376 65.234 106.744 65.234ZM106.744 66.186C108.746 66.186 110.23 67.208 110.23 68.734C110.23 70.246 108.746 71.282 106.744 71.282C104.742 71.282 103.258 70.246 103.258 68.734C103.258 67.208 104.742 66.186 106.744 66.186ZM101.032 74.446V75.426H112.498V74.446H101.032ZM113.911 74.572V75.538H125.377V74.572H113.911ZM119.035 71.856V74.978H120.197V71.856H119.035ZM115.297 65.374V66.312H122.815V68.272H115.339V71.744H116.487V69.21H123.963V65.374H115.297ZM115.339 71.254V72.206H124.257V71.254H115.339ZM133.527 70.946V74.74H134.675V70.946H133.527ZM138.203 70.946V74.74H139.365V70.946H138.203ZM130.727 74.516V75.482H142.193V74.516H130.727ZM136.439 65.234C133.751 65.234 131.833 66.508 131.833 68.496C131.833 70.47 133.751 71.744 136.439 71.744C139.113 71.744 141.031 70.47 141.031 68.496C141.031 66.508 139.113 65.234 136.439 65.234ZM136.439 66.158C138.469 66.158 139.911 67.082 139.911 68.496C139.911 69.896 138.469 70.82 136.439 70.82C134.409 70.82 132.953 69.896 132.953 68.496C132.953 67.082 134.409 66.158 136.439 66.158ZM152.818 64.422V77.106H153.98V64.422H152.818ZM144.334 73.088V74.054H145.384C147.554 74.054 149.458 73.97 151.754 73.592L151.628 72.64C149.388 73.004 147.498 73.088 145.384 73.088H144.334ZM144.306 65.612V66.564H148.982V69.182H144.334V73.452H145.496V70.134H150.158V65.612H144.306ZM165.137 64.394V71.38H166.299V64.394H165.137ZM165.809 67.432V68.412H168.175V67.432H165.809ZM158.263 72.024V72.906H165.165V74.012H158.291V76.392H159.439V74.852H166.299V72.024H158.263ZM158.291 76.056V76.952H166.761V76.056H158.291ZM156.513 65.57V66.48H163.989V65.57H156.513ZM160.251 67.04C158.403 67.04 157.213 67.838 157.213 69.126C157.213 70.4 158.403 71.184 160.251 71.184C162.071 71.184 163.275 70.4 163.275 69.126C163.275 67.838 162.071 67.04 160.251 67.04ZM160.251 67.894C161.413 67.894 162.169 68.37 162.169 69.126C162.169 69.868 161.413 70.344 160.251 70.344C159.075 70.344 158.319 69.868 158.319 69.126C158.319 68.37 159.075 67.894 160.251 67.894ZM159.663 64.296V66.2H160.825V64.296H159.663ZM178.412 64.884V65.584C178.412 67.39 176.186 68.902 173.876 69.252L174.338 70.19C176.97 69.742 179.434 68.006 179.434 65.584V64.884H178.412ZM178.622 64.884V65.584C178.622 67.978 181.1 69.742 183.704 70.19L184.166 69.252C181.884 68.902 179.63 67.348 179.63 65.584V64.884H178.622ZM178.412 72.276V77.092H179.56V72.276H178.412ZM173.302 71.562V72.528H184.74V71.562H173.302ZM193.268 72.22V72.906C193.268 74.124 192.316 75.482 190.72 76.056L191.308 76.924C193.128 76.224 194.164 74.558 194.164 72.906V72.22H193.268ZM193.52 72.22V72.906C193.52 74.586 194.346 76.322 196.166 77.036L196.656 76.154C195.144 75.538 194.388 74.18 194.388 72.906V72.22H193.52ZM197.944 72.22V72.906C197.944 73.998 197.174 75.468 195.676 76.154L196.166 77.036C197.972 76.266 198.812 74.39 198.812 72.906V72.22H197.944ZM198.182 72.22V72.906C198.182 74.656 199.19 76.252 201.038 76.924L201.626 76.056C200.016 75.51 199.078 74.208 199.078 72.906V72.22H198.182ZM199.316 64.45V71.674H200.492V64.45H199.316ZM193.702 65.178C191.784 65.178 190.398 66.382 190.398 68.132C190.398 69.882 191.784 71.072 193.702 71.072C195.62 71.072 196.992 69.882 196.992 68.132C196.992 66.382 195.62 65.178 193.702 65.178ZM193.702 66.144C194.962 66.144 195.872 66.956 195.872 68.132C195.872 69.308 194.962 70.106 193.702 70.106C192.442 70.106 191.532 69.308 191.532 68.132C191.532 66.956 192.442 66.144 193.702 66.144ZM204.537 68.23V69.182H213.133V68.23H204.537ZM202.983 70.876V71.828H214.463V70.876H202.983ZM204.537 64.898V68.706H205.685V64.898H204.537ZM204.453 75.832V76.784H213.203V75.832H204.453ZM204.453 73.088V76.084H205.601V73.088H204.453ZM220.219 73.018V73.984H221.059C222.655 73.984 224.083 73.928 225.861 73.62L225.763 72.668C224.027 72.962 222.599 73.018 221.059 73.018H220.219ZM220.191 65.822V66.774H223.593V69.294H220.219V73.41H221.353V70.232H224.713V65.822H220.191ZM229.431 64.436V77.092H230.551V64.436H229.431ZM225.315 68.972V69.938H227.359V68.972H225.315ZM226.883 64.744V76.434H227.961V64.744H226.883ZM236.024 65.528V67.796C236.024 70.19 234.498 72.612 232.622 73.508L233.336 74.46C235.408 73.41 236.976 70.708 236.976 67.796V65.528H236.024ZM236.22 65.528V67.796C236.22 70.61 237.802 73.214 239.86 74.222L240.56 73.298C238.684 72.43 237.172 70.106 237.172 67.796V65.528H236.22ZM241.876 64.422V77.106H243.038V64.422H241.876ZM254.783 64.436V77.092H255.945V64.436H254.783ZM245.879 65.794V66.746H253.047V65.794H245.879ZM245.683 73.97C247.993 73.956 251.031 73.914 253.761 73.48L253.691 72.626C251.003 72.948 247.895 72.976 245.543 72.976L245.683 73.97ZM247.279 66.508V73.242H248.399V66.508H247.279ZM250.513 66.508V73.242H251.647V66.508H250.513ZM272.006 64.436V77.092H273.126V64.436H272.006ZM267.4 68.972V69.938H269.822V68.972H267.4ZM269.472 64.73V76.448H270.564V64.73H269.472ZM264.964 66.396V68.006C264.964 70.33 263.984 72.64 262.22 73.704L262.934 74.572C264.796 73.396 265.86 70.778 265.86 68.006V66.396H264.964ZM265.202 66.396V68.006C265.202 70.652 266.224 73.144 268.072 74.264L268.786 73.41C267.05 72.402 266.098 70.204 266.098 68.006V66.396H265.202ZM262.57 65.906V66.872H268.352V65.906H262.57ZM280.936 72.416C278.234 72.416 276.526 73.298 276.526 74.754C276.526 76.196 278.234 77.064 280.936 77.064C283.624 77.064 285.346 76.196 285.346 74.754C285.346 73.298 283.624 72.416 280.936 72.416ZM280.936 73.326C282.924 73.326 284.184 73.872 284.184 74.754C284.184 75.622 282.924 76.168 280.936 76.168C278.948 76.168 277.674 75.622 277.674 74.754C277.674 73.872 278.948 73.326 280.936 73.326ZM276.624 65.066V66.018H284.772V65.066H276.624ZM275.266 70.33V71.268H286.69V70.33H275.266ZM279.956 67.894V70.596H281.104V67.894H279.956ZM284.1 65.066V66.144C284.1 67.138 284.1 68.062 283.75 69.364L284.898 69.504C285.234 68.188 285.234 67.166 285.234 66.144V65.066H284.1Z" fill="black"/>
<path d="M33.6619 55V52.2621L44.5497 36.9851H33.6406V33.1818H50.3452V35.9197L39.4467 51.1967H50.3665V55H33.6619ZM53.6717 55V52.2621L64.5595 36.9851H53.6504V33.1818H70.3549V35.9197L59.4565 51.1967H70.3762V55H53.6717ZM78.5288 33.1818V55H73.9158V33.1818H78.5288ZM82.324 55V33.1818H86.937V42.8018H87.2246L95.0762 33.1818H100.605L92.5087 42.951L100.701 55H95.1827L89.2061 46.0298L86.937 48.7997V55H82.324ZM103.008 33.1818H108.697L114.705 47.8409H114.961L120.969 33.1818H126.658V55H122.184V40.799H122.003L116.356 54.8935H113.309L107.663 40.7457H107.482V55H103.008V33.1818ZM143.935 33.1818H148.548V47.3509C148.548 48.9418 148.168 50.3338 147.408 51.527C146.656 52.7202 145.601 53.6506 144.244 54.3182C142.888 54.9787 141.308 55.3089 139.504 55.3089C137.692 55.3089 136.109 54.9787 134.752 54.3182C133.396 53.6506 132.341 52.7202 131.588 51.527C130.835 50.3338 130.459 48.9418 130.459 47.3509V33.1818H135.072V46.9567C135.072 47.7876 135.253 48.5263 135.615 49.1726C135.984 49.8189 136.503 50.3267 137.17 50.696C137.838 51.0653 138.616 51.25 139.504 51.25C140.398 51.25 141.176 51.0653 141.837 50.696C142.504 50.3267 143.019 49.8189 143.381 49.1726C143.751 48.5263 143.935 47.7876 143.935 46.9567V33.1818ZM152.344 55V33.1818H156.956V42.8018H157.244L165.096 33.1818H170.625L162.528 42.951L170.721 55H165.202L159.226 46.0298L156.956 48.7997V55H152.344Z" fill="black"/>
<path d="M39.14 391.032V392.136C39.14 394.104 37.652 395.896 35.476 396.6L36.148 397.656C38.58 396.824 40.244 394.68 40.244 392.136V391.032H39.14ZM39.396 391.032V392.136C39.396 394.584 41.092 396.616 43.492 397.4L44.148 396.36C42.02 395.688 40.5 394.008 40.5 392.136V391.032H39.396ZM35.844 390.728V391.8H43.764V390.728H35.844ZM45.812 389.784V397.608H47.156V389.784H45.812ZM37.828 398.328V404.056H47.156V398.328H45.844V400.04H39.14V398.328H37.828ZM39.14 401.112H45.844V402.968H39.14V401.112ZM50.0188 395.816V396.904H63.0908V395.816H50.0188ZM51.7468 393.576V394.648H61.5388V393.576H51.7468ZM51.7468 390.248V394.44H53.0588V391.336H61.3788V390.248H51.7468ZM51.5868 398.152V399.192H60.0988V400.568H51.6188V403.384H52.9308V401.56H61.4108V398.152H51.5868ZM51.6188 403.032V404.088H61.8428V403.032H51.6188ZM75.2335 389.768V404.264H76.5615V389.768H75.2335ZM68.9295 390.888C66.8015 390.888 65.2655 392.856 65.2655 395.928C65.2655 399.016 66.8015 400.984 68.9295 400.984C71.0735 400.984 72.6095 399.016 72.6095 395.928C72.6095 392.856 71.0735 390.888 68.9295 390.888ZM68.9295 392.088C70.3535 392.088 71.3295 393.592 71.3295 395.928C71.3295 398.28 70.3535 399.816 68.9295 399.816C67.5215 399.816 66.5295 398.28 66.5295 395.928C66.5295 393.592 67.5215 392.088 68.9295 392.088ZM85.6363 402.84V403.928H95.5723V402.84H85.6363ZM85.6363 399.784V403.224H86.9643V399.784H85.6363ZM83.9403 397.544V398.632H97.0603V397.544H83.9403ZM89.8123 395.112V397.944H91.1243V395.112H89.8123ZM89.7963 390.152V390.808C89.7963 392.824 87.3643 394.568 84.7883 394.984L85.3163 396.04C88.2283 395.48 90.9483 393.496 90.9483 390.808V390.152H89.7963ZM90.0043 390.152V390.808C90.0043 393.496 92.7403 395.464 95.6203 396.04L96.1483 394.984C93.6043 394.568 91.1403 392.824 91.1403 390.808V390.152H90.0043ZM109.187 389.784V397.976H110.515V389.784H109.187ZM99.571 390.616V396.504H100.883V390.616H99.571ZM99.571 395.768V396.888H100.739C103.235 396.888 105.411 396.728 107.811 396.216L107.619 395.128C105.315 395.608 103.155 395.768 100.739 395.768H99.571ZM101.171 398.68V404.056H110.515V398.68H101.171ZM109.219 399.736V402.968H102.467V399.736H109.219ZM119.25 395.4V396.504H121.986V395.4H119.25ZM124.402 389.784V404.248H125.682V389.784H124.402ZM121.538 390.088V403.528H122.802V390.088H121.538ZM116.642 390.984C114.77 390.984 113.57 392.92 113.57 396.024C113.57 399.128 114.77 401.064 116.642 401.064C118.514 401.064 119.73 399.128 119.73 396.024C119.73 392.92 118.514 390.984 116.642 390.984ZM116.642 392.216C117.794 392.216 118.514 393.688 118.514 396.024C118.514 398.36 117.794 399.832 116.642 399.832C115.506 399.832 114.786 398.36 114.786 396.024C114.786 393.688 115.506 392.216 116.642 392.216ZM139.121 389.784V404.248H140.401V389.784H139.121ZM132.849 395.688V396.76H136.497V395.688H132.849ZM136.113 390.152V403.512H137.361V390.152H136.113ZM133.025 391.608V391.848C133.025 395.256 131.505 398.136 128.097 400.184L128.881 401.128C132.785 398.808 134.305 395.4 134.305 391.608H133.025ZM128.737 391.608V392.696H133.521V391.608H128.737ZM153.859 390.104C150.723 390.104 148.771 391.128 148.771 392.84C148.771 394.552 150.723 395.56 153.859 395.56C156.979 395.56 158.947 394.552 158.947 392.84C158.947 391.128 156.979 390.104 153.859 390.104ZM153.859 391.16C156.147 391.16 157.587 391.768 157.587 392.84C157.587 393.896 156.147 394.52 153.859 394.52C151.555 394.52 150.131 393.896 150.131 392.84C150.131 391.768 151.555 391.16 153.859 391.16ZM148.915 399.288V404.056H158.787V399.288H148.915ZM157.491 400.36V402.984H150.227V400.36H157.491ZM147.315 396.808V397.88H160.387V396.808H147.315ZM165.81 390.472V391.88C165.81 394.04 164.354 396.04 162.162 396.84L162.834 397.896C165.282 396.968 166.914 394.616 166.914 391.88V390.472H165.81ZM166.05 390.472V391.88C166.05 394.536 167.682 396.744 170.098 397.624L170.77 396.584C168.626 395.832 167.138 393.96 167.138 391.88V390.472H166.05ZM164.242 399.224V400.312H172.562V404.248H173.906V399.224H164.242ZM172.562 389.784V398.488H173.906V389.784H172.562ZM183.297 390.024C180.097 390.024 178.209 390.92 178.209 392.536C178.209 394.152 180.097 395.048 183.297 395.048C186.481 395.048 188.385 394.152 188.385 392.536C188.385 390.92 186.481 390.024 183.297 390.024ZM183.297 391.032C185.649 391.032 187.009 391.576 187.009 392.536C187.009 393.496 185.649 394.04 183.297 394.04C180.929 394.04 179.569 393.496 179.569 392.536C179.569 391.576 180.929 391.032 183.297 391.032ZM176.753 396.008V397.08H189.825V396.008H176.753ZM178.337 398.312V399.336H186.849V400.616H178.369V403.336H179.681V401.576H188.161V398.312H178.337ZM178.369 403.048V404.088H188.593V403.048H178.369ZM206.98 389.784V404.248H208.26V389.784H206.98ZM204.532 395.576V396.68H207.316V395.576H204.532ZM203.7 390.104V403.512H204.948V390.104H203.7ZM196.5 399.576V400.68H197.444C199.62 400.68 201.076 400.616 202.804 400.248L202.676 399.144C200.996 399.496 199.556 399.576 197.444 399.576H196.5ZM196.5 391.544V400.072H197.812V392.632H201.876V391.544H196.5ZM218.418 393.288V394.376H221.634V393.288H218.418ZM221.266 389.784V397.64H222.594V389.784H221.266ZM213.33 398.344V404.056H222.594V398.344H221.282V400.104H214.642V398.344H213.33ZM214.642 401.176H221.282V402.968H214.642V401.176ZM214.386 390.92V392.104C214.386 394.152 212.898 396.072 210.738 396.824L211.426 397.896C213.842 397 215.474 394.728 215.474 392.104V390.92H214.386ZM214.642 390.92V392.088C214.642 394.52 216.194 396.696 218.546 397.544L219.218 396.504C217.122 395.768 215.714 393.96 215.714 392.088V390.92H214.642ZM211.154 390.648V391.72H218.882V390.648H211.154ZM235.217 389.784V404.248H236.545V389.784H235.217ZM236.225 395.72V396.84H238.913V395.72H236.225ZM225.345 392.088V393.176H233.873V392.088H225.345ZM229.665 394.376C227.633 394.376 226.145 395.752 226.145 397.704C226.145 399.656 227.633 401.032 229.665 401.032C231.713 401.032 233.185 399.656 233.185 397.704C233.185 395.752 231.713 394.376 229.665 394.376ZM229.665 395.48C230.977 395.48 231.921 396.392 231.921 397.704C231.921 399 230.977 399.928 229.665 399.928C228.353 399.928 227.409 399 227.409 397.704C227.409 396.392 228.353 395.48 229.665 395.48ZM228.977 389.96V392.584H230.305V389.96H228.977ZM241.52 391.224V392.328H250.832V391.224H241.52ZM240.144 401.128V402.232H253.216V401.128H240.144ZM245.216 395.96V401.672H246.544V395.96H245.216ZM250.336 391.224V392.664C250.336 394.392 250.336 396.424 249.792 399.192L251.12 399.368C251.648 396.44 251.648 394.456 251.648 392.664V391.224H250.336ZM269.875 389.8V397.816H271.219V389.8H269.875ZM263.123 390.312V391.72C263.123 393.8 261.619 395.72 259.443 396.488L260.115 397.528C262.562 396.648 264.227 394.392 264.227 391.72V390.312H263.123ZM263.363 390.312V391.72C263.363 394.312 265.027 396.44 267.459 397.272L268.115 396.216C265.971 395.512 264.451 393.736 264.451 391.72V390.312H263.363ZM261.651 398.68V399.768H271.299V398.68H261.651ZM261.507 402.984V404.056H271.459V402.984H261.507ZM263.635 399.144V403.608H264.931V399.144H263.635ZM268.019 399.144V403.608H269.331V399.144H268.019ZM274.065 397.384V398.472H287.137V397.384H274.065ZM275.761 402.84V403.928H285.697V402.84H275.761ZM275.761 399.736V403.176H277.089V399.736H275.761ZM280.609 390.264C277.505 390.264 275.521 391.352 275.521 393.16C275.521 394.952 277.505 396.04 280.609 396.04C283.697 396.04 285.697 394.952 285.697 393.16C285.697 391.352 283.697 390.264 280.609 390.264ZM280.609 391.352C282.881 391.352 284.337 392.024 284.337 393.16C284.337 394.296 282.881 394.968 280.609 394.968C278.337 394.968 276.881 394.296 276.881 393.16C276.881 392.024 278.337 391.352 280.609 391.352ZM196.281 408.8V419.392H197.625V408.8H196.281ZM188.329 421.84V422.928H198.057V421.84H188.329ZM188.329 418.416V422.352H189.641V418.416H188.329ZM189.529 409.584V411.056C189.529 413.296 188.089 415.408 185.913 416.256L186.601 417.328C189.033 416.336 190.633 413.872 190.633 411.056V409.584H189.529ZM189.769 409.584V411.056C189.769 413.808 191.369 416.128 193.769 417.056L194.473 415.984C192.313 415.2 190.857 413.232 190.857 411.056V409.584H189.769ZM200.472 417.312V418.384H213.544V417.312H200.472ZM206.36 415.776V417.792H207.672V415.776H206.36ZM202.168 421.872V422.928H212.104V421.872H202.168ZM202.168 419.328V422.448H203.496V419.328H202.168ZM201.16 410.112V411.152H212.792V410.112H201.16ZM207.016 411.776C204.056 411.776 202.344 412.544 202.344 413.984C202.344 415.408 204.056 416.176 207.016 416.176C209.976 416.176 211.688 415.408 211.688 413.984C211.688 412.544 209.976 411.776 207.016 411.776ZM207.016 412.752C209.144 412.752 210.344 413.184 210.344 413.984C210.344 414.768 209.144 415.2 207.016 415.2C204.872 415.2 203.688 414.768 203.688 413.984C203.688 413.184 204.872 412.752 207.016 412.752ZM206.36 408.624V410.688H207.672V408.624H206.36ZM215.19 417.344V418.432H228.31V417.344H215.19ZM221.046 417.856V423.248H222.358V417.856H221.046ZM216.838 409.36V415.616H226.63V409.36H225.318V411.344H218.166V409.36H216.838ZM218.166 412.416H225.318V414.544H218.166V412.416ZM229.909 417.344V418.432H243.029V417.344H229.909ZM235.765 417.856V423.248H237.077V417.856H235.765ZM231.557 409.36V415.616H241.349V409.36H240.037V411.344H232.885V409.36H231.557ZM232.885 412.416H240.037V414.544H232.885V412.416ZM244.644 414.816V415.904H257.716V414.816H244.644ZM246.372 412.576V413.648H256.164V412.576H246.372ZM246.372 409.248V413.44H247.684V410.336H256.004V409.248H246.372ZM246.212 417.152V418.192H254.724V419.568H246.244V422.384H247.556V420.56H256.036V417.152H246.212ZM246.244 422.032V423.088H256.468V422.032H246.244ZM265.219 414.4V415.504H267.955V414.4H265.219ZM270.371 408.784V423.248H271.651V408.784H270.371ZM267.507 409.088V422.528H268.771V409.088H267.507ZM262.611 409.984C260.739 409.984 259.539 411.92 259.539 415.024C259.539 418.128 260.739 420.064 262.611 420.064C264.483 420.064 265.699 418.128 265.699 415.024C265.699 411.92 264.483 409.984 262.611 409.984ZM262.611 411.216C263.763 411.216 264.483 412.688 264.483 415.024C264.483 417.36 263.763 418.832 262.611 418.832C261.475 418.832 260.755 417.36 260.755 415.024C260.755 412.688 261.475 411.216 262.611 411.216ZM285.089 408.784V423.248H286.369V408.784H285.089ZM278.817 414.688V415.76H282.465V414.688H278.817ZM282.081 409.152V422.512H283.329V409.152H282.081ZM278.993 410.608V410.848C278.993 414.256 277.473 417.136 274.065 419.184L274.849 420.128C278.753 417.808 280.273 414.4 280.273 410.608H278.993ZM274.705 410.608V411.696H279.489V410.608H274.705Z" fill="black"/>
</svg>
