<svg width="320" height="500" viewBox="0 0 320 500" fill="none" xmlns="http://www.w3.org/2000/svg">
<rect width="320" height="500" rx="4" fill="white"/>
<path d="M42.374 64.436V77.092H43.48V64.436H42.374ZM40.372 69.532V70.512H42.808V69.532H40.372ZM39.616 64.702V76.462H40.708V64.702H39.616ZM35.304 66.396V67.852C35.304 70.428 34.38 72.584 32.56 73.592L33.274 74.488C35.22 73.326 36.214 70.89 36.214 67.852V66.396H35.304ZM35.514 66.396V67.852C35.514 70.638 36.522 72.976 38.454 74.04L39.14 73.144C37.362 72.234 36.424 70.176 36.424 67.852V66.396H35.514ZM32.854 65.92V66.886H38.734V65.92H32.854ZM48.7709 71.856V74.964H49.9189V71.856H48.7709ZM52.8169 71.828V74.95H53.9509V71.828H52.8169ZM45.5789 74.572V75.538H57.0449V74.572H45.5789ZM46.9649 65.374V66.312H54.4829V68.272H47.0069V71.744H48.1549V69.196H55.6309V65.374H46.9649ZM47.0069 71.226V72.178H55.9249V71.226H47.0069ZM58.4438 70.316V71.198H69.9238V70.316H58.4438ZM59.8018 72.22V73.046H67.3478V74.124H59.8438V76.406H60.9918V74.922H68.4818V72.22H59.8018ZM59.8438 76.098V76.938H68.8878V76.098H59.8438ZM59.8998 64.8V65.626H67.3058V66.648H59.9278V68.804H61.0758V67.432H68.4398V64.8H59.8998ZM59.9278 68.524V69.364H68.6778V68.524H59.9278ZM83.8282 64.436V77.092H85.0042V64.436H83.8282ZM84.7242 69.406V70.4H87.0762V69.406H84.7242ZM75.7642 65.5V74.054H81.6722V65.5H80.5242V68.846H76.9122V65.5H75.7642ZM76.9122 69.77H80.5242V73.102H76.9122V69.77ZM96.8051 64.436V72.22H97.9671V64.436H96.8051ZM97.6451 67.698V68.678H99.8431V67.698H97.6451ZM93.9491 72.528C91.3591 72.528 89.7911 73.368 89.7911 74.81C89.7911 76.252 91.3591 77.064 93.9491 77.064C96.5391 77.064 98.1071 76.252 98.1071 74.81C98.1071 73.368 96.5391 72.528 93.9491 72.528ZM93.9491 73.438C95.8391 73.438 96.9731 73.942 96.9731 74.81C96.9731 75.664 95.8391 76.168 93.9491 76.168C92.0731 76.168 90.9391 75.664 90.9391 74.81C90.9391 73.942 92.0731 73.438 93.9491 73.438ZM88.7271 70.428V71.366H89.6931C92.2691 71.366 93.7251 71.31 95.4611 71.002L95.3351 70.064C93.6411 70.372 92.2271 70.428 89.6931 70.428H88.7271ZM88.7271 65.318V70.876H89.8751V66.27H94.5091V65.318H88.7271ZM89.5111 67.838V68.762H94.2711V67.838H89.5111ZM106.744 65.234C104.112 65.234 102.138 66.634 102.138 68.734C102.138 70.848 104.112 72.234 106.744 72.234C109.376 72.234 111.336 70.848 111.336 68.734C111.336 66.634 109.376 65.234 106.744 65.234ZM106.744 66.186C108.746 66.186 110.23 67.208 110.23 68.734C110.23 70.246 108.746 71.282 106.744 71.282C104.742 71.282 103.258 70.246 103.258 68.734C103.258 67.208 104.742 66.186 106.744 66.186ZM101.032 74.446V75.426H112.498V74.446H101.032ZM113.911 74.572V75.538H125.377V74.572H113.911ZM119.035 71.856V74.978H120.197V71.856H119.035ZM115.297 65.374V66.312H122.815V68.272H115.339V71.744H116.487V69.21H123.963V65.374H115.297ZM115.339 71.254V72.206H124.257V71.254H115.339ZM133.527 70.946V74.74H134.675V70.946H133.527ZM138.203 70.946V74.74H139.365V70.946H138.203ZM130.727 74.516V75.482H142.193V74.516H130.727ZM136.439 65.234C133.751 65.234 131.833 66.508 131.833 68.496C131.833 70.47 133.751 71.744 136.439 71.744C139.113 71.744 141.031 70.47 141.031 68.496C141.031 66.508 139.113 65.234 136.439 65.234ZM136.439 66.158C138.469 66.158 139.911 67.082 139.911 68.496C139.911 69.896 138.469 70.82 136.439 70.82C134.409 70.82 132.953 69.896 132.953 68.496C132.953 67.082 134.409 66.158 136.439 66.158ZM152.818 64.422V77.106H153.98V64.422H152.818ZM144.334 73.088V74.054H145.384C147.554 74.054 149.458 73.97 151.754 73.592L151.628 72.64C149.388 73.004 147.498 73.088 145.384 73.088H144.334ZM144.306 65.612V66.564H148.982V69.182H144.334V73.452H145.496V70.134H150.158V65.612H144.306ZM165.137 64.394V71.38H166.299V64.394H165.137ZM165.809 67.432V68.412H168.175V67.432H165.809ZM158.263 72.024V72.906H165.165V74.012H158.291V76.392H159.439V74.852H166.299V72.024H158.263ZM158.291 76.056V76.952H166.761V76.056H158.291ZM156.513 65.57V66.48H163.989V65.57H156.513ZM160.251 67.04C158.403 67.04 157.213 67.838 157.213 69.126C157.213 70.4 158.403 71.184 160.251 71.184C162.071 71.184 163.275 70.4 163.275 69.126C163.275 67.838 162.071 67.04 160.251 67.04ZM160.251 67.894C161.413 67.894 162.169 68.37 162.169 69.126C162.169 69.868 161.413 70.344 160.251 70.344C159.075 70.344 158.319 69.868 158.319 69.126C158.319 68.37 159.075 67.894 160.251 67.894ZM159.663 64.296V66.2H160.825V64.296H159.663ZM178.412 64.884V65.584C178.412 67.39 176.186 68.902 173.876 69.252L174.338 70.19C176.97 69.742 179.434 68.006 179.434 65.584V64.884H178.412ZM178.622 64.884V65.584C178.622 67.978 181.1 69.742 183.704 70.19L184.166 69.252C181.884 68.902 179.63 67.348 179.63 65.584V64.884H178.622ZM178.412 72.276V77.092H179.56V72.276H178.412ZM173.302 71.562V72.528H184.74V71.562H173.302ZM193.268 72.22V72.906C193.268 74.124 192.316 75.482 190.72 76.056L191.308 76.924C193.128 76.224 194.164 74.558 194.164 72.906V72.22H193.268ZM193.52 72.22V72.906C193.52 74.586 194.346 76.322 196.166 77.036L196.656 76.154C195.144 75.538 194.388 74.18 194.388 72.906V72.22H193.52ZM197.944 72.22V72.906C197.944 73.998 197.174 75.468 195.676 76.154L196.166 77.036C197.972 76.266 198.812 74.39 198.812 72.906V72.22H197.944ZM198.182 72.22V72.906C198.182 74.656 199.19 76.252 201.038 76.924L201.626 76.056C200.016 75.51 199.078 74.208 199.078 72.906V72.22H198.182ZM199.316 64.45V71.674H200.492V64.45H199.316ZM193.702 65.178C191.784 65.178 190.398 66.382 190.398 68.132C190.398 69.882 191.784 71.072 193.702 71.072C195.62 71.072 196.992 69.882 196.992 68.132C196.992 66.382 195.62 65.178 193.702 65.178ZM193.702 66.144C194.962 66.144 195.872 66.956 195.872 68.132C195.872 69.308 194.962 70.106 193.702 70.106C192.442 70.106 191.532 69.308 191.532 68.132C191.532 66.956 192.442 66.144 193.702 66.144ZM204.537 68.23V69.182H213.133V68.23H204.537ZM202.983 70.876V71.828H214.463V70.876H202.983ZM204.537 64.898V68.706H205.685V64.898H204.537ZM204.453 75.832V76.784H213.203V75.832H204.453ZM204.453 73.088V76.084H205.601V73.088H204.453ZM220.219 73.018V73.984H221.059C222.655 73.984 224.083 73.928 225.861 73.62L225.763 72.668C224.027 72.962 222.599 73.018 221.059 73.018H220.219ZM220.191 65.822V66.774H223.593V69.294H220.219V73.41H221.353V70.232H224.713V65.822H220.191ZM229.431 64.436V77.092H230.551V64.436H229.431ZM225.315 68.972V69.938H227.359V68.972H225.315ZM226.883 64.744V76.434H227.961V64.744H226.883ZM236.024 65.528V67.796C236.024 70.19 234.498 72.612 232.622 73.508L233.336 74.46C235.408 73.41 236.976 70.708 236.976 67.796V65.528H236.024ZM236.22 65.528V67.796C236.22 70.61 237.802 73.214 239.86 74.222L240.56 73.298C238.684 72.43 237.172 70.106 237.172 67.796V65.528H236.22ZM241.876 64.422V77.106H243.038V64.422H241.876ZM254.783 64.436V77.092H255.945V64.436H254.783ZM245.879 65.794V66.746H253.047V65.794H245.879ZM245.683 73.97C247.993 73.956 251.031 73.914 253.761 73.48L253.691 72.626C251.003 72.948 247.895 72.976 245.543 72.976L245.683 73.97ZM247.279 66.508V73.242H248.399V66.508H247.279ZM250.513 66.508V73.242H251.647V66.508H250.513ZM272.006 64.436V77.092H273.126V64.436H272.006ZM267.4 68.972V69.938H269.822V68.972H267.4ZM269.472 64.73V76.448H270.564V64.73H269.472ZM264.964 66.396V68.006C264.964 70.33 263.984 72.64 262.22 73.704L262.934 74.572C264.796 73.396 265.86 70.778 265.86 68.006V66.396H264.964ZM265.202 66.396V68.006C265.202 70.652 266.224 73.144 268.072 74.264L268.786 73.41C267.05 72.402 266.098 70.204 266.098 68.006V66.396H265.202ZM262.57 65.906V66.872H268.352V65.906H262.57ZM280.936 72.416C278.234 72.416 276.526 73.298 276.526 74.754C276.526 76.196 278.234 77.064 280.936 77.064C283.624 77.064 285.346 76.196 285.346 74.754C285.346 73.298 283.624 72.416 280.936 72.416ZM280.936 73.326C282.924 73.326 284.184 73.872 284.184 74.754C284.184 75.622 282.924 76.168 280.936 76.168C278.948 76.168 277.674 75.622 277.674 74.754C277.674 73.872 278.948 73.326 280.936 73.326ZM276.624 65.066V66.018H284.772V65.066H276.624ZM275.266 70.33V71.268H286.69V70.33H275.266ZM279.956 67.894V70.596H281.104V67.894H279.956ZM284.1 65.066V66.144C284.1 67.138 284.1 68.062 283.75 69.364L284.898 69.504C285.234 68.188 285.234 67.166 285.234 66.144V65.066H284.1Z" fill="black"/>
<path d="M33.6619 55V52.2621L44.5497 36.9851H33.6406V33.1818H50.3452V35.9197L39.4467 51.1967H50.3665V55H33.6619ZM53.6717 55V52.2621L64.5595 36.9851H53.6504V33.1818H70.3549V35.9197L59.4565 51.1967H70.3762V55H53.6717ZM78.5288 33.1818V55H73.9158V33.1818H78.5288ZM82.324 55V33.1818H86.937V42.8018H87.2246L95.0762 33.1818H100.605L92.5087 42.951L100.701 55H95.1827L89.2061 46.0298L86.937 48.7997V55H82.324ZM103.008 33.1818H108.697L114.705 47.8409H114.961L120.969 33.1818H126.658V55H122.184V40.799H122.003L116.356 54.8935H113.309L107.663 40.7457H107.482V55H103.008V33.1818ZM143.935 33.1818H148.548V47.3509C148.548 48.9418 148.168 50.3338 147.408 51.527C146.656 52.7202 145.601 53.6506 144.244 54.3182C142.888 54.9787 141.308 55.3089 139.504 55.3089C137.692 55.3089 136.109 54.9787 134.752 54.3182C133.396 53.6506 132.341 52.7202 131.588 51.527C130.835 50.3338 130.459 48.9418 130.459 47.3509V33.1818H135.072V46.9567C135.072 47.7876 135.253 48.5263 135.615 49.1726C135.984 49.8189 136.503 50.3267 137.17 50.696C137.838 51.0653 138.616 51.25 139.504 51.25C140.398 51.25 141.176 51.0653 141.837 50.696C142.504 50.3267 143.019 49.8189 143.381 49.1726C143.751 48.5263 143.935 47.7876 143.935 46.9567V33.1818ZM152.344 55V33.1818H156.956V42.8018H157.244L165.096 33.1818H170.625L162.528 42.951L170.721 55H165.202L159.226 46.0298L156.956 48.7997V55H152.344Z" fill="black"/>
<path d="M34.928 399.176V400.264H43.472V404.248H44.816V399.176H34.928ZM43.472 389.784V398.44H44.816V389.784H43.472ZM34.992 391.416V392.696C34.992 394.072 34.336 395.96 32.704 396.84L33.408 397.816C35.28 396.792 35.968 394.504 35.968 392.696V391.416H34.992ZM35.312 391.416V392.696C35.312 394.296 35.792 396.824 37.68 397.944L38.288 396.952C36.688 395.928 36.256 393.928 36.256 392.696V391.416H35.312ZM39.12 391.416V392.696C39.12 393.992 38.688 395.96 37.088 396.952L37.68 397.944C39.584 396.856 40.064 394.392 40.064 392.696V391.416H39.12ZM39.408 391.416V392.696C39.408 394.568 40.096 396.808 41.984 397.816L42.688 396.84C41.04 395.976 40.4 394.12 40.4 392.696V391.416H39.408ZM33.184 390.872V391.944H37.344V390.872H33.184ZM38.032 390.872V391.944H42.112V390.872H38.032ZM49.7588 399.128V400.184H58.0788V404.264H59.4068V399.128H49.7588ZM58.0788 389.784V398.312H59.4068V389.784H58.0788ZM54.5268 393.4V394.504H58.4788V393.4H54.5268ZM48.1748 390.872V397.336H54.7828V390.872H48.1748ZM53.4708 391.928V396.28H49.4708V391.928H53.4708ZM68.7655 390.024C65.5655 390.024 63.6775 390.92 63.6775 392.536C63.6775 394.152 65.5655 395.048 68.7655 395.048C71.9495 395.048 73.8535 394.152 73.8535 392.536C73.8535 390.92 71.9495 390.024 68.7655 390.024ZM68.7655 391.032C71.1175 391.032 72.4775 391.576 72.4775 392.536C72.4775 393.496 71.1175 394.04 68.7655 394.04C66.3975 394.04 65.0375 393.496 65.0375 392.536C65.0375 391.576 66.3975 391.032 68.7655 391.032ZM62.2215 396.008V397.08H75.2935V396.008H62.2215ZM63.8055 398.312V399.336H72.3175V400.616H63.8375V403.336H65.1495V401.576H73.6295V398.312H63.8055ZM63.8375 403.048V404.088H74.0615V403.048H63.8375ZM91.9523 389.768V404.264H93.2803V389.768H91.9523ZM85.6483 390.888C83.5203 390.888 81.9843 392.856 81.9843 395.928C81.9843 399.016 83.5203 400.984 85.6483 400.984C87.7923 400.984 89.3283 399.016 89.3283 395.928C89.3283 392.856 87.7923 390.888 85.6483 390.888ZM85.6483 392.088C87.0723 392.088 88.0483 393.592 88.0483 395.928C88.0483 398.28 87.0723 399.816 85.6483 399.816C84.2403 399.816 83.2483 398.28 83.2483 395.928C83.2483 393.592 84.2403 392.088 85.6483 392.088ZM99.391 394.68V397.416H100.703V394.68H99.391ZM104.703 394.68V397.416H106.015V394.68H104.703ZM96.159 396.936V398.008H109.231V396.936H96.159ZM102.687 399.096C99.583 399.096 97.727 400.008 97.727 401.656C97.727 403.304 99.583 404.232 102.687 404.232C105.791 404.232 107.647 403.304 107.647 401.656C107.647 400.008 105.791 399.096 102.687 399.096ZM102.687 400.12C104.959 400.12 106.303 400.68 106.303 401.656C106.303 402.648 104.959 403.192 102.687 403.192C100.431 403.192 99.071 402.648 99.071 401.656C99.071 400.68 100.431 400.12 102.687 400.12ZM102.703 390.04C99.551 390.04 97.615 391.048 97.615 392.744C97.615 394.424 99.551 395.416 102.703 395.416C105.839 395.416 107.791 394.424 107.791 392.744C107.791 391.048 105.839 390.04 102.703 390.04ZM102.703 391.08C105.007 391.08 106.431 391.688 106.431 392.744C106.431 393.784 105.007 394.392 102.703 394.392C100.399 394.392 98.975 393.784 98.975 392.744C98.975 391.688 100.399 391.08 102.703 391.08ZM110.862 392.248V393.336H118.03V392.248H110.862ZM114.446 394.296C112.654 394.296 111.342 395.656 111.342 397.608C111.342 399.544 112.654 400.904 114.446 400.904C116.254 400.904 117.566 399.544 117.566 397.608C117.566 395.656 116.254 394.296 114.446 394.296ZM114.446 395.432C115.566 395.432 116.382 396.328 116.382 397.608C116.382 398.888 115.566 399.784 114.446 399.784C113.342 399.784 112.542 398.888 112.542 397.608C112.542 396.328 113.342 395.432 114.446 395.432ZM121.854 389.784V404.248H123.134V389.784H121.854ZM119.55 395.864V396.968H122.286V395.864H119.55ZM118.766 390.104V403.544H120.014V390.104H118.766ZM113.806 390.2V392.92H115.118V390.2H113.806ZM131.793 402.84V403.928H141.729V402.84H131.793ZM131.793 399.784V403.224H133.121V399.784H131.793ZM130.097 397.544V398.632H143.217V397.544H130.097ZM135.969 395.112V397.944H137.281V395.112H135.969ZM135.953 390.152V390.808C135.953 392.824 133.521 394.568 130.945 394.984L131.473 396.04C134.385 395.48 137.105 393.496 137.105 390.808V390.152H135.953ZM136.161 390.152V390.808C136.161 393.496 138.897 395.464 141.777 396.04L142.305 394.984C139.761 394.568 137.297 392.824 137.297 390.808V390.152H136.161ZM149.167 396.504V399.224H150.479V396.504H149.167ZM147.087 398.808V404.056H156.591V398.808H155.279V400.36H148.415V398.808H147.087ZM148.415 401.4H155.279V402.984H148.415V401.4ZM155.263 389.784V398.088H156.591V389.784H155.263ZM145.023 397.208C147.663 397.208 151.167 397.192 154.399 396.648L154.303 395.688C151.151 396.104 147.551 396.12 144.847 396.12L145.023 397.208ZM148.991 390.136V390.856C148.991 392.376 147.583 393.688 145.471 394.2L146.063 395.208C148.479 394.6 150.063 392.952 150.063 390.856V390.136H148.991ZM149.279 390.136V390.856C149.279 392.888 150.895 394.44 153.295 395L153.855 393.976C151.791 393.544 150.367 392.328 150.367 390.856V390.136H149.279ZM170.558 389.784V404.248H171.838V389.784H170.558ZM164.286 395.688V396.76H167.934V395.688H164.286ZM167.55 390.152V403.512H168.798V390.152H167.55ZM164.462 391.608V391.848C164.462 395.256 162.942 398.136 159.534 400.184L160.318 401.128C164.222 398.808 165.742 395.4 165.742 391.608H164.462ZM160.174 391.608V392.696H164.958V391.608H160.174ZM179.361 390.888V397.304H185.873V390.888H179.361ZM184.561 391.96V396.232H180.657V391.96H184.561ZM188.657 389.784V399.384H189.985V389.784H188.657ZM189.617 393.736V394.824H192.129V393.736H189.617ZM184.961 398.696V399.144C184.961 401.192 182.721 402.728 180.129 403.144L180.657 404.2C183.569 403.656 186.097 401.848 186.097 399.144V398.696H184.961ZM185.137 398.696V399.144C185.137 401.848 187.665 403.656 190.577 404.2L191.089 403.144C188.529 402.728 186.273 401.192 186.273 399.144V398.696H185.137ZM197.088 398.68V399.464C197.088 400.856 196 402.408 194.176 403.064L194.848 404.056C196.928 403.256 198.112 401.352 198.112 399.464V398.68H197.088ZM197.376 398.68V399.464C197.376 401.384 198.32 403.368 200.4 404.184L200.96 403.176C199.232 402.472 198.368 400.92 198.368 399.464V398.68H197.376ZM202.432 398.68V399.464C202.432 400.712 201.552 402.392 199.84 403.176L200.4 404.184C202.464 403.304 203.424 401.16 203.424 399.464V398.68H202.432ZM202.704 398.68V399.464C202.704 401.464 203.856 403.288 205.968 404.056L206.64 403.064C204.8 402.44 203.728 400.952 203.728 399.464V398.68H202.704ZM204 389.8V398.056H205.344V389.8H204ZM197.584 390.632C195.392 390.632 193.808 392.008 193.808 394.008C193.808 396.008 195.392 397.368 197.584 397.368C199.776 397.368 201.344 396.008 201.344 394.008C201.344 392.008 199.776 390.632 197.584 390.632ZM197.584 391.736C199.024 391.736 200.064 392.664 200.064 394.008C200.064 395.352 199.024 396.264 197.584 396.264C196.144 396.264 195.104 395.352 195.104 394.008C195.104 392.664 196.144 391.736 197.584 391.736ZM209.966 394.12V395.208H219.79V394.12H209.966ZM208.19 397.144V398.232H221.31V397.144H208.19ZM209.966 390.312V394.664H211.278V390.312H209.966ZM209.87 402.808V403.896H219.87V402.808H209.87ZM209.87 399.672V403.096H211.182V399.672H209.87ZM230.625 397.224V401.56H231.937V397.224H230.625ZM235.969 397.224V401.56H237.297V397.224H235.969ZM227.425 401.304V402.408H240.529V401.304H227.425ZM233.953 390.696C230.881 390.696 228.689 392.152 228.689 394.424C228.689 396.68 230.881 398.136 233.953 398.136C237.009 398.136 239.201 396.68 239.201 394.424C239.201 392.152 237.009 390.696 233.953 390.696ZM233.953 391.752C236.273 391.752 237.921 392.808 237.921 394.424C237.921 396.024 236.273 397.08 233.953 397.08C231.633 397.08 229.969 396.024 229.969 394.424C229.969 392.808 231.633 391.752 233.953 391.752ZM252.672 389.768V404.264H254V389.768H252.672ZM242.976 399.672V400.776H244.176C246.656 400.776 248.832 400.68 251.456 400.248L251.312 399.16C248.752 399.576 246.592 399.672 244.176 399.672H242.976ZM242.944 391.128V392.216H248.288V395.208H242.976V400.088H244.304V396.296H249.632V391.128H242.944ZM256.847 396.504V397.512H269.967V396.504H256.847ZM258.399 398.68V399.624H267.023V400.856H258.447V403.464H259.759V401.768H268.319V398.68H258.399ZM258.447 403.112V404.072H268.783V403.112H258.447ZM258.511 390.2V391.144H266.975V392.312H258.543V394.776H259.855V393.208H268.271V390.2H258.511ZM258.543 394.456V395.416H268.543V394.456H258.543ZM32.768 411.248V412.336H39.936V411.248H32.768ZM36.352 413.296C34.56 413.296 33.248 414.656 33.248 416.608C33.248 418.544 34.56 419.904 36.352 419.904C38.16 419.904 39.472 418.544 39.472 416.608C39.472 414.656 38.16 413.296 36.352 413.296ZM36.352 414.432C37.472 414.432 38.288 415.328 38.288 416.608C38.288 417.888 37.472 418.784 36.352 418.784C35.248 418.784 34.448 417.888 34.448 416.608C34.448 415.328 35.248 414.432 36.352 414.432ZM43.76 408.784V423.248H45.04V408.784H43.76ZM41.456 414.864V415.968H44.192V414.864H41.456ZM40.672 409.104V422.544H41.92V409.104H40.672ZM35.712 409.2V411.92H37.024V409.2H35.712ZM47.5188 420.304V421.408H60.6228V420.304H47.5188ZM53.3748 416.848V420.624H54.7028V416.848H53.3748ZM49.0548 409.808V417.2H59.0548V409.808H57.7428V412.384H50.3668V409.808H49.0548ZM50.3668 413.456H57.7428V416.112H50.3668V413.456ZM67.9335 413.952V415.056H70.7015V413.952H67.9335ZM65.2295 410.144V412.896C65.2295 415.376 64.0455 417.968 62.0615 419.136L62.8935 420.144C65.0055 418.848 66.2695 415.92 66.2695 412.896V410.144H65.2295ZM65.4855 410.144V412.848C65.4855 415.664 66.6535 418.544 68.7335 419.824L69.5015 418.784C67.5975 417.632 66.5095 415.168 66.5095 412.848V410.144H65.4855ZM73.2455 408.784V423.248H74.5255V408.784H73.2455ZM70.3175 409.088V422.528H71.5655V409.088H70.3175ZM80.1562 416.224V420.56H81.4683V416.224H80.1562ZM85.5003 416.224V420.56H86.8283V416.224H85.5003ZM76.9563 420.304V421.408H90.0603V420.304H76.9563ZM83.4843 409.696C80.4123 409.696 78.2203 411.152 78.2203 413.424C78.2203 415.68 80.4123 417.136 83.4843 417.136C86.5403 417.136 88.7323 415.68 88.7323 413.424C88.7323 411.152 86.5403 409.696 83.4843 409.696ZM83.4843 410.752C85.8043 410.752 87.4523 411.808 87.4523 413.424C87.4523 415.024 85.8043 416.08 83.4843 416.08C81.1643 416.08 79.5003 415.024 79.5003 413.424C79.5003 411.808 81.1643 410.752 83.4843 410.752Z" fill="black"/>
</svg>
